SplineFontDB: 3.0
FontName: Crimson-BoldItalic
FullName: Crimson Bold Italic
FamilyName: Crimson
Weight: Bold
Copyright: Copyright (c) 2010, Sebastian Kosch (sebastian@aldusleaf.org),\nwith Reserved Font Name "Crimson".\nThis Font Software is licensed under the SIL Open Font License, Version 1.1.\nThis license is available with a FAQ at: http://scripts.sil.org/OFL
UComments: "2010-5-14: Created."
Version: 0.8
StyleMapFamilyName: 
ItalicAngle: -11
UnderlinePosition: -102
UnderlineWidth: 51
Ascent: 742
Descent: 282
InvalidEm: 0
UFOAscent: 742
UFODescent: -282
LayerCount: 2
Layer: 0 0 "Back" 1
Layer: 1 0 "Fore" 0
PreferredKerning: 4
StyleMap: 0x0021
FSType: 0
OS2Version: 0
OS2_WeightWidthSlopeOnly: 0
OS2_UseTypoMetrics: 0
CreationTime: 1489887481
ModificationTime: 1489887767
PfmFamily: 16
TTFWeight: 700
TTFWidth: 5
LineGap: 256
VLineGap: 0
Panose: 2 3 8 3 6 4 6 9 3 4
OS2TypoAscent: 742
OS2TypoAOffset: 0
OS2TypoDescent: -282
OS2TypoDOffset: 0
OS2TypoLinegap: 256
OS2WinAscent: 1130
OS2WinAOffset: 0
OS2WinDescent: 427
OS2WinDOffset: 0
HheadAscent: 1130
HheadAOffset: 0
HheadDescent: -427
HheadDOffset: 0
OS2SubXSize: 665
OS2SubYSize: 614
OS2SubXOff: -16
OS2SubYOff: 76
OS2SupXSize: 665
OS2SupYSize: 614
OS2SupXOff: 76
OS2SupYOff: 358
OS2StrikeYSize: 51
OS2StrikeYPos: 269
OS2FamilyClass: 258
OS2Vendor: 'PfEd'
Lookup: 1 0 0 "ccmpGlyphCompositionDecompositioninLatinlookup0" { "ccmpGlyphCompositionDecompositioninLatinlookup0 subtable"  } ['ccmp' ('latn' <'TRK ' > ) ]
Lookup: 1 0 0 "onumOldstyleFigureslookup1" { "onumOldstyleFigureslookup1 subtable" ("oldstyle") } ['onum' ('latn' <'dflt' 'TRK ' > 'grek' <'dflt' > 'cyrl' <'dflt' > 'DFLT' <'dflt' > ) ]
Lookup: 1 0 0 "pnumProportionalNumberslookup2" { "pnumProportionalNumberslookup2 subtable"  } ['pnum' ('latn' <'dflt' 'TRK ' > 'grek' <'dflt' > 'cyrl' <'dflt' > 'DFLT' <'dflt' > ) ]

StartChar: exclam
Encoding: 1 33 1
GlifName: exclam
Width: 257
VWidth: 0
GlyphClass: 2
Flags: W
HStem: -11 138<81.5 91.5> 622 20<188.5 219.5>
VStem: 23 227
LayerCount: 2
Fore
SplineSet
23 60 m 256
 30 97 64 127 99 127 c 256
 133 127 156 97 149 60 c 256
 142 23 109 -11 74 -11 c 256
 38 -11 16 23 23 60 c 256
205 642 m 256
 234 642 258 617 250 574 c 256
 245 546 171 309 142 221 c 256
 135 201 119 190 105 190 c 256
 100 190 99 200 99 212 c 256
 102 279 121 524 131 575 c 256
 139 617 172 642 205 642 c 256
EndSplineSet
Validated: 33
PickledDataWithLists: "(dp1
S'com.fontlab.hintData'
p2
(dp3
S'vhints'
p4
(lp5
(dp6
S'position'
p7
I23
sS'width'
p8
I227
sasS'hhints'
p9
(lp10
(dp11
g7
I-11
sg8
I138
sa(dp12
g7
I622
sg8
I20
sass."
EndChar

StartChar: quotedbl
Encoding: 2 34 2
GlifName: quotedbl
Width: 334
VWidth: 0
GlyphClass: 2
Flags: W
HStem: 434 264<116.5 192 159.5 277.5>
VStem: 105 101 259 101
LayerCount: 2
Fore
SplineSet
332 698 m 256
 360 698 371 692 360 633 c 256
 349 577 314 516 295 449 c 256
 292 439 281 434 274 434 c 256
 267 434 258 439 259 447 c 256
 268 537 259 590 259 636 c 257
 262 654 295 698 332 698 c 256
178 698 m 256
 206 698 217 692 206 633 c 256
 195 577 160 516 141 449 c 256
 138 439 127 434 120 434 c 256
 113 434 104 439 105 447 c 256
 114 537 105 590 105 636 c 257
 108 654 141 698 178 698 c 256
EndSplineSet
Validated: 33
PickledDataWithLists: "(dp1
S'com.fontlab.hintData'
p2
(dp3
S'vhints'
p4
(lp5
(dp6
S'position'
p7
I105
sS'width'
p8
I101
sa(dp9
g7
I259
sg8
I101
sasS'hhints'
p10
(lp11
(dp12
g7
I434
sg8
I264
sass."
EndChar

StartChar: numbersign
Encoding: 3 35 3
GlifName: numbersign
Width: 487
VWidth: 0
GlyphClass: 2
Flags: W
HStem: 170 67<36.5 129 57 110 192 250 57 173 332 385> 311 67<84.5 177 105 158 105 221 240 298 380 433>
LayerCount: 2
Fore
SplineSet
380 378 m 257
 380 378 422 378 451 378 c 256
 456 378 458 377 458 373 c 256
 458 357 444 311 433 311 c 258
 361 311 l 257
 332 237 l 257
 403 237 l 258
 408 237 410 235 410 231 c 256
 410 215 396 170 385 170 c 258
 313 170 l 257
 262 24 l 258
 261 21 252 16 224 16 c 256
 213 16 197 18 197 21 c 258
 197 21 198 23 198 24 c 256
 199 28 250 170 250 170 c 257
 173 170 l 257
 122 24 l 258
 121 21 112 16 84 16 c 256
 73 16 57 18 57 21 c 258
 57 21 58 23 58 24 c 256
 59 28 110 170 110 170 c 257
 39 170 l 258
 34 170 32 172 32 176 c 256
 32 192 46 237 57 237 c 258
 129 237 l 257
 158 311 l 257
 87 311 l 258
 82 311 80 313 80 317 c 256
 80 333 94 378 105 378 c 258
 177 378 l 257
 228 524 l 258
 229 527 243 532 271 532 c 256
 282 532 293 529 293 526 c 258
 293 526 292 525 292 524 c 256
 291 520 240 378 240 378 c 257
 317 378 l 257
 368 524 l 258
 369 527 383 532 411 532 c 256
 422 532 433 529 433 526 c 258
 433 526 432 525 432 524 c 256
 431 520 380 378 380 378 c 257
298 311 m 257
 221 311 l 257
 192 237 l 257
 269 237 l 257
 298 311 l 257
EndSplineSet
Validated: 1
PickledDataWithLists: "(dp1
S'com.fontlab.hintData'
p2
(dp3
S'hhints'
p4
(lp5
(dp6
S'position'
p7
I170
sS'width'
p8
I67
sa(dp9
g7
I311
sg8
I67
sass."
EndChar

StartChar: dollar
Encoding: 4 36 4
GlifName: dollar
Width: 492
VWidth: 0
GlyphClass: 2
Flags: HW
HStem: -10 40<189.811 214.5 189.811 242> 603 40<303.5 321.419>
VStem: 38 39 413 36<458 458>
LayerCount: 2
Fore
SplineSet
325 643 m 256
 328.738 643 332.411 642.925 336.028 642.782 c 258
 323.496 602.96 l 258
 322.67 602.987 321.838 603 321 603 c 256
 286 603 241 583 229 519 c 256
 222.093 484.466 240.695 451.588 266.691 422.464 c 257
 216.198 262.022 l 257
 208.465 268.597 201.212 274.606 195 280 c 256
 139 327 83 369 102 469 c 256
 121 568 233 643 325 643 c 256
149 -65 m 257
 140 -65 115 -57 118 -50 c 258
 131.958 -5.64985 l 257
 143.631 -7.17155 155.247 -8.35373 166.645 -9.09912 c 257
 149 -65 l 257
244.269 236.821 m 257
 294.18 394.945 l 257
 305.959 384.177 317.975 374.148 329 365 c 256
 380 323 444 282 422 168 c 256
 402 62 291 -10 193 -10 c 256
 184.4 -10 175.589 -9.68404 166.645 -9.09912 c 257
 179.261 30.8697 l 257
 183.377 30.2979 187.623 30 192 30 c 256
 237 30 284 55 297 123 c 256
 305.4 166.94 276.221 205.87 244.269 236.821 c 257
244.269 236.821 m 257
 179.261 30.8697 l 257
 167.426 32.514 156.668 36.4233 146.962 42.0271 c 257
 216.198 262.022 l 257
 225.202 254.364 234.856 245.939 244.269 236.821 c 257
294.18 394.945 m 257
 284.646 403.659 275.266 412.857 266.691 422.464 c 257
 323.496 602.96 l 257
 336.035 602.555 347.116 599.106 356.826 593.415 c 257
 294.18 394.945 l 257
356.826 593.415 m 257
 371.282 639.213 l 257
 403.95 633.989 434.118 624.28 470 616 c 257
 464 565 458 516 449 457 c 256
 445 453 442 451 438 451 c 256
 435 451 413 450 413 458 c 256
 415.41 501.38 399.105 568.639 356.826 593.415 c 257
371.282 639.213 m 257
 359.946 641.025 348.309 642.297 336.028 642.782 c 257
 349 684 l 257
 357 685 384 677 381 670 c 258
 371.282 639.213 l 257
146.962 42.0271 m 257
 131.958 -5.64985 l 257
 96.3383 -1.00668 60.1786 6.79761 28 15 c 257
 27 57 34 151 38 178 c 257
 43 184 62 192 67 192 c 256
 74 192 77 190 77 184 c 256
 75.4189 142.891 97.5868 70.5338 146.962 42.0271 c 257
EndSplineSet
Validated: 524325
PickledDataWithLists: "(dp1
S'com.fontlab.hintData'
p2
(dp3
S'vhints'
p4
(lp5
(dp6
S'position'
p7
I38
sS'width'
p8
I39
sa(dp9
g7
I413
sg8
I36
sasS'hhints'
p10
(lp11
(dp12
g7
I-10
sg8
I40
sa(dp13
g7
I603
sg8
I40
sass."
EndChar

StartChar: percent
Encoding: 5 37 5
GlifName: percent
Width: 700
VWidth: 0
GlyphClass: 2
Flags: W
HStem: -1 30<471.5 510 471.5 516.5> 271 29<502 539> 341 30<181.5 220 181.5 226.5> 613 29<212 249>
LayerCount: 2
Fore
SplineSet
529 271 m 256
 475 271 447 159 452 86 c 256
 453 70 460 29 483 29 c 256
 537 29 564 142 559 210 c 256
 557 232 549 271 529 271 c 256
535 300 m 256
 595 300 644 279 650 200 c 256
 657 105 560 -1 473 -1 c 256
 413 -1 365 33 361 97 c 256
 354 192 448 300 535 300 c 256
239 613 m 256
 185 613 157 501 162 428 c 256
 163 412 170 371 193 371 c 256
 247 371 274 484 269 552 c 256
 267 574 259 613 239 613 c 256
245 642 m 256
 305 642 354 621 360 542 c 256
 367 447 270 341 183 341 c 256
 123 341 75 375 71 439 c 256
 64 534 158 642 245 642 c 256
590 618 m 258
 144 -14 l 257
 144 -14 110 -6 110 5 c 256
 110 7 111 9 112 11 c 258
 559 643 l 257
 559 643 591 634 591 623 c 256
 591 621 591 619 590 618 c 258
EndSplineSet
Validated: 33
PickledDataWithLists: "(dp1
S'com.fontlab.hintData'
p2
(dp3
S'hhints'
p4
(lp5
(dp6
S'position'
p7
I-1
sS'width'
p8
I30
sa(dp9
g7
I271
sg8
I29
sa(dp10
g7
I341
sg8
I30
sa(dp11
g7
I613
sg8
I29
sass."
EndChar

StartChar: ampersand
Encoding: 6 38 6
GlifName: ampersand
Width: 809
VWidth: 0
GlyphClass: 2
Flags: W
HStem: -5 50<372.425 463.5> 483 53<324.901 471.5>
VStem: -10 62<89 170.201> 121 129 391 148<396.986 451.5> 447 36<162.5 171 141.5 213.5> 613 63<154 200.5> 728 76<388.5 546>
LayerCount: 2
Fore
SplineSet
448 536 m 256
 495 536 539 503 539 456 c 256
 539 328.769 361.6 271.819 250.014 245.039 c 257
 251.147 125.664 320.851 45 424 45 c 256
 517 45 613 99 613 192 c 256
 613 209 607 228 601 234 c 257
 547 214 483 193 483 149 c 256
 483 134 484 131 485 121 c 257
 481 119 468 125 461 131 c 256
 458 136 447 149 447 176 c 256
 447 251 489 266 576 318 c 256
 644 359 728 417 728 546 c 257
 737 547 747 543 753 540 c 256
 777 522 804 478 804 431 c 256
 804 346 738 294 668 260 c 257
 672 251 676 237 676 222 c 256
 676 86 534 -5 393 -5 c 256
 264.285 -5 121.631 69.6692 121.002 213.047 c 257
 78.9419 199.858 52 185.402 52 155 c 256
 52 138 60 130 73 118 c 256
 86 106 93 95 93 79 c 256
 93 46 69 25 39 25 c 256
 26 25 17 27 7 30 c 257
 -5 50 -10 80 -10 98 c 256
 -10 170 36 225 116 252 c 256
 118.684 252.906 121.515 253.808 124.48 254.71 c 256
 147.77 393.441 285.038 536 448 536 c 256
251.9 290.921 m 257
 323.439 316.186 391 356.973 391 437 c 256
 391 466 373 483 354 483 c 256
 295.802 483 260.239 386.423 251.9 290.921 c 257
EndSplineSet
Validated: 8912897
PickledDataWithLists: "(dp1
S'com.fontlab.hintData'
p2
(dp3
S'vhints'
p4
(lp5
(dp6
S'position'
p7
I-10
sS'width'
p8
I62
sa(dp9
g7
I121
sg8
I129
sa(dp10
g7
I391
sg8
I148
sa(dp11
g7
I447
sg8
I36
sa(dp12
g7
I613
sg8
I63
sa(dp13
g7
I728
sg8
I76
sasS'hhints'
p14
(lp15
(dp16
g7
I-5
sg8
I50
sa(dp17
g7
I483
sg8
I53
sass."
EndChar

StartChar: quotesingle
Encoding: 7 39 7
GlifName: quotesingle
Width: 180
VWidth: 0
GlyphClass: 2
Flags: W
HStem: 434 264<116.5 192>
VStem: 105 101
LayerCount: 2
Fore
SplineSet
178 698 m 256
 206 698 217 692 206 633 c 256
 195 577 160 516 141 449 c 256
 138 439 127 434 120 434 c 256
 113 434 104 439 105 447 c 256
 114 537 105 590 105 636 c 257
 108 654 141 698 178 698 c 256
EndSplineSet
Validated: 33
PickledDataWithLists: "(dp1
S'com.fontlab.hintData'
p2
(dp3
S'vhints'
p4
(lp5
(dp6
S'position'
p7
I105
sS'width'
p8
I101
sasS'hhints'
p9
(lp10
(dp11
g7
I434
sg8
I264
sass."
EndChar

StartChar: parenleft
Encoding: 8 40 8
GlifName: parenleft
Width: 277
VWidth: 0
GlyphClass: 2
Flags: W
HStem: -121 12
VStem: 39 293
LayerCount: 2
Fore
SplineSet
323 748 m 257
 329 746 333 739 332 735 c 257
 257 664 88 418 110 164 c 256
 122 23 159 -54 219 -109 c 257
 219 -112 219 -119 213 -121 c 257
 143 -99 54 4 39 177 c 256
 13 474 226 676 323 748 c 257
EndSplineSet
Validated: 33
PickledDataWithLists: "(dp1
S'com.fontlab.hintData'
p2
(dp3
S'vhints'
p4
(lp5
(dp6
S'position'
p7
I39
sS'width'
p8
I293
sasS'hhints'
p9
(lp10
(dp11
g7
I-121
sg8
I12
sass."
EndChar

StartChar: parenright
Encoding: 9 41 9
GlifName: parenright
Width: 275
VWidth: 0
GlyphClass: 2
Flags: W
HStem: 736 12
VStem: -38 292
LayerCount: 2
Fore
SplineSet
-29 -121 m 257
 -35 -119 -39 -112 -38 -108 c 257
 37 -37 206 209 184 463 c 256
 172 604 135 681 75 736 c 257
 75 739 75 746 81 748 c 257
 151 726 239 623 254 450 c 256
 280 153 68 -49 -29 -121 c 257
EndSplineSet
Validated: 33
PickledDataWithLists: "(dp1
S'com.fontlab.hintData'
p2
(dp3
S'vhints'
p4
(lp5
(dp6
S'position'
p7
I-38
sS'width'
p8
I292
sasS'hhints'
p9
(lp10
(dp11
g7
I736
sg8
I12
sass."
EndChar

StartChar: asterisk
Encoding: 10 42 10
GlifName: asterisk
Width: 425
VWidth: 0
GlyphClass: 2
Flags: W
HStem: 428 80<108 124> 462 54<263 279.5> 472 28<214.5 226 205 228.5> 645 20<215.5 245.5>
VStem: 165 76 233 53<451 508>
LayerCount: 2
Fore
SplineSet
270 516 m 256
 295 516 333 635 390 635 c 256
 404 635 417 626 417 602 c 256
 417 540 286 524 286 492 c 256
 286 465 407 485 407 424 c 256
 407 400 382 378 362 378 c 256
 319 378 292 462 267 462 c 256
 244 462 259 396 241 339 c 256
 232 309 211 301 197 301 c 256
 181 301 165 317 165 334 c 256
 165 374 233 438 233 464 c 256
 233 469 232 472 225 472 c 256
 204 472 143 428 105 428 c 256
 88 428 73 442 73 458 c 256
 73 471 81 508 135 508 c 256
 164 508 195 500 215 500 c 256
 237 500 237 503 237 510 c 256
 237 534 184 573 184 616 c 256
 184 641 203 665 228 665 c 256
 263 665 261 624 261 584 c 256
 261 578 256 516 270 516 c 256
EndSplineSet
Validated: 8388641
PickledDataWithLists: "(dp1
S'com.fontlab.hintData'
p2
(dp3
S'vhints'
p4
(lp5
(dp6
S'position'
p7
I165
sS'width'
p8
I76
sa(dp9
g7
I233
sg8
I53
sasS'hhints'
p10
(lp11
(dp12
g7
I428
sg8
I80
sa(dp13
g7
I462
sg8
I54
sa(dp14
g7
I472
sg8
I28
sa(dp15
g7
I645
sg8
I20
sass."
EndChar

StartChar: plus
Encoding: 11 43 11
GlifName: plus
Width: 467
VWidth: 0
GlyphClass: 2
Flags: W
HStem: 213 51<26.5 205 38 197 38 253 261 419>
LayerCount: 2
Fore
SplineSet
28 213 m 258
 25 213 23 216 23 221 c 256
 23 234 28 251 38 264 c 257
 205 264 l 257
 238 435 l 258
 240 448 283 451 287 451 c 256
 295 451 297 447 296 443 c 258
 261 264 l 257
 429 264 l 258
 431 264 432 261 432 256 c 256
 432 243 430 225 419 213 c 257
 253 213 l 257
 218 39 l 258
 216 29 191 23 175 23 c 256
 165 23 160 27 161 31 c 258
 197 213 l 257
 28 213 l 258
EndSplineSet
Validated: 1
PickledDataWithLists: "(dp1
S'com.fontlab.hintData'
p2
(dp3
S'hhints'
p4
(lp5
(dp6
S'position'
p7
I213
sS'width'
p8
I51
sass."
EndChar

StartChar: comma
Encoding: 12 44 12
GlifName: comma
Width: 214
VWidth: 0
GlyphClass: 2
Flags: W
HStem: -123 258
VStem: 9 119<85 87.5> 44 84<-24.5 106.5>
LayerCount: 2
Fore
SplineSet
-30 -103 m 257
 -22 -98 44 -49 44 0 c 256
 44 29 9 29 9 68 c 256
 9 107 50 135 93 135 c 256
 105 135 120 129 125 123 c 257
 127 118 128 112 128 101 c 256
 128 69 118 25 99 -10 c 256
 67 -67 36 -91 -14 -123 c 257
 -22 -121 -30 -113 -30 -103 c 257
EndSplineSet
Validated: 8388609
PickledDataWithLists: "(dp1
S'com.fontlab.hintData'
p2
(dp3
S'vhints'
p4
(lp5
(dp6
S'position'
p7
I9
sS'width'
p8
I119
sa(dp9
g7
I44
sg8
I84
sasS'hhints'
p10
(lp11
(dp12
g7
I-123
sg8
I258
sass."
EndChar

StartChar: hyphen
Encoding: 13 45 13
GlifName: hyphen
Width: 365
VWidth: 0
GlyphClass: 2
Flags: W
VStem: 48 257<204 269.5>
LayerCount: 2
Fore
SplineSet
72 267 m 258
 299 279 l 258
 304 279 305 272 305 267 c 256
 305 254 289 205 279 204 c 258
 53 193 l 258
 50 193 48 200 48 208 c 256
 48 219 61 266 72 267 c 258
EndSplineSet
Validated: 1
PickledDataWithLists: "(dp1
S'com.fontlab.hintData'
p2
(dp3
S'vhints'
p4
(lp5
(dp6
S'position'
p7
I48
sS'width'
p8
I257
sass."
EndChar

StartChar: period
Encoding: 14 46 14
GlifName: period
Width: 217
VWidth: 0
GlyphClass: 2
Flags: W
HStem: -11 138<65.5 75.5>
VStem: 7 126<60 60>
LayerCount: 2
Fore
SplineSet
7 60 m 256
 14 97 48 127 83 127 c 256
 117 127 140 97 133 60 c 256
 126 23 93 -11 58 -11 c 256
 22 -11 0 23 7 60 c 256
EndSplineSet
Validated: 33
PickledDataWithLists: "(dp1
S'com.fontlab.hintData'
p2
(dp3
S'vhints'
p4
(lp5
(dp6
S'position'
p7
I7
sS'width'
p8
I126
sasS'hhints'
p9
(lp10
(dp11
g7
I-11
sg8
I138
sass."
EndChar

StartChar: slash
Encoding: 15 47 15
GlifName: slash
Width: 404
VWidth: 0
GlyphClass: 2
Flags: W
LayerCount: 2
Fore
SplineSet
466 755 m 257
 42 -12 l 258
 39 -17 11 -34 -12 -34 c 256
 -16 -34 -23 -30 -24 -28 c 257
 401 739 l 258
 406 747 436 761 454 761 c 256
 460 761 464 758 466 755 c 257
EndSplineSet
Validated: 1
EndChar

StartChar: zero
Encoding: 16 48 16
GlifName: zero
Width: 481
VWidth: 0
GlyphClass: 2
Flags: W
HStem: -5 38<236.132 282.632 236.132 297.132> 604 38<321.632 374.632>
LayerCount: 2
Fore
SplineSet
208.132 152 m 256
 208.132 93 220.132 33 252.132 33 c 256
 313.132 33 397.132 239 397.132 462 c 256
 397.132 494 396.132 604 353.132 604 c 256
 290.132 604 208.132 398 208.132 152 c 256
84.1318 295 m 256
 122.132 488 256.132 642 364.132 642 c 256
 494.132 642 552.132 503 519.132 334 c 256
 486.132 165 359.132 -5 235.132 -5 c 256
 122.132 -5 51.1318 126 84.1318 295 c 256
EndSplineSet
Validated: 524321
PickledDataWithLists: "(dp1
S'com.fontlab.hintData'
p2
(dp3
S'hhints'
p4
(lp5
(dp6
S'position'
p7
I-5
sS'width'
p8
I38
sa(dp9
g7
I604
sg8
I38
sass."
Substitution2: "pnumProportionalNumberslookup2 subtable" zero.prop
Substitution2: "onumOldstyleFigureslookup1 subtable" zero.onum
EndChar

StartChar: one
Encoding: 17 49 17
GlifName: one
Width: 481
VWidth: 0
GlyphClass: 2
Flags: W
HStem: -3 29 622 20<431.631 433.631 433.631 436.131>
VStem: 121 321
LayerCount: 2
Fore
SplineSet
205.631 479 m 257
 198.631 483 195.631 495 195.631 502 c 256
 195.631 504 196.631 507 199.631 510 c 257
 301.631 565 380.631 609 431.631 642 c 257
 433.631 642 l 258
 438.631 642 443.631 619 441.631 606 c 257
 441.631 606 413.631 550 392.631 439 c 258
 336.631 135 l 258
 330.631 102 325.631 73 326.631 46 c 256
 327.631 35 377.631 26 384.631 26 c 256
 387.631 26 385.631 15 384.631 8 c 256
 383.631 3 382.631 -1 381.631 -3 c 257
 344.631 -1 260.631 2 223.631 2 c 256
 186.631 2 158.631 -1 120.631 -3 c 257
 116.631 2 121.631 26 126.631 26 c 256
 137.631 26 185.631 35 190.631 46 c 256
 199.631 66 203.631 84 206.631 103 c 258
 267.631 415 l 258
 279.631 475 285.631 506 266.631 506 c 256
 259.631 506 223.631 488 205.631 479 c 257
EndSplineSet
Validated: 524321
PickledDataWithLists: "(dp1
S'com.fontlab.hintData'
p2
(dp3
S'vhints'
p4
(lp5
(dp6
S'position'
p7
I121
sS'width'
p8
I321
sasS'hhints'
p9
(lp10
(dp11
g7
I-3
sg8
I29
sa(dp12
g7
I622
sg8
I20
sass."
Substitution2: "pnumProportionalNumberslookup2 subtable" one.prop
Substitution2: "onumOldstyleFigureslookup1 subtable" one.onum
EndChar

StartChar: two
Encoding: 18 50 18
GlifName: two
Width: 481
VWidth: 0
GlyphClass: 2
Flags: W
HStem: 0 110<183.938 355.938 355.938 382.438 183.938 393.938> 557 85<308.438 310.938>
VStem: 367 142
LayerCount: 2
Fore
SplineSet
508.938 490 m 256
 508.938 404 449.938 338 372.938 270 c 256
 281.938 190 181.938 110 183.938 110 c 257
 355.938 110 l 258
 408.938 110 428.938 144 440.938 176 c 256
 442.938 181 447.938 185 455.938 185 c 256
 462.938 185 468.938 181 472.938 178 c 257
 451.938 128 401.938 18 393.938 0 c 257
 393.938 0 60.9375 0 53.9375 0 c 257
 49.9375 0 45.9375 10 46.9375 22 c 257
 101.938 72 215.938 191 271.938 260 c 256
 333.938 336 366.938 406 366.938 468 c 256
 366.938 520 337.938 557 283.938 557 c 256
 225.938 557 179.938 502 172.938 493 c 257
 163.938 493 154.938 505 153.938 513 c 257
 164.938 538 259.938 642 356.938 642 c 256
 429.938 642 508.938 587 508.938 490 c 256
EndSplineSet
Validated: 524321
PickledDataWithLists: "(dp1
S'com.fontlab.hintData'
p2
(dp3
S'vhints'
p4
(lp5
(dp6
S'position'
p7
I367
sS'width'
p8
I142
sasS'hhints'
p9
(lp10
(dp11
g7
I0
sg8
I110
sa(dp12
g7
I557
sg8
I85
sass."
Substitution2: "pnumProportionalNumberslookup2 subtable" two.prop
Substitution2: "onumOldstyleFigureslookup1 subtable" two.onum
EndChar

StartChar: three
Encoding: 19 51 19
GlifName: three
Width: 481
VWidth: 0
GlyphClass: 2
Flags: W
HStem: -5 38<220.246 259.246> 315 32<211 211> 563 79<261.746 379.246>
VStem: 59 111 347 131 367 114
LayerCount: 2
Fore
SplineSet
355.746 642 m 256
 402.746 642 480.746 615 480.746 515 c 256
 480.746 429 395.746 383 357.746 372 c 257
 413.746 365 477.746 311 477.746 237 c 256
 477.746 83 315.746 -5 202.746 -5 c 256
 135.746 -5 90.7461 13 67.7461 29 c 257
 63.7461 34 58.7461 48 58.7461 59 c 256
 58.7461 113 95.7461 126 117.746 126 c 256
 153.746 126 160.746 97 169.746 78 c 256
 181.746 54 207.746 33 232.746 33 c 256
 289.746 33 346.746 103 346.746 216 c 256
 346.746 283 322.746 321 254.746 321 c 256
 240.746 321 223.746 318 211.746 315 c 257
 208.746 320 207.746 328 207.746 333 c 256
 207.746 337 209.746 344 211.746 347 c 257
 276.746 355 366.746 398 366.746 474 c 256
 366.746 534 331.746 563 289.746 563 c 256
 233.746 563 183.746 498 174.746 490 c 257
 166.746 490 154.746 504 154.746 513 c 257
 183.746 563 275.746 642 355.746 642 c 256
EndSplineSet
Validated: 8912897
PickledDataWithLists: "(dp1
S'com.fontlab.hintData'
p2
(dp3
S'vhints'
p4
(lp5
(dp6
S'position'
p7
I59
sS'width'
p8
I111
sa(dp9
g7
I347
sg8
I131
sa(dp10
g7
I367
sg8
I114
sasS'hhints'
p11
(lp12
(dp13
g7
I-5
sg8
I38
sa(dp14
g7
I315
sg8
I32
sa(dp15
g7
I563
sg8
I79
sass."
Substitution2: "pnumProportionalNumberslookup2 subtable" three.prop
Substitution2: "onumOldstyleFigureslookup1 subtable" three.onum
EndChar

StartChar: four
Encoding: 20 52 20
GlifName: four
Width: 481
VWidth: 0
GlyphClass: 2
Flags: W
HStem: -5 21<322.647 351.647> 175 67<147.647 312.647 451.647 495.647> 622 20<499.147 507.147>
LayerCount: 2
Fore
SplineSet
502.647 642 m 256
 511.647 642 525.647 624 523.647 616 c 258
 451.647 242 l 257
 504.647 242 l 258
 510.647 242 512.647 234 512.647 226 c 256
 512.647 208 502.647 184 495.647 175 c 257
 437.647 175 l 257
 404.647 2 l 257
 404.647 2 369.647 -5 333.647 -5 c 256
 311.647 -5 278.647 -2 279.647 5 c 258
 312.647 175 l 257
 57.6475 175 l 257
 51.6475 179 48.6475 192 49.6475 198 c 257
 474.647 626 l 258
 484.647 636 495.647 642 502.647 642 c 256
367.647 465 m 257
 147.647 242 l 257
 324.647 242 l 257
 367.647 465 l 257
EndSplineSet
Validated: 524321
PickledDataWithLists: "(dp1
S'com.fontlab.hintData'
p2
(dp3
S'hhints'
p4
(lp5
(dp6
S'position'
p7
I-5
sS'width'
p8
I21
sa(dp9
g7
I175
sg8
I67
sa(dp10
g7
I622
sg8
I20
sass."
Substitution2: "pnumProportionalNumberslookup2 subtable" four.prop
Substitution2: "onumOldstyleFigureslookup1 subtable" four.onum
EndChar

StartChar: five
Encoding: 21 53 21
GlifName: five
Width: 481
VWidth: 0
GlyphClass: 2
Flags: W
HStem: -5 38<222.659 261.659> 331 85<233.159 347.659> 530 105<245.159 253.659>
VStem: 61 111 349 128
LayerCount: 2
Fore
SplineSet
477.159 247 m 256
 477.159 93 318.159 -5 205.159 -5 c 256
 138.159 -5 93.1592 13 70.1592 29 c 257
 66.1592 34 61.1592 48 61.1592 59 c 256
 61.1592 113 98.1592 126 120.159 126 c 256
 156.159 126 163.159 97 172.159 78 c 256
 184.159 54 210.159 33 235.159 33 c 256
 292.159 33 349.159 103 349.159 216 c 256
 349.159 290 312.159 331 243.159 331 c 256
 223.159 331 187.159 325 168.159 319 c 257
 165.159 321 160.159 328 156.159 333 c 257
 190.159 468 216.159 591 225.159 635 c 257
 316.159 635 428.159 635 478.159 646 c 257
 484.159 642 488.159 634 488.159 631 c 257
 488.159 612 451.159 554 441.159 540 c 257
 396.159 530 262.159 530 245.159 530 c 257
 242.159 518 226.159 438 216.159 392 c 257
 244.159 410 298.159 416 309.159 416 c 256
 386.159 416 477.159 358 477.159 247 c 256
EndSplineSet
Validated: 524289
PickledDataWithLists: "(dp1
S'com.fontlab.hintData'
p2
(dp3
S'vhints'
p4
(lp5
(dp6
S'position'
p7
I61
sS'width'
p8
I111
sa(dp9
g7
I349
sg8
I128
sasS'hhints'
p10
(lp11
(dp12
g7
I-5
sg8
I38
sa(dp13
g7
I331
sg8
I85
sa(dp14
g7
I530
sg8
I105
sass."
Substitution2: "pnumProportionalNumberslookup2 subtable" five.prop
Substitution2: "onumOldstyleFigureslookup1 subtable" five.onum
EndChar

StartChar: six
Encoding: 22 54 22
GlifName: six
Width: 481
VWidth: 0
GlyphClass: 2
Flags: W
HStem: -6 35<241.489 282.489 241.489 309.989> 322 52<296.989 400.989> 618 24
VStem: 77 130 353 131
LayerCount: 2
Fore
SplineSet
362.489 374 m 256
 439.489 374 484.489 316 484.489 228 c 256
 484.489 98 373.489 -6 246.489 -6 c 256
 166.489 -6 77.4893 64 77.4893 178 c 256
 77.4893 270 116.489 372 204.489 467 c 256
 271.489 540 387.489 624 515.489 642 c 257
 521.489 638 521.489 624 520.489 618 c 257
 397.489 566 316.489 490 263.489 376 c 256
 222.489 287 207.489 202 207.489 133 c 256
 207.489 64 228.489 29 254.489 29 c 256
 310.489 29 353.489 151 353.489 228 c 256
 353.489 277 342.489 322 301.489 322 c 256
 292.489 322 284.489 322 278.489 319 c 257
 275.489 321 273.489 326 273.489 334 c 256
 273.489 346 325.489 374 362.489 374 c 256
EndSplineSet
Validated: 524289
PickledDataWithLists: "(dp1
S'com.fontlab.hintData'
p2
(dp3
S'vhints'
p4
(lp5
(dp6
S'position'
p7
I77
sS'width'
p8
I130
sa(dp9
g7
I353
sg8
I131
sasS'hhints'
p10
(lp11
(dp12
g7
I-6
sg8
I35
sa(dp13
g7
I322
sg8
I52
sa(dp14
g7
I618
sg8
I24
sass."
Substitution2: "pnumProportionalNumberslookup2 subtable" six.prop
Substitution2: "onumOldstyleFigureslookup1 subtable" six.onum
EndChar

StartChar: seven
Encoding: 23 55 23
GlifName: seven
Width: 481
VWidth: 0
GlyphClass: 2
Flags: W
HStem: -10 21<146.493 150.993> 526 110<209.993 245.993 209.993 460.993>
LayerCount: 2
Fore
SplineSet
111.993 13 m 257
 162.993 73 338.993 334 460.993 526 c 257
 245.993 526 l 258
 199.993 526 174.993 480 155.993 442 c 256
 153.993 439 152.993 437 143.993 436 c 256
 134.993 435 125.993 440 122.993 444 c 257
 144.993 493 196.993 605 209.993 636 c 257
 224.993 636 477.993 637 477.993 637 c 258
 510.993 637 555.993 641 561.993 641 c 256
 567.993 641 566.993 631 565.993 626 c 256
 563.993 617 549.993 598 528.993 565 c 258
 163.993 -8 l 257
 159.993 -10 151.993 -10 149.993 -10 c 256
 142.993 -10 107.993 -6 111.993 13 c 257
EndSplineSet
Validated: 524321
PickledDataWithLists: "(dp1
S'com.fontlab.hintData'
p2
(dp3
S'hhints'
p4
(lp5
(dp6
S'position'
p7
I-10
sS'width'
p8
I21
sa(dp9
g7
I526
sg8
I110
sass."
Substitution2: "pnumProportionalNumberslookup2 subtable" seven.prop
Substitution2: "onumOldstyleFigureslookup1 subtable" seven.onum
EndChar

StartChar: eight
Encoding: 24 56 24
GlifName: eight
Width: 481
VWidth: 0
GlyphClass: 2
Flags: W
HStem: -6 37<237.07 280.07 237.07 287.07> 608 34<332.57 371.07>
LayerCount: 2
Fore
SplineSet
359.57 642 m 256
 441.57 642 534.57 608 512.57 493 c 256
 498.57 420 436.57 379 378.57 355 c 256
 374.57 353 375.57 351 377.57 349 c 256
 437.57 297 485.57 231 471.57 162 c 256
 447.57 45 335.57 -6 238.57 -6 c 256
 136.57 -6 54.5703 71 73.5703 168 c 256
 90.5703 256 168.57 288 220.57 311 c 256
 223.57 312 224.57 316 222.57 317 c 256
 188.57 347 148.57 411 162.57 485 c 256
 179.57 570 258.57 642 359.57 642 c 256
350.57 608 m 256
 314.57 608 281.57 566 281.57 508 c 256
 281.57 451 309.57 413 343.57 383 c 256
 345.57 382 346.57 381 347.57 381 c 256
 348.57 381 350.57 381 352.57 384 c 256
 378.57 420 398.57 465 398.57 519 c 256
 398.57 554 391.57 608 350.57 608 c 256
257.57 31 m 256
 302.57 31 335.57 75 342.57 120 c 256
 356.57 208 266.57 276 257.57 284 c 256
 255.57 285 255.57 285 253.57 285 c 256
 252.57 285 251.57 284 250.57 283 c 256
 230.57 250 214.57 212 205.57 151 c 256
 194.57 74 216.57 31 257.57 31 c 256
EndSplineSet
Validated: 524321
PickledDataWithLists: "(dp1
S'com.fontlab.hintData'
p2
(dp3
S'hhints'
p4
(lp5
(dp6
S'position'
p7
I-6
sS'width'
p8
I37
sa(dp9
g7
I608
sg8
I34
sass."
Substitution2: "pnumProportionalNumberslookup2 subtable" eight.prop
Substitution2: "onumOldstyleFigureslookup1 subtable" eight.onum
EndChar

StartChar: nine
Encoding: 25 57 25
GlifName: nine
Width: 481
VWidth: 0
GlyphClass: 2
Flags: W
HStem: -6 24 262 52<203.637 307.637> 607 35<322.137 363.137>
VStem: 120 131 397 130
LayerCount: 2
Fore
SplineSet
242.137 262 m 256
 165.137 262 120.137 320 120.137 408 c 256
 120.137 538 231.137 642 358.137 642 c 256
 438.137 642 527.137 572 527.137 458 c 256
 527.137 366 488.137 264 400.137 169 c 256
 333.137 96 217.137 12 89.1367 -6 c 257
 83.1367 -2 83.1367 12 84.1367 18 c 257
 207.137 70 288.137 146 341.137 260 c 256
 382.137 349 397.137 434 397.137 503 c 256
 397.137 572 376.137 607 350.137 607 c 256
 294.137 607 251.137 485 251.137 408 c 256
 251.137 359 262.137 314 303.137 314 c 256
 312.137 314 320.137 314 326.137 317 c 257
 329.137 315 331.137 310 331.137 302 c 256
 331.137 290 279.137 262 242.137 262 c 256
EndSplineSet
Validated: 524289
PickledDataWithLists: "(dp1
S'com.fontlab.hintData'
p2
(dp3
S'vhints'
p4
(lp5
(dp6
S'position'
p7
I120
sS'width'
p8
I131
sa(dp9
g7
I397
sg8
I130
sasS'hhints'
p10
(lp11
(dp12
g7
I-6
sg8
I24
sa(dp13
g7
I262
sg8
I52
sa(dp14
g7
I607
sg8
I35
sass."
Substitution2: "pnumProportionalNumberslookup2 subtable" nine.prop
Substitution2: "onumOldstyleFigureslookup1 subtable" nine.onum
EndChar

StartChar: colon
Encoding: 26 58 26
GlifName: colon
Width: 242
VWidth: 0
GlyphClass: 2
Flags: W
HStem: -11 138<76.5 86.5> 305 138<137.5 147.5>
VStem: 18 187
LayerCount: 2
Fore
SplineSet
79 376 m 256
 86 413 120 443 155 443 c 256
 189 443 212 413 205 376 c 256
 198 339 165 305 130 305 c 256
 94 305 72 339 79 376 c 256
18 60 m 256
 25 97 59 127 94 127 c 256
 128 127 151 97 144 60 c 256
 137 23 104 -11 69 -11 c 256
 33 -11 11 23 18 60 c 256
EndSplineSet
Validated: 33
PickledDataWithLists: "(dp1
S'com.fontlab.hintData'
p2
(dp3
S'vhints'
p4
(lp5
(dp6
S'position'
p7
I18
sS'width'
p8
I187
sasS'hhints'
p9
(lp10
(dp11
g7
I-11
sg8
I138
sa(dp12
g7
I305
sg8
I138
sass."
EndChar

StartChar: semicolon
Encoding: 27 59 27
GlifName: semicolon
Width: 238
VWidth: 0
GlyphClass: 2
Flags: W
HStem: 305 138<134.5 144.5>
VStem: 21 119<85 87.5> 56 84<-24.5 106.5> 76 126<376 376>
LayerCount: 2
Fore
SplineSet
-18 -103 m 257
 -10 -98 56 -49 56 0 c 256
 56 29 21 29 21 68 c 256
 21 107 62 135 105 135 c 256
 117 135 132 129 137 123 c 257
 139 118 140 112 140 101 c 256
 140 69 130 25 111 -10 c 256
 79 -67 48 -91 -2 -123 c 257
 -10 -121 -18 -113 -18 -103 c 257
202 376 m 256
 195 339 162 305 127 305 c 256
 91 305 69 339 76 376 c 256
 83 413 117 443 152 443 c 256
 186 443 209 413 202 376 c 256
EndSplineSet
Validated: 8388641
PickledDataWithLists: "(dp1
S'com.fontlab.hintData'
p2
(dp3
S'vhints'
p4
(lp5
(dp6
S'position'
p7
I21
sS'width'
p8
I119
sa(dp9
g7
I56
sg8
I84
sa(dp10
g7
I76
sg8
I126
sasS'hhints'
p11
(lp12
(dp13
g7
I305
sg8
I138
sass."
EndChar

StartChar: less
Encoding: 28 60 28
GlifName: less
Width: 465
VWidth: 0
GlyphClass: 2
Flags: W
LayerCount: 2
Fore
SplineSet
104 209 m 257
 370 51 l 257
 370 51 372 50 371 45 c 256
 370 38 351 -15 345 -15 c 256
 344 -15 343 -14 341 -13 c 258
 29 177 l 258
 17 185 17 200 20 217 c 256
 22 228 31 236 41 241 c 258
 425 428 l 258
 427 429 429 430 430 430 c 256
 433 430 434 423 434 386 c 256
 434 373 430 364 430 364 c 257
 104 209 l 257
EndSplineSet
Validated: 33
EndChar

StartChar: equal
Encoding: 29 61 29
GlifName: equal
Width: 542
VWidth: 0
GlyphClass: 2
Flags: W
HStem: 164 51<53.5 456 65 446> 304 51<80.5 483 92 473>
LayerCount: 2
Fore
SplineSet
55 164 m 258
 52 164 50 167 50 172 c 256
 50 185 55 202 65 215 c 257
 456 215 l 258
 458 215 459 212 459 207 c 256
 459 194 457 176 446 164 c 257
 55 164 l 258
82 304 m 258
 79 304 77 307 77 312 c 256
 77 325 82 342 92 355 c 257
 483 355 l 258
 485 355 486 352 486 347 c 256
 486 334 484 316 473 304 c 257
 82 304 l 258
EndSplineSet
Validated: 1
PickledDataWithLists: "(dp1
S'com.fontlab.hintData'
p2
(dp3
S'hhints'
p4
(lp5
(dp6
S'position'
p7
I164
sS'width'
p8
I51
sa(dp9
g7
I304
sg8
I51
sass."
EndChar

StartChar: greater
Encoding: 30 62 30
GlifName: greater
Width: 467
VWidth: 0
GlyphClass: 2
Flags: W
LayerCount: 2
Fore
SplineSet
341 209 m 257
 75 364 l 257
 75 364 72 367 74 373 c 256
 88 410 98 430 101 430 c 256
 102 430 103 429 105 428 c 258
 416 241 l 258
 424 236 430 228 428 217 c 256
 425 200 419 185 403 177 c 258
 18 -13 l 258
 16 -14 14 -15 13 -15 c 256
 7 -15 8 38 9 45 c 256
 10 50 13 51 13 51 c 257
 341 209 l 257
EndSplineSet
Validated: 33
EndChar

StartChar: question
Encoding: 31 63 31
GlifName: question
Width: 375
VWidth: 0
GlyphClass: 2
Flags: W
HStem: -11 138<98.5 108.5> 573 73<248 253.5 188.5 275.5>
VStem: 40 126<60 60> 78 92<274 275.5 252.5 335> 300 73<521.5 537 472.5 546>
LayerCount: 2
Fore
SplineSet
40 60 m 256
 47 97 81 127 116 127 c 256
 150 127 173 97 166 60 c 256
 159 23 126 -11 91 -11 c 256
 55 -11 33 23 40 60 c 256
204 215 m 257
 204 209 196 198 191 195 c 257
 167 195 78 246 78 302 c 256
 78 368 133 394 159 412 c 256
 186 431 236 449 269 477 c 256
 289 494 300 509 300 534 c 256
 300 558 288 573 263 573 c 256
 233 573 202 522 172 522 c 256
 126 522 114 571 129 609 c 257
 141 624 165 646 212 646 c 256
 295 646 373 574 373 500 c 256
 373 445 360 404 285 357 c 256
 269 347 236 333 209 315 c 256
 187 301 170 284 170 267 c 256
 170 238 196 220 204 215 c 257
EndSplineSet
Validated: 8388641
PickledDataWithLists: "(dp1
S'com.fontlab.hintData'
p2
(dp3
S'vhints'
p4
(lp5
(dp6
S'position'
p7
I40
sS'width'
p8
I126
sa(dp9
g7
I78
sg8
I92
sa(dp10
g7
I300
sg8
I73
sasS'hhints'
p11
(lp12
(dp13
g7
I-11
sg8
I138
sa(dp14
g7
I573
sg8
I73
sass."
EndChar

StartChar: at
Encoding: 32 64 32
GlifName: at
Width: 778
VWidth: 0
GlyphClass: 2
Flags: W
HStem: -17 78<449.5 570.5> -7 88<231 352> 394 55<416.5 431> 540 42<395.5 544.5>
VStem: 30 52<101.5 257> 173 126<128 204.5> 688 57<231 369.5>
LayerCount: 2
Fore
SplineSet
525 132 m 258
 515 84 519 61 548 61 c 256
 593 61 688 162 688 300 c 256
 688 439 624 540 465 540 c 256
 326 540 82 382 82 142 c 256
 82 61 102 -12 172 -76 c 256
 186 -89 207 -100 215 -104 c 257
 209 -109 194 -114 181 -114 c 256
 174 -114 142 -106 121 -88 c 256
 63 -38 30 31 30 131 c 256
 30 383 275 582 483 582 c 256
 668 582 745 447 745 314 c 256
 745 93 547 -17 474 -17 c 256
 425 -17 399 9 399 58 c 256
 399 62 400 70 401 77 c 256
 402 85 404 92 405 96 c 257
 384 59 319 -7 259 -7 c 256
 203 -7 173 47 173 115 c 256
 173 294 353 449 480 449 c 256
 516 449 567 438 587 431 c 257
 525 132 l 258
424 394 m 256
 356 394 299 270 299 152 c 256
 299 104 313 81 335 81 c 256
 369 81 419 182 439 281 c 258
 459 382 l 257
 452 390 438 394 424 394 c 256
EndSplineSet
Validated: 8388641
PickledDataWithLists: "(dp1
S'com.fontlab.hintData'
p2
(dp3
S'vhints'
p4
(lp5
(dp6
S'position'
p7
I30
sS'width'
p8
I52
sa(dp9
g7
I173
sg8
I126
sa(dp10
g7
I688
sg8
I57
sasS'hhints'
p11
(lp12
(dp13
g7
I-17
sg8
I78
sa(dp14
g7
I-7
sg8
I88
sa(dp15
g7
I394
sg8
I55
sa(dp16
g7
I540
sg8
I42
sass."
EndChar

StartChar: A
Encoding: 33 65 33
GlifName: A_
Width: 620
VWidth: 0
GlyphClass: 2
Flags: W
HStem: -4 37 225 48<264.5 281.5> 642 20<391 400>
LayerCount: 2
Fore
SplineSet
61 134 m 258
 355 624 l 258
 363 637 386 662 396 662 c 256
 404 662 413 658 414 655 c 257
 507 148 l 258
 513 117 515 97 519 76 c 256
 527 35 577 33 584 33 c 257
 587 24 582 0 578 -4 c 257
 541 -2 496 4 455 4 c 256
 412 4 347 -2 313 -4 c 257
 309 1 316 33 321 33 c 257
 337 33 364 39 379 51 c 256
 386 56 390 61 391 68 c 256
 393 77 364 220 364 220 c 257
 364 220 362 224 359 224 c 256
 324 226 293 225 270 225 c 256
 232 225 206 225 173 224 c 256
 170 224 166 221 165 219 c 257
 165 219 131 163 115 135 c 256
 101 110 83 74 82 67 c 256
 77 41 140 33 147 33 c 257
 151 26 144 0 140 -4 c 257
 108 0 82 4 41 4 c 256
 -2 4 -28 0 -61 -4 c 257
 -64 0 -62 21 -56 32 c 257
 -45 32 3 48 15 64 c 256
 36 92 44 106 61 134 c 258
315 476 m 257
 197 280 l 257
 197 280 197 276 199 276 c 256
 217 274 254 273 275 273 c 256
 304 273 321 273 350 275 c 256
 352 275 354 280 354 280 c 257
 315 476 l 257
EndSplineSet
Validated: 33
PickledDataWithLists: "(dp1
S'com.fontlab.hintData'
p2
(dp3
S'hhints'
p4
(lp5
(dp6
S'position'
p7
I-4
sS'width'
p8
I37
sa(dp9
g7
I225
sg8
I48
sa(dp10
g7
I642
sg8
I20
sass."
EndChar

StartChar: B
Encoding: 34 66 34
GlifName: B_
Width: 589
VWidth: 0
GlyphClass: 2
Flags: W
HStem: -3 42 332 39<254 310 262 302> 620 40<369 384.5>
LayerCount: 2
Fore
SplineSet
262 371 m 257
 310 371 l 258
 356 371 397 412 412 487 c 256
 430 582 408 620 361 620 c 256
 340 620 319 619 312 608 c 256
 305 596 302 576 296 547 c 258
 262 371 l 257
254 332 m 257
 211 109 l 258
 210 103 202 63 207 51 c 256
 212 40 239 39 263 39 c 256
 306 39 368 73 388 176 c 256
 403 251 390 332 302 332 c 258
 254 332 l 257
396 660 m 256
 482 660 576 618 553 502 c 256
 537 422 453 376 426 366 c 256
 418 363 419 360 420 360 c 256
 465 354 557 296 537 192 c 256
 524 126 473 67 408 30 c 256
 346 -5 277 -4 208 -3 c 256
 169 -3 28 -2 -8 -3 c 257
 -11 3 -7 27 -1 34 c 257
 11 35 55 38 62 51 c 256
 73 71 79 102 87 145 c 258
 159 513 l 258
 167 556 174 587 170 607 c 256
 168 620 125 622 113 623 c 257
 110 630 116 654 121 660 c 257
 162 657 214 657 253 657 c 256
 292 657 342 660 396 660 c 256
EndSplineSet
Validated: 33
PickledDataWithLists: "(dp1
S'com.fontlab.hintData'
p2
(dp3
S'hhints'
p4
(lp5
(dp6
S'position'
p7
I-3
sS'width'
p8
I42
sa(dp9
g7
I332
sg8
I39
sa(dp10
g7
I620
sg8
I40
sass."
EndChar

StartChar: C
Encoding: 35 67 35
GlifName: C_
Width: 646
VWidth: 0
GlyphClass: 2
Flags: W
HStem: -7 44<299.5 380> 624 43<377.5 473.5 354.5 502>
VStem: 52 144<222 373 222 401> 591 34
LayerCount: 2
Fore
SplineSet
443 624 m 256
 312 624 196 478 196 268 c 256
 196 176 234 37 365 37 c 256
 412 37 455 55 485 80 c 256
 531 118 571 196 574 204 c 257
 588 204 599 199 605 192 c 257
 603 181 551 48 537 40 c 256
 481 9 423 -7 337 -7 c 256
 142 -7 52 142 52 276 c 256
 52 526 266 667 443 667 c 256
 504 667 585 650 638 638 c 257
 638 627 627 506 625 494 c 256
 624 488 614 480 603 480 c 256
 598 480 594 480 591 484 c 257
 589 523 561 624 443 624 c 256
EndSplineSet
Validated: 1
PickledDataWithLists: "(dp1
S'com.fontlab.hintData'
p2
(dp3
S'vhints'
p4
(lp5
(dp6
S'position'
p7
I52
sS'width'
p8
I144
sa(dp9
g7
I591
sg8
I34
sasS'hhints'
p10
(lp11
(dp12
g7
I-7
sg8
I44
sa(dp13
g7
I624
sg8
I43
sass."
EndChar

StartChar: D
Encoding: 36 68 36
GlifName: D_
Width: 720
VWidth: 0
GlyphClass: 2
Flags: W
HStem: -3 42<251 260> 620 40<396 430>
LayerCount: 2
Fore
SplineSet
296 547 m 258
 217 141 l 258
 216 135 205 82 209 62 c 256
 212 48 239 39 263 39 c 256
 415 39 500 119 538 314 c 256
 576 510 499 620 361 620 c 256
 340 620 319 619 312 608 c 256
 305 596 302 576 296 547 c 258
396 660 m 256
 611 660 726 522 686 317 c 256
 641 83 461 -3 260 -3 c 256
 221 -3 28 -2 -8 -3 c 257
 -11 3 -7 27 -1 34 c 257
 11 35 55 38 62 51 c 256
 73 71 79 102 87 145 c 258
 159 513 l 258
 167 556 174 587 170 607 c 256
 168 620 125 622 113 623 c 257
 110 630 116 654 121 660 c 257
 162 657 214 657 253 657 c 256
 292 657 341 659 396 660 c 256
EndSplineSet
Validated: 33
PickledDataWithLists: "(dp1
S'com.fontlab.hintData'
p2
(dp3
S'hhints'
p4
(lp5
(dp6
S'position'
p7
I-3
sS'width'
p8
I42
sa(dp9
g7
I620
sg8
I40
sass."
EndChar

StartChar: E
Encoding: 37 69 37
GlifName: E_
Width: 572
VWidth: 0
GlyphClass: 2
Flags: W
HStem: -3 37 -2 44<265 327 327 344.5 265 446> 310 47<304 334.5> 620 37
VStem: 407 29<238 242> 444 29 519 36
LayerCount: 2
Fore
SplineSet
253 657 m 256
 292 657 502 663 557 664 c 257
 554 614 555 561 555 516 c 257
 552 513 539 511 532 511 c 256
 525 511 520 514 519 519 c 256
 510 574 495 620 438 620 c 258
 361 620 l 258
 340 620 319 619 312 608 c 256
 305 596 302 576 296 547 c 258
 261 368 l 258
 260 362 279 357 299 357 c 258
 348 357 l 258
 403 357 418 369 444 427 c 256
 446 432 449 435 456 435 c 256
 463 435 471 433 473 430 c 257
 436 238 l 257
 434 236 425 234 418 234 c 256
 411 234 407 237 407 242 c 256
 405 290 394 299 386 303 c 256
 376 308 352 310 317 310 c 256
 291 310 249 308 247 296 c 258
 217 141 l 258
 216 135 205 82 209 62 c 256
 212 48 241 42 265 42 c 258
 327 42 l 258
 362 42 394 52 420 75 c 256
 444 96 463 125 488 170 c 256
 490 174 496 176 503 176 c 256
 512 176 527 173 529 170 c 257
 501 116 461 42 446 -2 c 257
 420 -2 246 -2 120 -2 c 256
 56 -2 4 -3 -8 -3 c 257
 -11 3 -7 27 -1 34 c 257
 11 35 55 38 62 51 c 256
 73 71 79 102 87 145 c 258
 159 513 l 258
 167 556 174 587 170 607 c 256
 168 620 125 622 113 623 c 257
 110 630 116 654 121 660 c 257
 162 657 214 657 253 657 c 256
EndSplineSet
Validated: 8388641
PickledDataWithLists: "(dp1
S'com.fontlab.hintData'
p2
(dp3
S'vhints'
p4
(lp5
(dp6
S'position'
p7
I407
sS'width'
p8
I29
sa(dp9
g7
I444
sg8
I29
sa(dp10
g7
I519
sg8
I36
sasS'hhints'
p11
(lp12
(dp13
g7
I-3
sg8
I37
sa(dp14
g7
I-2
sg8
I44
sa(dp15
g7
I310
sg8
I47
sa(dp16
g7
I620
sg8
I37
sass."
EndChar

StartChar: F
Encoding: 38 70 38
GlifName: F_
Width: 525
VWidth: 0
GlyphClass: 2
Flags: W
HStem: -4 37 306 47<303 333.5> 620 37
VStem: 406 29<234 238> 443 29 519 36
LayerCount: 2
Fore
SplineSet
253 657 m 256
 292 657 502 663 557 664 c 257
 554 614 555 561 555 516 c 257
 552 513 539 511 532 511 c 256
 525 511 520 514 519 519 c 256
 510 574 495 620 438 620 c 258
 361 620 l 258
 340 620 319 619 312 608 c 256
 305 596 302 576 296 547 c 258
 260 364 l 258
 259 358 278 353 298 353 c 258
 347 353 l 258
 402 353 417 365 443 423 c 256
 445 428 448 431 455 431 c 256
 462 431 470 429 472 426 c 257
 435 234 l 257
 433 232 424 230 417 230 c 256
 410 230 406 233 406 238 c 256
 404 286 393 295 385 299 c 256
 375 304 351 306 316 306 c 256
 290 306 248 304 246 292 c 258
 218 145 l 258
 210 102 203 71 207 51 c 256
 209 38 259 34 271 33 c 257
 274 26 269 2 264 -4 c 257
 229 0 163 3 124 3 c 256
 85 3 28 0 -9 -4 c 257
 -12 2 -7 26 -1 33 c 257
 11 34 55 38 62 51 c 256
 73 71 79 102 87 145 c 258
 159 513 l 258
 167 556 174 587 170 607 c 256
 168 620 125 622 113 623 c 257
 110 630 116 654 121 660 c 257
 162 657 214 657 253 657 c 256
EndSplineSet
Validated: 33
PickledDataWithLists: "(dp1
S'com.fontlab.hintData'
p2
(dp3
S'vhints'
p4
(lp5
(dp6
S'position'
p7
I406
sS'width'
p8
I29
sa(dp9
g7
I443
sg8
I29
sa(dp10
g7
I519
sg8
I36
sasS'hhints'
p11
(lp12
(dp13
g7
I-4
sg8
I37
sa(dp14
g7
I306
sg8
I47
sa(dp15
g7
I620
sg8
I37
sass."
EndChar

StartChar: G
Encoding: 39 71 39
GlifName: G_
Width: 678
VWidth: 0
GlyphClass: 2
Flags: W
HStem: -7 44<299.5 380> 274 37 624 43<377.5 473.5 354.5 501.5>
VStem: 52 144<222 373 222 401> 461 105 591 34
LayerCount: 2
Fore
SplineSet
443 667 m 256
 504 667 585 650 638 638 c 257
 638 627 627 506 625 494 c 256
 624 488 614 480 603 480 c 256
 598 480 594 480 591 484 c 257
 589 523 560 624 443 624 c 256
 312 624 196 478 196 268 c 256
 196 176 234 37 365 37 c 256
 399 37 415 45 422 50 c 256
 426 53 430 58 432 67 c 256
 435 82 447 148 456 196 c 256
 460 216 462 225 461 247 c 256
 459 272 411 274 400 274 c 256
 395 274 401 306 407 311 c 257
 454 309 506 305 553 305 c 256
 592 305 625 309 663 311 c 257
 664 298 658 274 655 274 c 257
 648 274 620 268 608 261 c 256
 602 257 593 237 589 218 c 256
 582 181 573 132 566 98 c 256
 564 89 567 74 566 69 c 256
 564 58 542 42 529 36 c 256
 476 10 423 -7 337 -7 c 256
 142 -7 52 142 52 276 c 256
 52 526 266 667 443 667 c 256
EndSplineSet
Validated: 33
PickledDataWithLists: "(dp1
S'com.fontlab.hintData'
p2
(dp3
S'vhints'
p4
(lp5
(dp6
S'position'
p7
I52
sS'width'
p8
I144
sa(dp9
g7
I461
sg8
I105
sa(dp10
g7
I591
sg8
I34
sasS'hhints'
p11
(lp12
(dp13
g7
I-7
sg8
I44
sa(dp14
g7
I274
sg8
I37
sa(dp15
g7
I624
sg8
I43
sass."
EndChar

StartChar: H
Encoding: 40 72 40
GlifName: H_
Width: 707
VWidth: 0
GlyphClass: 2
Flags: W
HStem: -4 37 317 51<263 384> 625 37
LayerCount: 2
Fore
SplineSet
253 655 m 256
 292 655 348 658 385 662 c 257
 388 656 384 632 378 625 c 257
 366 624 322 620 315 607 c 256
 304 587 297 556 289 513 c 258
 262 371 l 257
 262 369 263 368 263 368 c 257
 299 367 333 365 375 365 c 256
 409 365 450 367 484 368 c 257
 484 368 487 370 487 372 c 258
 513 513 l 258
 521 556 528 587 524 607 c 256
 522 620 480 624 468 625 c 257
 465 632 470 656 475 662 c 257
 510 658 568 655 607 655 c 256
 646 655 702 658 739 662 c 257
 742 656 738 632 732 625 c 257
 720 624 676 620 669 607 c 256
 658 587 651 556 643 513 c 258
 572 145 l 258
 564 102 557 71 561 51 c 256
 563 38 605 34 617 33 c 257
 620 26 615 2 610 -4 c 257
 575 0 517 3 478 3 c 256
 439 3 383 0 346 -4 c 257
 343 2 347 26 353 33 c 257
 365 34 409 38 416 51 c 256
 427 71 434 102 442 145 c 258
 474 310 l 258
 474 312 473 315 473 315 c 257
 439 316 403 317 365 317 c 256
 262 317 254 315 251 313 c 257
 250 312 249 309 249 309 c 257
 218 145 l 258
 210 102 203 71 207 51 c 256
 209 38 251 34 263 33 c 257
 266 26 261 2 256 -4 c 257
 221 0 163 3 124 3 c 256
 85 3 28 0 -9 -4 c 257
 -12 2 -7 26 -1 33 c 257
 11 34 55 38 62 51 c 256
 73 71 79 102 87 145 c 258
 159 513 l 258
 167 556 174 587 170 607 c 256
 168 620 126 624 114 625 c 257
 111 632 116 656 121 662 c 257
 156 658 214 655 253 655 c 256
EndSplineSet
Validated: 33
PickledDataWithLists: "(dp1
S'com.fontlab.hintData'
p2
(dp3
S'hhints'
p4
(lp5
(dp6
S'position'
p7
I-4
sS'width'
p8
I37
sa(dp9
g7
I317
sg8
I51
sa(dp10
g7
I625
sg8
I37
sass."
EndChar

StartChar: I
Encoding: 41 73 41
GlifName: I_
Width: 353
VWidth: 0
GlyphClass: 2
Flags: W
HStem: -4 37 625 37
LayerCount: 2
Fore
SplineSet
253 655 m 256
 292 655 348 658 385 662 c 257
 388 656 384 632 378 625 c 257
 366 624 322 620 315 607 c 256
 304 587 297 556 289 513 c 258
 218 145 l 258
 210 102 203 71 207 51 c 256
 209 38 251 34 263 33 c 257
 266 26 261 2 256 -4 c 257
 221 0 163 3 124 3 c 256
 85 3 28 0 -9 -4 c 257
 -12 2 -7 26 -1 33 c 257
 11 34 55 38 62 51 c 256
 73 71 79 102 87 145 c 258
 159 513 l 258
 167 556 174 587 170 607 c 256
 168 620 126 624 114 625 c 257
 111 632 116 656 121 662 c 257
 156 658 214 655 253 655 c 256
EndSplineSet
Validated: 33
PickledDataWithLists: "(dp1
S'com.fontlab.hintData'
p2
(dp3
S'hhints'
p4
(lp5
(dp6
S'position'
p7
I-4
sS'width'
p8
I37
sa(dp9
g7
I625
sg8
I37
sass."
EndChar

StartChar: J
Encoding: 42 74 42
GlifName: J_
Width: 336
VWidth: 0
GlyphClass: 2
Flags: W
HStem: -218 24 625 37
LayerCount: 2
Fore
SplineSet
247 655 m 256
 286 655 342 658 379 662 c 257
 382 656 378 632 372 625 c 257
 360 624 316 620 309 607 c 256
 298 587 291 556 283 513 c 258
 211 143 l 258
 167 -85 -39 -200 -98 -218 c 257
 -103 -215 -109 -205 -109 -200 c 256
 -109 -197 -108 -195 -107 -194 c 257
 -4 -138 48 -31 80 135 c 258
 153 513 l 258
 161 556 168 587 164 607 c 256
 162 620 120 624 108 625 c 257
 105 632 110 656 115 662 c 257
 150 658 208 655 247 655 c 256
EndSplineSet
Validated: 33
PickledDataWithLists: "(dp1
S'com.fontlab.hintData'
p2
(dp3
S'hhints'
p4
(lp5
(dp6
S'position'
p7
I-218
sS'width'
p8
I24
sa(dp9
g7
I625
sg8
I37
sass."
EndChar

StartChar: K
Encoding: 43 75 43
GlifName: K_
Width: 688
VWidth: 0
GlyphClass: 2
Flags: W
HStem: -4 37 625 37
LayerCount: 2
Fore
SplineSet
521 141 m 256
 598 26 653 29 660 29 c 257
 663 22 656 0 655 -2 c 257
 628 -4 628 -6 590 -6 c 256
 491 -6 449 20 401 92 c 256
 378 126 304 244 267 302 c 256
 265 305 260 306 258 306 c 256
 254 306 251 304 248 300 c 257
 218 145 l 258
 210 102 203 71 207 51 c 256
 209 38 251 34 263 33 c 257
 266 26 261 2 256 -4 c 257
 221 0 163 3 124 3 c 256
 85 3 28 0 -9 -4 c 257
 -12 2 -7 26 -1 33 c 257
 11 34 55 38 62 51 c 256
 73 71 79 102 87 145 c 258
 159 513 l 258
 167 556 174 587 170 607 c 256
 168 620 126 624 114 625 c 257
 111 632 116 656 121 662 c 257
 156 658 214 655 253 655 c 256
 292 655 348 658 385 662 c 257
 388 656 384 632 378 625 c 257
 366 624 322 620 315 607 c 256
 304 587 297 556 289 513 c 258
 255 337 l 257
 303 372 342 403 369 428 c 256
 437 489 468 514 518 570 c 256
 530 583 533 596 534 603 c 256
 538 624 499 626 486 626 c 257
 483 634 486 653 491 662 c 257
 525 660 577 655 611 655 c 256
 652 655 692 658 727 662 c 257
 728 655 725 633 719 627 c 257
 710 626 644 619 605 583 c 258
 605 583 465 455 380 376 c 256
 373 369 372 365 375 360 c 256
 429 274 468 220 521 141 c 256
EndSplineSet
Validated: 33
PickledDataWithLists: "(dp1
S'com.fontlab.hintData'
p2
(dp3
S'hhints'
p4
(lp5
(dp6
S'position'
p7
I-4
sS'width'
p8
I37
sa(dp9
g7
I625
sg8
I37
sass."
EndChar

StartChar: L
Encoding: 44 76 44
GlifName: L_
Width: 547
VWidth: 0
GlyphClass: 2
Flags: W
HStem: -3 37 -2 44<265 327 327 344.5 265 446> 625 37
LayerCount: 2
Fore
SplineSet
217 141 m 258
 216 135 205 82 209 62 c 256
 212 48 241 42 265 42 c 258
 327 42 l 258
 362 42 394 52 420 75 c 256
 444 96 463 125 488 170 c 256
 490 174 496 176 503 176 c 256
 512 176 527 173 529 170 c 257
 501 116 461 42 446 -2 c 257
 420 -2 249 -2 124 -2 c 256
 58 -2 5 -3 -8 -3 c 257
 -11 3 -7 27 -1 34 c 257
 11 35 55 38 62 51 c 256
 73 71 79 102 87 145 c 258
 159 513 l 258
 167 556 174 587 170 607 c 256
 168 620 126 624 114 625 c 257
 111 632 116 656 121 662 c 257
 156 658 214 655 253 655 c 256
 292 655 348 658 385 662 c 257
 388 656 384 632 378 625 c 257
 366 624 322 620 315 607 c 256
 304 587 297 556 289 513 c 258
 217 141 l 258
EndSplineSet
Validated: 8388641
PickledDataWithLists: "(dp1
S'com.fontlab.hintData'
p2
(dp3
S'hhints'
p4
(lp5
(dp6
S'position'
p7
I-3
sS'width'
p8
I37
sa(dp9
g7
I-2
sg8
I44
sa(dp10
g7
I625
sg8
I37
sass."
EndChar

StartChar: M
Encoding: 45 77 45
GlifName: M_
Width: 859
VWidth: 0
GlyphClass: 2
Flags: W
HStem: -4 37 625 37
LayerCount: 2
Fore
SplineSet
242 656 m 256
 274 656 302 660 340 662 c 257
 355 598 397 408 434 238 c 257
 434 238 436 236 437 236 c 256
 438 236 442 241 442 242 c 258
 442 242 548 426 611 546 c 256
 634 589 663 658 663 658 c 257
 671 657 745 655 763 655 c 256
 795 655 835 660 873 662 c 257
 876 658 876 632 870 624 c 257
 863 624 830 620 819 613 c 256
 808 606 802 599 798 572 c 256
 787 502 749 280 730 152 c 256
 724 113 719 77 723 51 c 256
 726 37 771 33 778 33 c 257
 780 24 778 6 773 -4 c 257
 736 -2 689 4 648 4 c 256
 605 4 543 -2 500 -4 c 257
 497 0 502 25 506 33 c 257
 517 33 563 38 574 52 c 256
 580 60 587 77 589 87 c 256
 591 97 596 130 599 148 c 258
 658 497 l 258
 659 500 664 523 657 523 c 256
 655 523 654 521 651 516 c 258
 394 40 l 258
 389 31 363 -2 346 -2 c 256
 343 -2 341 -1 338 0 c 257
 232 523 l 257
 185 315 181 291 145 134 c 256
 140 112 135 72 135 65 c 256
 136 44 203 33 210 33 c 257
 211 26 209 6 204 -4 c 257
 167 -2 132 4 91 4 c 256
 48 4 16 -2 -27 -4 c 257
 -29 3 -26 22 -21 32 c 257
 -10 32 50 42 65 68 c 256
 71 78 89 140 93 156 c 256
 121 273 181 534 192 581 c 256
 193 588 194 596 191 603 c 256
 186 614 151 625 135 625 c 257
 131 633 140 660 142 662 c 257
 184 660 199 656 242 656 c 256
EndSplineSet
Validated: 33
PickledDataWithLists: "(dp1
S'com.fontlab.hintData'
p2
(dp3
S'hhints'
p4
(lp5
(dp6
S'position'
p7
I-4
sS'width'
p8
I37
sa(dp9
g7
I625
sg8
I37
sass."
EndChar

StartChar: N
Encoding: 46 78 46
GlifName: N_
Width: 715
VWidth: 0
GlyphClass: 2
Flags: W
HStem: -4 37 4 29 625 38 625 30
LayerCount: 2
Fore
SplineSet
221 655 m 256
 254 655 293 658 324 662 c 257
 344 584 457 401 542 248 c 257
 545 255 549 275 552 289 c 258
 588 476 l 258
 595 514 607 589 603 604 c 256
 599 622 543 626 532 626 c 257
 530 626 533 654 539 663 c 257
 581 661 608 655 651 655 c 256
 692 655 732 661 770 663 c 257
 771 657 768 635 760 625 c 257
 753 625 691 623 679 602 c 256
 672 588 652 515 645 479 c 258
 579 139 l 258
 568 81 564 51 556 -1 c 257
 553 -4 535 -5 532 -5 c 256
 524 -5 515 5 508 18 c 258
 226 519 l 257
 156 157 l 258
 149 121 145 74 147 60 c 256
 150 41 212 34 219 34 c 257
 223 24 216 2 213 -4 c 257
 176 -2 138 4 97 4 c 256
 54 4 25 -2 -18 -4 c 257
 -21 5 -12 33 -10 33 c 257
 1 33 58 41 69 59 c 256
 78 74 93 122 100 160 c 256
 125 291 144 383 169 514 c 256
 179 568 177 585 169 604 c 256
 163 617 123 625 112 625 c 256
 107 625 111 657 117 662 c 257
 145 660 178 655 221 655 c 256
EndSplineSet
Validated: 8388641
PickledDataWithLists: "(dp1
S'com.fontlab.hintData'
p2
(dp3
S'hhints'
p4
(lp5
(dp6
S'position'
p7
I-4
sS'width'
p8
I37
sa(dp9
g7
I4
sg8
I29
sa(dp10
g7
I625
sg8
I38
sa(dp11
g7
I625
sg8
I30
sass."
EndChar

StartChar: O
Encoding: 47 79 47
GlifName: O_
Width: 705
VWidth: 0
GlyphClass: 2
Flags: W
HStem: -10 43<278.5 378> 624 43<341.5 447>
VStem: 49 144<188 326.5 186.5 385.5> 535 144<327.5 457.5 265 467.5>
LayerCount: 2
Fore
SplineSet
402 624 m 256
 264 624 193 409 193 244 c 256
 193 129 231 33 326 33 c 256
 461 33 535 245 535 410 c 256
 535 525 492 624 402 624 c 256
424 667 m 256
 588 667 679 522 679 393 c 256
 679 137 461 -10 295 -10 c 256
 155 -10 49 115 49 261 c 256
 49 510 259 667 424 667 c 256
EndSplineSet
Validated: 1
PickledDataWithLists: "(dp1
S'com.fontlab.hintData'
p2
(dp3
S'vhints'
p4
(lp5
(dp6
S'position'
p7
I49
sS'width'
p8
I144
sa(dp9
g7
I535
sg8
I144
sasS'hhints'
p10
(lp11
(dp12
g7
I-10
sg8
I43
sa(dp13
g7
I624
sg8
I43
sass."
EndChar

StartChar: P
Encoding: 48 80 48
GlifName: P_
Width: 557
VWidth: 0
GlyphClass: 2
Flags: W
HStem: -4 37 286 41<320.5 335 305 381> 620 40<369.5 392>
LayerCount: 2
Fore
SplineSet
573 465 m 256
 550 345 428 286 334 286 c 256
 307 286 294 296 287 301 c 256
 283 304 277 319 277 324 c 256
 277 328 280 331 282 331 c 257
 291 328 298 327 312 327 c 256
 358 327 419 385 432 451 c 256
 449 540 423 620 361 620 c 256
 340 620 319 619 312 608 c 256
 305 596 302 576 296 547 c 258
 218 145 l 258
 210 102 203 71 207 51 c 256
 209 38 251 34 263 33 c 257
 266 26 261 2 256 -4 c 257
 221 0 163 3 124 3 c 256
 85 3 28 0 -9 -4 c 257
 -12 2 -7 26 -1 33 c 257
 11 34 55 38 62 51 c 256
 73 71 79 102 87 145 c 258
 159 513 l 258
 167 556 174 587 170 607 c 256
 168 620 125 622 113 623 c 257
 110 630 116 654 121 660 c 257
 162 657 214 657 253 657 c 256
 292 657 342 660 397 660 c 256
 513 660 594 572 573 465 c 256
EndSplineSet
Validated: 33
PickledDataWithLists: "(dp1
S'com.fontlab.hintData'
p2
(dp3
S'hhints'
p4
(lp5
(dp6
S'position'
p7
I-4
sS'width'
p8
I37
sa(dp9
g7
I286
sg8
I41
sa(dp10
g7
I620
sg8
I40
sass."
EndChar

StartChar: Q
Encoding: 49 81 49
GlifName: Q_
Width: 706
VWidth: 0
GlyphClass: 2
Flags: W
HStem: -140 67<482 634.5> 624 43<342.5 448>
VStem: 50 144<201 326.5 186.5 385.5> 536 144<327.5 457.5 286 467.5>
LayerCount: 2
Fore
SplineSet
425 667 m 256
 589 667 680 522 680 393 c 256
 680 179 535 56 406 10 c 257
 486 -36 527 -73 623 -73 c 256
 646 -73 667 -68 674 -66 c 257
 681 -66 689 -70 693 -76 c 257
 681 -86 592 -140 535 -140 c 256
 429 -140 355 -58 234 -8 c 256
 118 40 50 141 50 261 c 256
 50 510 260 667 425 667 c 256
403 624 m 256
 265 624 194 409 194 244 c 256
 194 129 232 33 327 33 c 256
 462 33 536 245 536 410 c 256
 536 525 493 624 403 624 c 256
EndSplineSet
Validated: 1
PickledDataWithLists: "(dp1
S'com.fontlab.hintData'
p2
(dp3
S'vhints'
p4
(lp5
(dp6
S'position'
p7
I50
sS'width'
p8
I144
sa(dp9
g7
I536
sg8
I144
sasS'hhints'
p10
(lp11
(dp12
g7
I-140
sg8
I67
sa(dp13
g7
I624
sg8
I43
sass."
EndChar

StartChar: R
Encoding: 50 82 50
GlifName: R_
Width: 645
VWidth: 0
GlyphClass: 2
Flags: W
HStem: -4 37 299 39<255 261 248 298> 620 40<369.5 399>
LayerCount: 2
Fore
SplineSet
253 657 m 256
 292 657 342 660 397 660 c 256
 513 660 585 582 561 458 c 256
 544 371 435 325 396 316 c 257
 445 218 450 200 495 130 c 256
 550 44 621 28 636 28 c 257
 639 21 635 -2 634 -4 c 257
 607 -6 613 -8 575 -8 c 256
 422 -8 387 65 370 99 c 258
 275 284 l 256
 275 284 268 299 261 299 c 258
 248 299 l 257
 218 145 l 258
 210 102 203 71 207 51 c 256
 209 38 251 34 263 33 c 257
 266 26 261 2 256 -4 c 257
 221 0 163 3 124 3 c 256
 85 3 28 0 -9 -4 c 257
 -12 2 -7 26 -1 33 c 257
 11 34 55 38 62 51 c 256
 73 71 79 102 87 145 c 258
 159 513 l 258
 167 556 174 587 170 607 c 256
 168 620 125 622 113 623 c 257
 110 630 116 654 121 660 c 257
 162 657 214 657 253 657 c 256
255 338 m 257
 298 338 l 258
 351 338 400 372 421 448 c 256
 441 520 437 620 361 620 c 256
 340 620 319 619 312 608 c 256
 305 596 302 576 296 547 c 258
 255 338 l 257
EndSplineSet
Validated: 33
PickledDataWithLists: "(dp1
S'com.fontlab.hintData'
p2
(dp3
S'hhints'
p4
(lp5
(dp6
S'position'
p7
I-4
sS'width'
p8
I37
sa(dp9
g7
I299
sg8
I39
sa(dp10
g7
I620
sg8
I40
sass."
EndChar

StartChar: S
Encoding: 51 83 51
GlifName: S_
Width: 494
VWidth: 0
GlyphClass: 2
Flags: W
HStem: -10 42<166.5 216.5 151 245> 628 42<310 359.5 284 364>
VStem: 33 40 423 38<477 477>
LayerCount: 2
Fore
SplineSet
332 670 m 256
 387 670 429 655 483 642 c 257
 477 589 470 537 461 476 c 257
 457 472 453 470 449 470 c 256
 446 470 423 469 423 477 c 256
 426 533 400 628 328 628 c 256
 292 628 245 608 232 541 c 256
 220 479 287 422 336 381 c 256
 389 337 456 294 433 175 c 256
 412 65 296 -10 194 -10 c 256
 139 -10 75 2 22 16 c 257
 21 60 29 158 33 186 c 257
 38 192 58 200 63 200 c 256
 70 200 73 198 73 192 c 256
 71 138 109 32 193 32 c 256
 240 32 288 58 302 129 c 256
 316 200 236 258 196 292 c 256
 138 341 79 385 99 489 c 256
 119 592 236 670 332 670 c 256
EndSplineSet
Validated: 33
PickledDataWithLists: "(dp1
S'com.fontlab.hintData'
p2
(dp3
S'vhints'
p4
(lp5
(dp6
S'position'
p7
I33
sS'width'
p8
I40
sa(dp9
g7
I423
sg8
I38
sasS'hhints'
p10
(lp11
(dp12
g7
I-10
sg8
I42
sa(dp13
g7
I628
sg8
I42
sass."
EndChar

StartChar: T
Encoding: 52 84 52
GlifName: T_
Width: 596
VWidth: 0
GlyphClass: 2
Flags: W
HStem: -4 37 613 44<189.5 364 219 300 430 517 430 430>
VStem: 592 36<485 489>
LayerCount: 2
Fore
SplineSet
364 657 m 256
 528 657 l 258
 595 657 611 676 628 676 c 256
 635 676 636 675 639 673 c 257
 628 489 l 257
 625 486 608 482 600 482 c 256
 595 482 592 483 592 487 c 256
 595 552 564 613 517 613 c 258
 430 613 l 257
 339 145 l 258
 331 102 324 71 328 51 c 256
 330 38 372 34 384 33 c 257
 387 26 382 2 377 -4 c 257
 342 0 285 3 246 3 c 256
 207 3 150 0 113 -4 c 257
 110 2 114 26 120 33 c 257
 132 34 176 38 183 51 c 256
 194 71 201 102 209 145 c 258
 300 613 l 257
 213 613 l 258
 166 613 111 552 89 487 c 256
 87 483 84 482 79 482 c 256
 71 482 56 486 54 489 c 257
 114 673 l 257
 118 675 119 676 126 676 c 256
 143 676 152 657 219 657 c 258
 364 657 l 256
EndSplineSet
Validated: 33
PickledDataWithLists: "(dp1
S'com.fontlab.hintData'
p2
(dp3
S'vhints'
p4
(lp5
(dp6
S'position'
p7
I592
sS'width'
p8
I36
sasS'hhints'
p9
(lp10
(dp11
g7
I-4
sg8
I37
sa(dp12
g7
I613
sg8
I44
sass."
EndChar

StartChar: U
Encoding: 53 85 53
GlifName: U_
Width: 692
VWidth: 0
GlyphClass: 2
Flags: W
HStem: -9 72<330 354> 625 37
LayerCount: 2
Fore
SplineSet
234 655 m 256
 273 655 329 658 366 662 c 257
 369 656 365 632 359 625 c 257
 347 624 303 620 296 607 c 256
 285 587 278 556 270 513 c 258
 235 330 l 258
 222 262 214 212 225 159 c 256
 243 71 312 63 348 63 c 256
 422 63 512 134 546 309 c 258
 579 479 l 258
 587 522 594 581 590 601 c 256
 586 620 537 624 525 625 c 257
 522 632 527 656 532 662 c 257
 575 658 604 655 647 655 c 256
 688 655 718 660 757 662 c 257
 760 656 756 632 750 625 c 257
 738 624 686 622 674 601 c 256
 663 581 645 523 637 480 c 258
 599 286 l 258
 559 82 421 -9 287 -9 c 256
 209 -9 141 19 108 79 c 256
 81 128 79 197 99 301 c 258
 140 513 l 258
 148 556 155 587 151 607 c 256
 149 620 107 624 95 625 c 257
 92 632 97 656 102 662 c 257
 137 658 195 655 234 655 c 256
EndSplineSet
Validated: 33
PickledDataWithLists: "(dp1
S'com.fontlab.hintData'
p2
(dp3
S'hhints'
p4
(lp5
(dp6
S'position'
p7
I-9
sS'width'
p8
I72
sa(dp9
g7
I625
sg8
I37
sass."
EndChar

StartChar: V
Encoding: 54 86 54
GlifName: V_
Width: 627
VWidth: 0
GlyphClass: 2
Flags: W
HStem: -11 21<242 251.5> 625 37
LayerCount: 2
Fore
SplineSet
197 655 m 256
 236 655 293 658 330 662 c 257
 333 656 328 632 322 625 c 257
 310 624 265 623 260 598 c 256
 257 582 262 551 268 523 c 256
 296 390 341 186 341 186 c 257
 341 186 514 493 529 521 c 256
 542 547 561 580 565 601 c 256
 568 619 507 624 495 625 c 257
 492 632 498 656 503 662 c 257
 546 658 569 655 612 655 c 256
 653 655 678 660 717 662 c 257
 720 656 716 632 710 625 c 257
 698 624 656 623 642 607 c 256
 624 587 606 557 587 524 c 256
 472 323 407 215 299 30 c 256
 288 12 257 -11 246 -11 c 256
 238 -11 239 -4 236 3 c 257
 132 510 l 258
 126 539 119 572 115 592 c 256
 109 618 70 624 58 625 c 257
 55 632 61 656 66 662 c 257
 101 658 158 655 197 655 c 256
EndSplineSet
Validated: 33
PickledDataWithLists: "(dp1
S'com.fontlab.hintData'
p2
(dp3
S'hhints'
p4
(lp5
(dp6
S'position'
p7
I-11
sS'width'
p8
I21
sa(dp9
g7
I625
sg8
I37
sass."
EndChar

StartChar: W
Encoding: 55 87 55
GlifName: W_
Width: 877
VWidth: 0
GlyphClass: 2
Flags: W
HStem: -11 21<213 222.5 535 544.5> 625 37
LayerCount: 2
Fore
SplineSet
199 655 m 256
 238 655 294 658 331 662 c 257
 334 656 330 632 324 625 c 257
 312 624 264 620 264 586 c 256
 264 581 266 552 270 523 c 256
 287 401 308 251 308 251 c 257
 308 251 469 560 504 625 c 256
 514 644 530 662 540 662 c 256
 544 662 546 657 548 646 c 256
 577 478 623 214 623 214 c 257
 623 214 758 489 774 521 c 256
 786 547 804 580 808 601 c 256
 811 619 752 624 740 625 c 257
 737 632 743 656 748 662 c 257
 791 658 814 655 857 655 c 256
 898 655 924 660 963 662 c 257
 966 656 961 632 955 625 c 257
 943 624 901 623 887 607 c 256
 869 587 849 559 832 524 c 256
 738 335 681 225 586 40 c 256
 573 15 550 -11 539 -11 c 256
 531 -11 527 -4 524 3 c 257
 451 418 l 257
 451 418 334 188 260 44 c 256
 254 33 228 -11 217 -11 c 256
 209 -11 205 -4 202 3 c 257
 133 510 l 258
 130 540 128 549 122 590 c 256
 118 616 72 624 60 625 c 257
 56 632 62 656 67 662 c 257
 102 658 160 655 199 655 c 256
EndSplineSet
Validated: 33
PickledDataWithLists: "(dp1
S'com.fontlab.hintData'
p2
(dp3
S'hhints'
p4
(lp5
(dp6
S'position'
p7
I-11
sS'width'
p8
I21
sa(dp9
g7
I625
sg8
I37
sass."
EndChar

StartChar: X
Encoding: 56 88 56
GlifName: X_
Width: 659
VWidth: 0
GlyphClass: 2
Flags: W
HStem: -4 37 625 37
LayerCount: 2
Fore
SplineSet
239 656 m 256
 285 656 336 660 374 662 c 257
 375 656 370 625 365 625 c 257
 352 625 316 619 312 604 c 256
 311 598 312 588 315 582 c 258
 386 414 l 257
 438 471 520 551 540 584 c 256
 543 588 544 591 544 594 c 256
 547 611 514 625 482 625 c 257
 477 625 482 657 488 662 c 257
 520 658 576 655 610 655 c 256
 658 655 695 658 723 662 c 257
 725 656 720 625 715 625 c 257
 708 625 651 623 601 572 c 258
 402 369 l 257
 455 242 521 93 532 76 c 256
 552 41 603 33 616 33 c 257
 618 24 615 4 609 -4 c 257
 572 -2 499 2 461 2 c 256
 409 2 365 -2 313 -4 c 257
 309 1 317 33 322 33 c 256
 332 33 377 43 380 61 c 256
 381 64 380 69 379 72 c 258
 294 273 l 257
 276 253 164 130 129 83 c 256
 123 75 119 69 118 66 c 256
 113 42 161 33 189 33 c 257
 192 26 190 7 185 -4 c 257
 155 -2 97 2 63 2 c 256
 15 2 -19 -2 -57 -4 c 257
 -60 2 -56 26 -50 33 c 257
 -43 33 22 35 60 79 c 258
 273 322 l 257
 185 537 l 258
 174 564 160 600 149 610 c 256
 138 620 99 625 88 625 c 257
 83 625 89 657 95 662 c 257
 140 660 193 656 239 656 c 256
EndSplineSet
Validated: 33
PickledDataWithLists: "(dp1
S'com.fontlab.hintData'
p2
(dp3
S'hhints'
p4
(lp5
(dp6
S'position'
p7
I-4
sS'width'
p8
I37
sa(dp9
g7
I625
sg8
I37
sass."
EndChar

StartChar: Y
Encoding: 57 89 57
GlifName: Y_
Width: 576
VWidth: 0
GlyphClass: 2
Flags: W
HStem: -4 37 625 37
LayerCount: 2
Fore
SplineSet
191 145 m 258
 218 284 l 258
 219 291 218 296 216 304 c 256
 203 359 145 537 145 537 c 258
 136 565 134 572 127 592 c 256
 118 617 82 624 70 625 c 257
 67 632 72 656 77 662 c 257
 112 658 170 655 209 655 c 256
 248 655 304 658 341 662 c 257
 344 656 340 632 334 625 c 257
 322 624 277 623 272 598 c 256
 271 594 274 589 276 582 c 258
 344 361 l 257
 348 356 448 498 504 578 c 256
 509 586 512 594 513 601 c 256
 516 619 461 624 449 625 c 257
 446 632 451 656 456 662 c 257
 499 658 516 655 559 655 c 256
 600 655 626 660 665 662 c 257
 668 656 664 632 658 625 c 257
 646 624 602 623 584 600 c 256
 560 571 394 357 356 298 c 256
 351 291 348 285 347 279 c 258
 321 145 l 258
 312 102 306 71 310 51 c 256
 312 38 354 34 366 33 c 257
 369 26 364 2 359 -4 c 257
 324 0 266 3 227 3 c 256
 188 3 132 0 95 -4 c 257
 92 2 96 26 102 33 c 257
 114 34 158 38 165 51 c 256
 176 71 182 102 191 145 c 258
EndSplineSet
Validated: 33
PickledDataWithLists: "(dp1
S'com.fontlab.hintData'
p2
(dp3
S'hhints'
p4
(lp5
(dp6
S'position'
p7
I-4
sS'width'
p8
I37
sa(dp9
g7
I625
sg8
I37
sass."
EndChar

StartChar: Z
Encoding: 58 90 58
GlifName: Z_
Width: 608
VWidth: 0
GlyphClass: 2
Flags: W
HStem: 1 46 610 45<275.5 282 275.5 291 275.5 462> 642 20
LayerCount: 2
Fore
SplineSet
291 610 m 258
 192 610 163 536 130 474 c 256
 128 471 126 468 117 468 c 256
 107 468 93 470 91 473 c 257
 113 531 139 598 161 662 c 257
 175 658 269 655 282 655 c 258
 412 656 l 258
 490 657 551 660 630 666 c 257
 634 665 635 643 633 633 c 257
 630 625 157 47 157 47 c 257
 358 47 l 258
 393 47 427 59 453 82 c 256
 477 103 494 125 519 170 c 256
 521 174 526 176 533 176 c 256
 542 176 558 173 560 170 c 257
 535 117 494 44 477 1 c 257
 438 1 -1 0 -1 0 c 257
 -13 0 -25 18 -21 22 c 258
 462 610 l 257
 291 610 l 258
EndSplineSet
Validated: 8388641
PickledDataWithLists: "(dp1
S'com.fontlab.hintData'
p2
(dp3
S'hhints'
p4
(lp5
(dp6
S'position'
p7
I1
sS'width'
p8
I46
sa(dp9
g7
I610
sg8
I45
sa(dp10
g7
I642
sg8
I20
sass."
EndChar

StartChar: bracketleft
Encoding: 59 91 59
GlifName: bracketleft
Width: 263
VWidth: 0
GlyphClass: 2
Flags: W
HStem: 707 52<178 227>
LayerCount: 2
Fore
SplineSet
171 750 m 258
 173 755 176 759 180 759 c 256
 233 759 305 761 343 765 c 257
 346 762 348 759 348 753 c 256
 348 742 338 732 329 728 c 256
 297 714 246 709 227 707 c 256
 223 707 222 705 220 701 c 258
 70 -56 l 258
 69 -60 72 -62 76 -63 c 256
 95 -68 139 -76 169 -95 c 256
 177 -100 185 -108 185 -115 c 256
 185 -124 181 -130 177 -133 c 257
 108 -120 34 -108 10 -107 c 256
 6 -107 2 -102 3 -97 c 258
 171 750 l 258
EndSplineSet
Validated: 1
PickledDataWithLists: "(dp1
S'com.fontlab.hintData'
p2
(dp3
S'hhints'
p4
(lp5
(dp6
S'position'
p7
I707
sS'width'
p8
I52
sass."
EndChar

StartChar: backslash
Encoding: 60 92 60
GlifName: backslash
Width: 390
VWidth: 0
GlyphClass: 2
Flags: W
VStem: 123 180
LayerCount: 2
Fore
SplineSet
303 -4 m 258
 306 -20 282 -40 271 -40 c 256
 267 -40 263 -40 259 -37 c 257
 207 269 123 755 123 755 c 257
 125 758 131 762 137 762 c 256
 158 762 177 735 179 725 c 258
 303 -4 l 258
EndSplineSet
Validated: 33
PickledDataWithLists: "(dp1
S'com.fontlab.hintData'
p2
(dp3
S'vhints'
p4
(lp5
(dp6
S'position'
p7
I123
sS'width'
p8
I180
sass."
EndChar

StartChar: bracketright
Encoding: 61 93 61
GlifName: bracketright
Width: 260
VWidth: 0
GlyphClass: 2
Flags: W
HStem: -133 42 728 37
VStem: -60 337
LayerCount: 2
Fore
SplineSet
102 765 m 257
 137 762 210 756 267 756 c 256
 275 756 278 749 277 745 c 256
 276 738 112 -97 112 -97 c 258
 111 -98 108 -105 100 -106 c 256
 35 -112 -14 -121 -53 -133 c 257
 -55 -132 -60 -126 -60 -119 c 256
 -60 -107 -43 -96 -33 -91 c 256
 -9 -79 27 -64 54 -56 c 256
 60 -54 62 -52 63 -48 c 258
 210 697 l 258
 211 702 209 705 203 706 c 256
 179 709 134 716 108 728 c 257
 97 734 93 746 93 755 c 256
 93 763 101 765 102 765 c 257
EndSplineSet
Validated: 1
PickledDataWithLists: "(dp1
S'com.fontlab.hintData'
p2
(dp3
S'vhints'
p4
(lp5
(dp6
S'position'
p7
I-60
sS'width'
p8
I337
sasS'hhints'
p9
(lp10
(dp11
g7
I-133
sg8
I42
sa(dp12
g7
I728
sg8
I37
sass."
EndChar

StartChar: asciicircum
Encoding: 62 94 62
GlifName: asciicircum
Width: 323
VWidth: 0
GlyphClass: 2
Flags: W
HStem: 469 221<23 205.5 190.5 288.5>
VStem: 20 283<499 499>
LayerCount: 2
Fore
SplineSet
20 499 m 257
 28 513 113 567 182 677 c 256
 187 686 187 690 194 690 c 256
 217 690 204 668 244 588 c 256
 260 558 302 505 303 500 c 257
 302 496 292 469 285 469 c 256
 270 469 211 525 177 582 c 257
 125 525 41 469 26 469 c 256
 20 469 20 485 20 499 c 257
EndSplineSet
Validated: 1
PickledDataWithLists: "(dp1
S'com.fontlab.hintData'
p2
(dp3
S'vhints'
p4
(lp5
(dp6
S'position'
p7
I20
sS'width'
p8
I283
sasS'hhints'
p9
(lp10
(dp11
g7
I469
sg8
I221
sass."
EndChar

StartChar: underscore
Encoding: 63 95 63
GlifName: underscore
Width: 474
VWidth: 0
GlyphClass: 2
Flags: W
HStem: -45 62<-13 383 -31 405>
LayerCount: 2
Fore
SplineSet
-36 -35 m 257
 -36 -35 -27 17 -13 17 c 258
 405 17 l 258
 408 17 407 13 407 9 c 256
 407 3 404 -13 392 -39 c 256
 389 -45 383 -45 383 -45 c 257
 -31 -45 l 257
 -31 -45 -38 -45 -36 -35 c 257
EndSplineSet
Validated: 1
PickledDataWithLists: "(dp1
S'com.fontlab.hintData'
p2
(dp3
S'hhints'
p4
(lp5
(dp6
S'position'
p7
I-45
sS'width'
p8
I62
sass."
EndChar

StartChar: a
Encoding: 65 97 65
GlifName: a
Width: 489
VWidth: 0
GlyphClass: 2
Flags: W
HStem: -8 86<281.5 384> 394 55<254.5 269>
VStem: 11 126<128 204.5>
LayerCount: 2
Fore
SplineSet
318 449 m 256
 354 449 405 438 425 431 c 257
 363 132 l 258
 362 128 359 104 359 99 c 256
 359 90 363 78 373 78 c 256
 395 78 441 133 444 139 c 257
 451 139 458 118 458 112 c 257
 441 80 353 -8 299 -8 c 256
 264 -8 237 14 237 58 c 256
 237 62 238 70 239 77 c 256
 240 85 242 92 243 96 c 257
 222 59 157 -7 97 -7 c 256
 41 -7 11 47 11 115 c 256
 11 294 191 449 318 449 c 256
262 394 m 256
 194 394 137 270 137 152 c 256
 137 104 151 81 173 81 c 256
 207 81 257 182 277 281 c 258
 297 382 l 257
 290 390 276 394 262 394 c 256
EndSplineSet
Validated: 1
PickledDataWithLists: "(dp1
S'com.fontlab.hintData'
p2
(dp3
S'vhints'
p4
(lp5
(dp6
S'position'
p7
I11
sS'width'
p8
I126
sasS'hhints'
p9
(lp10
(dp11
g7
I-8
sg8
I86
sa(dp12
g7
I394
sg8
I55
sass."
EndChar

StartChar: b
Encoding: 66 98 66
GlifName: b
Width: 465
VWidth: 0
GlyphClass: 2
Flags: W
HStem: -6 45<165 208> 361 88<257.5 374> 632 29 676 20
VStem: 128 129<607.5 680> 308 129<254 314.5>
LayerCount: 2
Fore
SplineSet
280 361 m 256
 235 361 175 255 158 167 c 256
 147 111 147 39 183 39 c 256
 247 39 308 206 308 302 c 256
 308 327 304 361 280 361 c 256
190 336 m 257
 218 379 298 449 346 449 c 256
 402 449 437 410 437 337 c 256
 437 149 265 -6 151 -6 c 256
 88 -6 35 38 35 107 c 256
 35 120 38 148 41 162 c 258
 119 560 l 258
 123 578 128 602 128 613 c 256
 128 632 83 632 67 632 c 257
 64 636 67 657 71 661 c 257
 126 666 229 688 251 696 c 257
 256 693 257 683 257 677 c 256
 257 669 249 626 244 602 c 258
 190 336 l 257
EndSplineSet
Validated: 33
PickledDataWithLists: "(dp1
S'com.fontlab.hintData'
p2
(dp3
S'vhints'
p4
(lp5
(dp6
S'position'
p7
I128
sS'width'
p8
I129
sa(dp9
g7
I308
sg8
I129
sasS'hhints'
p10
(lp11
(dp12
g7
I-6
sg8
I45
sa(dp13
g7
I361
sg8
I88
sa(dp14
g7
I632
sg8
I29
sa(dp15
g7
I676
sg8
I20
sass."
EndChar

StartChar: c
Encoding: 67 99 67
GlifName: c
Width: 377
VWidth: 0
GlyphClass: 2
Flags: W
HStem: -6 83<105.5 225.5> 399 50<206 229>
VStem: 15 126<136 209>
LayerCount: 2
Fore
SplineSet
266 449 m 256
 306 449 341 437 354 427 c 257
 360 418 369 400 369 377 c 256
 369 347 343 316 313 316 c 256
 288 316 272 334 262 353 c 256
 253 370 240 399 218 399 c 256
 181 399 141 275 141 170 c 256
 141 102 163 77 203 77 c 256
 248 77 300 137 303 140 c 257
 311 140 316 120 316 114 c 257
 301 91 211 -6 135 -6 c 256
 76 -6 15 37 15 131 c 256
 15 287 146 449 266 449 c 256
EndSplineSet
Validated: 1
PickledDataWithLists: "(dp1
S'com.fontlab.hintData'
p2
(dp3
S'vhints'
p4
(lp5
(dp6
S'position'
p7
I15
sS'width'
p8
I126
sasS'hhints'
p9
(lp10
(dp11
g7
I-6
sg8
I83
sa(dp12
g7
I399
sg8
I50
sass."
EndChar

StartChar: d
Encoding: 68 100 68
GlifName: d
Width: 487
VWidth: 0
GlyphClass: 2
Flags: W
HStem: -7 88<68 189> 394 55<227 310> 632 29 676 20
VStem: 10 126<128 198.5> 341 129<607.5 680>
LayerCount: 2
Fore
SplineSet
287 353 m 256
 287 383 278 394 261 394 c 256
 193 394 136 270 136 152 c 256
 136 104 150 81 172 81 c 256
 206 81 264 201 276 281 c 258
 276 281 287 340 287 353 c 256
332 560 m 258
 335 578 341 602 341 613 c 256
 341 632 296 632 280 632 c 257
 277 636 280 657 284 661 c 257
 339 666 442 688 464 696 c 257
 469 693 470 683 470 677 c 256
 470 669 462 626 457 602 c 258
 362 132 l 258
 361 128 358 104 358 99 c 256
 358 90 362 78 372 78 c 256
 394 78 440 133 443 139 c 257
 450 139 457 118 457 112 c 257
 440 80 352 -8 298 -8 c 256
 276 -8 259 0 248 16 c 256
 242 25 236 36 236 58 c 256
 236 66 240 88 242 96 c 257
 221 59 156 -7 96 -7 c 256
 40 -7 10 47 10 115 c 256
 10 282 169 429 293 448 c 256
 299 449 304 449 310 449 c 257
 332 560 l 258
EndSplineSet
Validated: 1
PickledDataWithLists: "(dp1
S'com.fontlab.hintData'
p2
(dp3
S'vhints'
p4
(lp5
(dp6
S'position'
p7
I10
sS'width'
p8
I126
sa(dp9
g7
I341
sg8
I129
sasS'hhints'
p10
(lp11
(dp12
g7
I-7
sg8
I88
sa(dp13
g7
I394
sg8
I55
sa(dp14
g7
I632
sg8
I29
sa(dp15
g7
I676
sg8
I20
sass."
EndChar

StartChar: e
Encoding: 69 101 69
GlifName: e
Width: 394
VWidth: 0
GlyphClass: 2
Flags: W
HStem: -6 83<95.5 223.5> 188 38<145 164.5 145 173> 412 37<210.5 245>
VStem: 16 124<144.5 165.5 144.5 214> 260 119<336 382>
LayerCount: 2
Fore
SplineSet
268 449 m 256
 319 449 379 427 379 357 c 256
 379 254 204 188 142 188 c 257
 141 185 140 168 140 163 c 256
 140 126 151 77 201 77 c 256
 246 77 299 139 302 142 c 257
 311 142 317 118 317 112 c 257
 304 90 194 -6 131 -6 c 256
 60 -6 16 47 16 140 c 256
 16 288 153 449 268 449 c 256
145 226 m 257
 184 226 260 299 260 373 c 256
 260 391 256 412 234 412 c 256
 186 412 150 277 145 226 c 257
EndSplineSet
Validated: 1
PickledDataWithLists: "(dp1
S'com.fontlab.hintData'
p2
(dp3
S'vhints'
p4
(lp5
(dp6
S'position'
p7
I16
sS'width'
p8
I124
sa(dp9
g7
I260
sg8
I119
sasS'hhints'
p10
(lp11
(dp12
g7
I-6
sg8
I83
sa(dp13
g7
I188
sg8
I38
sa(dp14
g7
I412
sg8
I37
sass."
EndChar

StartChar: f
Encoding: 70 102 70
GlifName: f
Width: 318
VWidth: 0
GlyphClass: 2
Flags: W
HStem: -218 46<-33 -18> 378 46<88 107 231 325> 649 46<309.5 318>
LayerCount: 2
Fore
SplineSet
343 695 m 256
 377 695 406 685 417 677 c 257
 422 669 426 657 426 644 c 256
 426 619 411 595 388 595 c 256
 371 595 357 604 346 619 c 256
 337 632 327 649 309 649 c 256
 278 649 262 583 231 424 c 257
 331 424 l 258
 335 424 336 417 336 412 c 256
 336 402 330 386 325 378 c 257
 222 378 l 257
 222 378 191 184 167 58 c 256
 135 -106 22 -218 -58 -218 c 256
 -92 -218 -121 -208 -132 -200 c 257
 -137 -192 -141 -180 -141 -167 c 256
 -141 -142 -126 -118 -103 -118 c 256
 -86 -118 -72 -127 -61 -142 c 256
 -52 -155 -42 -172 -24 -172 c 256
 15 -172 20 -105 51 54 c 257
 107 378 l 257
 42 378 l 258
 41 378 40 379 40 381 c 256
 40 391 65 424 88 424 c 258
 115 424 l 257
 147 588 276 695 343 695 c 256
EndSplineSet
Validated: 1
PickledDataWithLists: "(dp1
S'com.fontlab.hintData'
p2
(dp3
S'hhints'
p4
(lp5
(dp6
S'position'
p7
I-218
sS'width'
p8
I46
sa(dp9
g7
I378
sg8
I46
sa(dp10
g7
I649
sg8
I46
sass."
EndChar

StartChar: g
Encoding: 71 103 71
GlifName: g
Width: 444
VWidth: 0
GlyphClass: 2
Flags: W
HStem: -226 48<142 191.5 142 194> 394 55 419 39
VStem: -57 116<-116.5 -74.5> 19 169<46.5 115.5> 41 114<277 277> 274 104<-135 10> 280 112
LayerCount: 2
Fore
SplineSet
274 -113 m 256
 274 -72 174 -32 115 -14 c 257
 79 -33 59 -53 59 -84 c 256
 59 -149 112 -178 172 -178 c 256
 211 -178 274 -157 274 -113 c 256
235 419 m 256
 186 421 158 344 155 277 c 256
 153 230 162 180 199 178 c 256
 243 176 278 242 280 302 c 256
 282 349 274 417 235 419 c 256
364 394 m 257
 368 388 392 360 392 309 c 256
 392 215 302 159 254 140 c 256
 226 129 188 126 188 105 c 256
 188 75 378 60 378 -40 c 256
 378 -135 267 -226 121 -226 c 256
 11 -226 -57 -174 -57 -110 c 256
 -57 -39 31 -13 79 4 c 257
 79 4 41 21 34 28 c 256
 26 36 19 37 19 56 c 256
 19 81 116 133 164 144 c 257
 102 160 41 198 41 277 c 256
 41 376 125 458 223 458 c 257
 262 458 293 445 318 434 c 256
 327 430 391 447 404 449 c 257
 417 445 455 424 455 412 c 256
 455 405 447 394 439 394 c 256
 425 394 377 394 364 394 c 257
EndSplineSet
Validated: 8388641
PickledDataWithLists: "(dp1
S'com.fontlab.hintData'
p2
(dp3
S'vhints'
p4
(lp5
(dp6
S'position'
p7
I-57
sS'width'
p8
I116
sa(dp9
g7
I19
sg8
I169
sa(dp10
g7
I41
sg8
I114
sa(dp11
g7
I274
sg8
I104
sa(dp12
g7
I280
sg8
I112
sasS'hhints'
p13
(lp14
(dp15
g7
I-226
sg8
I48
sa(dp16
g7
I394
sg8
I55
sa(dp17
g7
I419
sg8
I39
sass."
EndChar

StartChar: h
Encoding: 72 104 72
GlifName: h
Width: 504
VWidth: 0
GlyphClass: 2
Flags: W
HStem: -8 86<303.5 405> 339 110<270.5 379> 632 29 676 20
VStem: 131 129<607.5 680> 257 123<37.5 101.5> 301 122<313 390.5>
LayerCount: 2
Fore
SplineSet
247 602 m 258
 247 602 192 323 190 314 c 256
 187 302 184 284 182 274 c 257
 212 342 301 449 351 449 c 256
 407 449 423 419 423 362 c 256
 423 328 408 259 403 233 c 258
 384 132 l 258
 383 128 380 104 380 99 c 256
 380 90 384 78 394 78 c 256
 416 78 462 133 465 139 c 257
 472 139 479 118 479 112 c 257
 462 80 374 -8 320 -8 c 256
 287 -8 257 12 257 63 c 256
 257 77 264 115 266 123 c 257
 289 242 l 258
 292 254 301 308 301 318 c 256
 301 328 296 339 285 339 c 256
 256 339 178 218 150 91 c 258
 130 0 l 257
 120 -3 85 -6 74 -6 c 256
 63 -6 27 -3 15 0 c 257
 21 31 121 554 122 560 c 256
 126 579 131 602 131 613 c 256
 131 632 86 632 70 632 c 257
 67 636 70 657 74 661 c 257
 129 666 232 688 254 696 c 257
 259 693 260 683 260 677 c 256
 260 669 250 616 247 602 c 258
EndSplineSet
Validated: 8388609
PickledDataWithLists: "(dp1
S'com.fontlab.hintData'
p2
(dp3
S'vhints'
p4
(lp5
(dp6
S'position'
p7
I131
sS'width'
p8
I129
sa(dp9
g7
I257
sg8
I123
sa(dp10
g7
I301
sg8
I122
sasS'hhints'
p11
(lp12
(dp13
g7
I-8
sg8
I86
sa(dp14
g7
I339
sg8
I110
sa(dp15
g7
I632
sg8
I29
sa(dp16
g7
I676
sg8
I20
sass."
EndChar

StartChar: i
Encoding: 73 105 73
GlifName: i
Width: 310
VWidth: 0
GlyphClass: 2
Flags: W
HStem: -8 86<106.5 208> 363 86<85 186> 540 147<192 214>
VStem: 60 123<37.5 101.5> 111 122<339.5 401> 135 136<603 625>
LayerCount: 2
Fore
SplineSet
106 309 m 258
 107 313 111 337 111 342 c 256
 111 351 106 363 96 363 c 256
 74 363 28 308 25 302 c 257
 18 302 11 323 11 329 c 257
 28 361 112 449 166 449 c 256
 206 449 233 424 233 378 c 256
 233 364 226 328 224 318 c 258
 187 132 l 258
 186 128 183 104 183 99 c 256
 183 90 187 78 197 78 c 256
 219 78 265 133 268 139 c 257
 275 139 282 118 282 112 c 257
 265 80 177 -8 123 -8 c 256
 90 -8 60 12 60 63 c 256
 60 77 67 115 69 123 c 257
 106 309 l 258
213 687 m 256
 247 687 271 660 271 625 c 256
 271 581 235 540 193 540 c 256
 159 540 135 568 135 603 c 256
 135 647 171 687 213 687 c 256
EndSplineSet
Validated: 8388609
PickledDataWithLists: "(dp1
S'com.fontlab.hintData'
p2
(dp3
S'vhints'
p4
(lp5
(dp6
S'position'
p7
I60
sS'width'
p8
I123
sa(dp9
g7
I111
sg8
I122
sa(dp10
g7
I135
sg8
I136
sasS'hhints'
p11
(lp12
(dp13
g7
I-8
sg8
I86
sa(dp14
g7
I363
sg8
I86
sa(dp15
g7
I540
sg8
I147
sass."
Substitution2: "ccmpGlyphCompositionDecompositioninLatinlookup0 subtable" i.TRK
EndChar

StartChar: j
Encoding: 74 106 74
GlifName: j
Width: 286
VWidth: 0
GlyphClass: 2
Flags: W
HStem: -218 22 363 86<95 196> 541 148<215 237>
VStem: 121 122<339.5 401> 158 136<604 626>
LayerCount: 2
Fore
SplineSet
116 309 m 258
 117 313 121 337 121 342 c 256
 121 351 116 363 106 363 c 256
 84 363 38 308 35 302 c 257
 28 302 21 323 21 329 c 257
 38 361 122 449 176 449 c 256
 216 449 243 424 243 378 c 256
 243 364 236 328 234 318 c 258
 234 318 211 195 196 120 c 256
 180 36 150 -20 109 -75 c 256
 66 -132 -51 -210 -79 -218 c 257
 -84 -218 -88 -205 -88 -196 c 257
 17 -115 47 -49 76 100 c 258
 116 309 l 258
236 689 m 256
 270 689 294 661 294 626 c 256
 294 582 258 541 216 541 c 256
 182 541 158 569 158 604 c 256
 158 648 194 689 236 689 c 256
EndSplineSet
Validated: 8388609
PickledDataWithLists: "(dp1
S'com.fontlab.hintData'
p2
(dp3
S'vhints'
p4
(lp5
(dp6
S'position'
p7
I121
sS'width'
p8
I122
sa(dp9
g7
I158
sg8
I136
sasS'hhints'
p10
(lp11
(dp12
g7
I-218
sg8
I22
sa(dp13
g7
I363
sg8
I86
sa(dp14
g7
I541
sg8
I148
sass."
EndChar

StartChar: k
Encoding: 75 107 75
GlifName: k
Width: 503
VWidth: 0
GlyphClass: 2
Flags: W
HStem: -4 86<282.5 402> 374 75<271.5 405> 632 29 676 20
VStem: 131 129<607.5 680> 329 129<344 347>
LayerCount: 2
Fore
SplineSet
376 449 m 256
 434 449 458 423 458 377 c 256
 458 311 361 255 286 230 c 257
 303 182 347 82 390 82 c 256
 414 82 450 127 458 138 c 257
 468 138 472 117 472 112 c 257
 462 85 381 -4 321 -4 c 256
 244 -4 192 137 171 208 c 257
 156 133 130 0 130 0 c 257
 120 -3 85 -6 74 -6 c 256
 63 -6 27 -3 15 0 c 257
 21 31 121 554 122 560 c 256
 126 579 131 602 131 613 c 256
 131 632 86 632 70 632 c 257
 67 636 70 657 74 661 c 257
 129 666 232 688 254 696 c 257
 259 693 260 683 260 677 c 256
 260 669 250 616 247 602 c 258
 198 341 l 257
 210 367 292 449 376 449 c 256
301 374 m 256
 242 374 179 272 179 248 c 257
 241 248 329 288 329 342 c 256
 329 352 324 374 301 374 c 256
EndSplineSet
Validated: 1
PickledDataWithLists: "(dp1
S'com.fontlab.hintData'
p2
(dp3
S'vhints'
p4
(lp5
(dp6
S'position'
p7
I131
sS'width'
p8
I129
sa(dp9
g7
I329
sg8
I129
sasS'hhints'
p10
(lp11
(dp12
g7
I-4
sg8
I86
sa(dp13
g7
I374
sg8
I75
sa(dp14
g7
I632
sg8
I29
sa(dp15
g7
I676
sg8
I20
sass."
EndChar

StartChar: l
Encoding: 76 108 76
GlifName: l
Width: 283
VWidth: 0
GlyphClass: 2
Flags: W
HStem: -8 86<77.5 179> 632 29 676 20
VStem: 31 123<37.5 101.5> 134 129<607.5 680>
LayerCount: 2
Fore
SplineSet
125 560 m 258
 128 578 134 602 134 613 c 256
 134 632 89 632 73 632 c 257
 70 636 73 657 77 661 c 257
 132 666 235 688 257 696 c 257
 262 693 263 683 263 677 c 256
 263 669 255 626 250 602 c 258
 158 132 l 258
 157 126 154 104 154 99 c 256
 154 90 158 78 168 78 c 256
 190 78 236 133 239 139 c 257
 246 139 253 118 253 112 c 257
 236 80 148 -8 94 -8 c 256
 61 -8 31 12 31 63 c 256
 31 77 38 115 40 123 c 257
 125 560 l 258
EndSplineSet
Validated: 8388609
PickledDataWithLists: "(dp1
S'com.fontlab.hintData'
p2
(dp3
S'vhints'
p4
(lp5
(dp6
S'position'
p7
I31
sS'width'
p8
I123
sa(dp9
g7
I134
sg8
I129
sasS'hhints'
p10
(lp11
(dp12
g7
I-8
sg8
I86
sa(dp13
g7
I632
sg8
I29
sa(dp14
g7
I676
sg8
I20
sass."
EndChar

StartChar: m
Encoding: 77 109 77
GlifName: m
Width: 755
VWidth: 0
GlyphClass: 2
Flags: W
HStem: -8 86<554.5 656> 429 20<139 186 358 411 582.5 633>
VStem: 111 122<339.5 401> 333 122<313 390.5> 508 123<37.5 101.5> 555 122<313 390.5>
LayerCount: 2
Fore
SplineSet
517 123 m 256
 527 168 543 242 543 242 c 258
 546 254 555 308 555 318 c 256
 555 328 550 339 539 339 c 256
 510 339 432 218 404 91 c 257
 384 0 l 257
 374 -3 339 -6 328 -6 c 256
 317 -6 281 -3 269 0 c 257
 321 242 l 258
 324 254 333 308 333 318 c 256
 333 328 328 339 317 339 c 256
 288 339 210 218 182 91 c 258
 162 0 l 257
 152 -3 117 -6 106 -6 c 256
 95 -6 59 -3 47 0 c 257
 106 309 l 258
 107 313 111 337 111 342 c 256
 111 351 106 363 96 363 c 256
 74 363 28 308 25 302 c 257
 18 302 11 323 11 329 c 257
 28 361 112 449 166 449 c 256
 206 449 233 424 233 378 c 256
 233 364 226 328 224 318 c 256
 222 306 214 274 214 274 c 257
 244 342 333 449 383 449 c 256
 439 449 455 419 455 362 c 256
 455 346 452 321 448 297 c 257
 485 364 560 449 605 449 c 256
 661 449 677 419 677 362 c 256
 677 325 662 260 657 233 c 256
 652 208 640 160 635 132 c 256
 633 122 631 104 631 99 c 256
 631 90 635 78 645 78 c 256
 667 78 713 133 716 139 c 257
 723 139 730 118 730 112 c 257
 713 80 625 -8 571 -8 c 256
 538 -8 508 12 508 63 c 256
 508 77 515 115 517 123 c 256
EndSplineSet
Validated: 8388609
PickledDataWithLists: "(dp1
S'com.fontlab.hintData'
p2
(dp3
S'vhints'
p4
(lp5
(dp6
S'position'
p7
I111
sS'width'
p8
I122
sa(dp9
g7
I333
sg8
I122
sa(dp10
g7
I508
sg8
I123
sa(dp11
g7
I555
sg8
I122
sasS'hhints'
p12
(lp13
(dp14
g7
I-8
sg8
I86
sa(dp15
g7
I429
sg8
I20
sass."
EndChar

StartChar: n
Encoding: 78 110 78
GlifName: n
Width: 536
VWidth: 0
GlyphClass: 2
Flags: W
HStem: -8 86<335.5 437> 339 110 363 86<85 186>
VStem: 111 122<339.5 401> 289 123<37.5 101.5> 333 122<313 390.5>
LayerCount: 2
Fore
SplineSet
224 318 m 256
 222 306 214 273 214 274 c 257
 244 342 333 449 383 449 c 256
 439 449 455 419 455 362 c 256
 455 328 440 259 435 233 c 258
 416 132 l 258
 415 128 412 104 412 99 c 256
 412 90 416 78 426 78 c 256
 448 78 494 133 497 139 c 257
 504 139 511 118 511 112 c 257
 494 80 406 -8 352 -8 c 256
 319 -8 289 12 289 63 c 256
 289 77 296 115 298 123 c 257
 321 242 l 258
 324 254 333 308 333 318 c 256
 333 328 328 339 317 339 c 256
 288 339 210 218 182 91 c 258
 162 0 l 257
 152 -3 117 -6 106 -6 c 256
 95 -6 59 -3 47 0 c 257
 106 309 l 258
 107 313 111 337 111 342 c 256
 111 351 106 363 96 363 c 256
 74 363 28 308 25 302 c 257
 18 302 11 323 11 329 c 257
 28 361 112 449 166 449 c 256
 206 449 233 424 233 378 c 256
 233 364 226 328 224 318 c 256
EndSplineSet
Validated: 8388645
PickledDataWithLists: "(dp1
S'com.fontlab.hintData'
p2
(dp3
S'vhints'
p4
(lp5
(dp6
S'position'
p7
I111
sS'width'
p8
I122
sa(dp9
g7
I289
sg8
I123
sa(dp10
g7
I333
sg8
I122
sasS'hhints'
p11
(lp12
(dp13
g7
I-8
sg8
I86
sa(dp14
g7
I339
sg8
I110
sa(dp15
g7
I363
sg8
I86
sass."
EndChar

StartChar: o
Encoding: 79 111 79
GlifName: o
Width: 455
VWidth: 0
GlyphClass: 2
Flags: W
HStem: -6 40<157 211.5 157 218> 409 40<224.5 279>
VStem: 15 125<113 180 113 214> 296 125<260.5 328.5>
LayerCount: 2
Fore
SplineSet
262 409 m 256
 187 409 140 235 140 125 c 256
 140 101 140 34 174 34 c 256
 249 34 296 209 296 312 c 256
 296 345 296 409 262 409 c 256
273 449 m 256
 356 449 421 416 421 297 c 256
 421 153 278 -6 158 -6 c 256
 75 -6 15 46 15 142 c 256
 15 286 153 449 273 449 c 256
EndSplineSet
Validated: 1
PickledDataWithLists: "(dp1
S'com.fontlab.hintData'
p2
(dp3
S'vhints'
p4
(lp5
(dp6
S'position'
p7
I15
sS'width'
p8
I125
sa(dp9
g7
I296
sg8
I125
sasS'hhints'
p10
(lp11
(dp12
g7
I-6
sg8
I40
sa(dp13
g7
I409
sg8
I40
sass."
EndChar

StartChar: p
Encoding: 80 112 80
GlifName: p
Width: 496
VWidth: 0
GlyphClass: 2
Flags: W
HStem: -219 32 -210 30 -5 44<194 240> 365 84
VStem: 340 129<257 315.5>
LayerCount: 2
Fore
SplineSet
301 365 m 256
 271 365 241 345 219 323 c 257
 214 296 184 149 184 149 c 258
 169 72 181 39 207 39 c 256
 278 39 340 215 340 299 c 256
 340 332 333 365 301 365 c 256
371 449 m 256
 435 449 469 398 469 328 c 256
 469 160 301 -5 179 -5 c 256
 173 -5 161 -4 152 0 c 257
 126 -126 l 258
 124 -135 123 -144 123 -154 c 256
 123 -159 127 -174 137 -177 c 256
 154 -181 181 -180 184 -180 c 256
 188 -181 185 -209 180 -211 c 257
 167 -211 156 -210 145 -210 c 256
 94 -210 6 -212 -52 -219 c 257
 -57 -218 -55 -190 -50 -187 c 257
 -32 -187 -19 -182 -10 -171 c 256
 -3 -162 1 -151 6 -128 c 258
 81 232 l 257
 33 184 l 257
 29 189 26 204 26 211 c 256
 26 222 35 234 41 239 c 258
 92 287 l 257
 122 444 l 257
 133 447 172 449 183 449 c 256
 194 449 231 446 241 441 c 257
 238 423 229 382 227 373 c 257
 255 404 320 449 371 449 c 256
EndSplineSet
Validated: 8388641
PickledDataWithLists: "(dp1
S'com.fontlab.hintData'
p2
(dp3
S'vhints'
p4
(lp5
(dp6
S'position'
p7
I340
sS'width'
p8
I129
sasS'hhints'
p9
(lp10
(dp11
g7
I-219
sg8
I32
sa(dp12
g7
I-210
sg8
I30
sa(dp13
g7
I-5
sg8
I44
sa(dp14
g7
I365
sg8
I84
sass."
EndChar

StartChar: q
Encoding: 81 113 81
GlifName: q
Width: 454
VWidth: 0
GlyphClass: 2
Flags: W
HStem: -220 21 -210 22 -7 88<65.5 188.5> 394 55<247.5 275.5>
VStem: 11 126<129.5 195>
LayerCount: 2
Fore
SplineSet
357 -211 m 257
 343 -211 289 -210 276 -210 c 256
 218 -210 161 -216 124 -220 c 257
 122 -218 122 -188 128 -188 c 256
 157 -185 185 -172 190 -146 c 258
 234 84 l 257
 212 49 153 -7 95 -7 c 256
 36 -7 11 56 11 114 c 256
 11 276 173 449 322 449 c 256
 357 449 393 443 419 427 c 257
 364 139 l 258
 363 135 312 -133 312 -133 c 258
 311 -140 310 -148 310 -154 c 256
 310 -170 317 -181 361 -181 c 256
 365 -181 362 -208 357 -211 c 257
287 341 m 256
 290 358 289 394 262 394 c 256
 195 394 137 272 137 157 c 256
 137 102 154 81 171 81 c 256
 206 81 259 186 276 275 c 256
 281 302 283 314 287 341 c 256
EndSplineSet
Validated: 8388641
PickledDataWithLists: "(dp1
S'com.fontlab.hintData'
p2
(dp3
S'vhints'
p4
(lp5
(dp6
S'position'
p7
I11
sS'width'
p8
I126
sasS'hhints'
p9
(lp10
(dp11
g7
I-220
sg8
I21
sa(dp12
g7
I-210
sg8
I22
sa(dp13
g7
I-7
sg8
I88
sa(dp14
g7
I394
sg8
I55
sass."
EndChar

StartChar: r
Encoding: 82 114 82
GlifName: r
Width: 432
VWidth: 0
GlyphClass: 2
Flags: W
HStem: -6 21<100.5 111.5> 346 103 363 86<85 186>
VStem: 111 122<339.5 401> 210 236<253.5 401.5>
LayerCount: 2
Fore
SplineSet
375 449 m 256
 404 449 413 445 430 436 c 257
 438 426 446 411 446 392 c 256
 446 344 415 320 388 320 c 256
 368 320 354 332 342 338 c 256
 332 343 331 346 315 346 c 256
 286 346 210 218 182 91 c 258
 162 0 l 257
 152 -3 117 -6 106 -6 c 256
 95 -6 59 -3 47 0 c 257
 106 309 l 258
 107 313 111 337 111 342 c 256
 111 351 106 363 96 363 c 256
 74 363 28 308 25 302 c 257
 18 302 11 323 11 329 c 257
 28 361 112 449 166 449 c 256
 206 449 233 424 233 378 c 256
 233 364 226 328 224 318 c 256
 222 306 210 253 210 254 c 257
 235 346 321 449 375 449 c 256
EndSplineSet
Validated: 8388645
PickledDataWithLists: "(dp1
S'com.fontlab.hintData'
p2
(dp3
S'vhints'
p4
(lp5
(dp6
S'position'
p7
I111
sS'width'
p8
I122
sa(dp9
g7
I210
sg8
I236
sasS'hhints'
p10
(lp11
(dp12
g7
I-6
sg8
I21
sa(dp13
g7
I346
sg8
I103
sa(dp14
g7
I363
sg8
I86
sass."
EndChar

StartChar: s
Encoding: 83 115 83
GlifName: s
Width: 366
VWidth: 0
GlyphClass: 2
Flags: W
HStem: -7 40<148.5 164.5> 410 39<175 198>
VStem: 54 92<345.5 350> 206 93<92.5 98>
LayerCount: 2
Fore
SplineSet
223 449 m 256
 276 449 311 435 333 418 c 257
 342 408 344 386 344 378 c 256
 344 356 326 327 294 327 c 256
 269 327 248 354 235 373 c 256
 222 393 210 410 186 410 c 256
 164 410 146 391 146 364 c 256
 146 327 206 287 243 251 c 256
 267 228 299 199 299 137 c 256
 299 48 213 -7 116 -7 c 256
 76 -7 33 7 11 24 c 257
 2 35 -1 51 -1 62 c 256
 -1 88 18 116 47 116 c 256
 72 116 88 98 107 71 c 256
 124 47 136 33 161 33 c 256
 183 33 206 58 206 76 c 256
 206 120 141 160 103 202 c 256
 78 230 54 250 54 310 c 256
 54 390 126 449 223 449 c 256
EndSplineSet
Validated: 1
PickledDataWithLists: "(dp1
S'com.fontlab.hintData'
p2
(dp3
S'vhints'
p4
(lp5
(dp6
S'position'
p7
I54
sS'width'
p8
I92
sa(dp9
g7
I206
sg8
I93
sasS'hhints'
p10
(lp11
(dp12
g7
I-7
sg8
I40
sa(dp13
g7
I410
sg8
I39
sass."
EndChar

StartChar: t
Encoding: 84 116 84
GlifName: t
Width: 328
VWidth: 0
GlyphClass: 2
Flags: W
HStem: -8 86<96.5 198> 378 46<81 109 234 316>
VStem: 50 123<37.5 101.5>
LayerCount: 2
Fore
SplineSet
118 424 m 257
 133 504 l 257
 144 518 235 570 243 570 c 256
 249 570 256 567 260 564 c 257
 234 424 l 257
 322 424 l 258
 326 424 326 417 326 412 c 256
 326 402 321 386 316 378 c 257
 225 378 l 257
 177 132 l 258
 176 126 173 104 173 99 c 256
 173 90 177 78 187 78 c 256
 209 78 255 133 258 139 c 257
 265 139 272 118 272 112 c 257
 255 80 167 -8 113 -8 c 256
 80 -8 50 12 50 63 c 256
 50 77 56 110 59 123 c 258
 109 378 l 257
 35 378 l 258
 34 378 33 379 33 381 c 256
 33 391 58 424 81 424 c 258
 118 424 l 257
EndSplineSet
Validated: 1
PickledDataWithLists: "(dp1
S'com.fontlab.hintData'
p2
(dp3
S'vhints'
p4
(lp5
(dp6
S'position'
p7
I50
sS'width'
p8
I123
sasS'hhints'
p9
(lp10
(dp11
g7
I-8
sg8
I86
sa(dp12
g7
I378
sg8
I46
sass."
EndChar

StartChar: u
Encoding: 85 117 85
GlifName: u
Width: 533
VWidth: 0
GlyphClass: 2
Flags: W
HStem: -8 110<100.5 215.5> -8 86<328.5 430> 363 86<81 182>
VStem: 63 122<47.5 128> 107 122<339.5 401> 282 123<37.5 101.5>
LayerCount: 2
Fore
SplineSet
289 113 m 256
 293 134 298 155 301 166 c 257
 263 85 169 -8 126 -8 c 256
 75 -8 63 17 63 78 c 256
 63 110 77 178 82 204 c 256
 90 245 96 268 102 309 c 256
 103 313 107 337 107 342 c 256
 107 351 102 363 92 363 c 256
 70 363 24 308 21 302 c 257
 14 302 7 323 7 329 c 257
 24 361 108 449 162 449 c 256
 202 449 229 424 229 378 c 256
 229 364 222 328 220 318 c 256
 218 306 197 199 197 199 c 258
 195 187 185 133 185 123 c 256
 185 113 190 102 201 102 c 256
 230 102 313 249 338 372 c 258
 352 441 l 257
 362 444 397 447 408 447 c 256
 419 447 455 444 467 441 c 257
 409 132 l 258
 408 127 405 104 405 99 c 256
 405 90 409 78 419 78 c 256
 441 78 487 133 490 139 c 257
 497 139 504 118 504 112 c 257
 487 80 399 -8 345 -8 c 256
 312 -8 282 12 282 63 c 256
 282 70 285 91 289 113 c 256
EndSplineSet
Validated: 8388609
PickledDataWithLists: "(dp1
S'com.fontlab.hintData'
p2
(dp3
S'vhints'
p4
(lp5
(dp6
S'position'
p7
I63
sS'width'
p8
I122
sa(dp9
g7
I107
sg8
I122
sa(dp10
g7
I282
sg8
I123
sasS'hhints'
p11
(lp12
(dp13
g7
I-8
sg8
I110
sa(dp14
g7
I-8
sg8
I86
sa(dp15
g7
I363
sg8
I86
sass."
EndChar

StartChar: v
Encoding: 86 118 86
GlifName: v
Width: 465
VWidth: 0
GlyphClass: 2
Flags: W
HStem: -5 21<129 160.5> 356 93<73.5 185.5>
VStem: 92 122<290 334 334 338.5> 348 102<296.5 319.5>
LayerCount: 2
Fore
SplineSet
236 112 m 257
 268 135 302 170 324 211 c 256
 346 253 348 286 348 307 c 256
 348 332 331 364 306 384 c 257
 306 421 348 449 372 449 c 256
 410 449 450 425 450 357 c 256
 450 230 192 -5 129 -5 c 257
 107 45 92 168 92 290 c 258
 92 334 l 258
 92 343 91 356 81 356 c 256
 66 356 26 308 23 302 c 257
 16 302 9 323 9 329 c 257
 27 362 110 449 164 449 c 256
 207 449 214 423 214 393 c 258
 214 393 214 373 214 361 c 258
 214 341 l 258
 214 231 228 122 236 112 c 257
EndSplineSet
Validated: 1
PickledDataWithLists: "(dp1
S'com.fontlab.hintData'
p2
(dp3
S'vhints'
p4
(lp5
(dp6
S'position'
p7
I92
sS'width'
p8
I122
sa(dp9
g7
I348
sg8
I102
sasS'hhints'
p10
(lp11
(dp12
g7
I-5
sg8
I21
sa(dp13
g7
I356
sg8
I93
sass."
EndChar

StartChar: w
Encoding: 87 119 87
GlifName: w
Width: 726
VWidth: 0
GlyphClass: 2
Flags: W
HStem: -5 22 356 93<72.5 184.5>
VStem: 91 122<290 334 334 338.5> 347 111 609 102<293.5 316.5>
LayerCount: 2
Fore
SplineSet
458 406 m 257
 458 354 464 287 471 230 c 256
 479 168 489 117 493 112 c 257
 519 126 559 161 585 206 c 256
 607 244 609 279 609 302 c 256
 609 331 592 364 567 384 c 257
 567 421 609 449 633 449 c 256
 671 449 711 425 711 357 c 256
 711 230 464 -4 390 -4 c 257
 376 15 366 58 358 102 c 256
 352 135 348 168 347 192 c 257
 315 125 202 24 130 -5 c 257
 108 45 91 168 91 290 c 258
 91 334 l 258
 91 343 90 356 80 356 c 256
 65 356 25 308 22 302 c 257
 15 302 8 323 8 329 c 257
 26 362 109 449 163 449 c 256
 206 449 213 423 213 393 c 258
 213 393 213 373 213 361 c 258
 213 341 l 258
 213 231 227 131 235 121 c 257
 260 138 291 180 310 218 c 256
 324 246 339 287 345 323 c 257
 353 357 436 406 458 406 c 257
EndSplineSet
Validated: 1
PickledDataWithLists: "(dp1
S'com.fontlab.hintData'
p2
(dp3
S'vhints'
p4
(lp5
(dp6
S'position'
p7
I91
sS'width'
p8
I122
sa(dp9
g7
I347
sg8
I111
sa(dp10
g7
I609
sg8
I102
sasS'hhints'
p11
(lp12
(dp13
g7
I-5
sg8
I22
sa(dp14
g7
I356
sg8
I93
sass."
EndChar

StartChar: x
Encoding: 88 120 88
GlifName: x
Width: 511
VWidth: 0
GlyphClass: 2
Flags: W
HStem: -8 86<273.5 377> -7 76<54 113> 356 93<113.5 218> 373 76
LayerCount: 2
Fore
SplineSet
204 449 m 256
 232 449 246 422 254 393 c 258
 281 297 l 257
 321 375 l 257
 346 421 377 449 417 449 c 256
 442 449 476 440 489 428 c 257
 494 419 501 396 501 380 c 256
 501 353 482 319 446 319 c 256
 422 319 408 337 401 348 c 256
 395 358 386 373 379 373 c 256
 368 373 359 360 347 340 c 258
 295 251 l 257
 335 118 l 258
 341 99 349 78 366 78 c 256
 388 78 434 133 437 139 c 257
 444 139 451 118 451 112 c 257
 434 80 345 -8 291 -8 c 256
 256 -8 241 24 229 58 c 256
 229 60 219 96 205 143 c 257
 166 67 l 257
 141 21 110 -7 70 -7 c 256
 38 -7 19 0 3 11 c 257
 -4 17 -12 37 -12 59 c 256
 -12 86 5 123 41 123 c 256
 65 123 79 105 86 94 c 256
 92 85 101 69 108 69 c 256
 118 69 128 75 144 104 c 258
 191 189 l 257
 154 315 l 258
 151 324 141 356 121 356 c 256
 106 356 66 308 63 302 c 257
 56 302 49 323 49 329 c 257
 67 362 150 449 204 449 c 256
EndSplineSet
Validated: 8388609
PickledDataWithLists: "(dp1
S'com.fontlab.hintData'
p2
(dp3
S'hhints'
p4
(lp5
(dp6
S'position'
p7
I-8
sS'width'
p8
I86
sa(dp9
g7
I-7
sg8
I76
sa(dp10
g7
I356
sg8
I93
sa(dp11
g7
I373
sg8
I76
sass."
EndChar

StartChar: y
Encoding: 89 121 89
GlifName: y
Width: 501
VWidth: 0
GlyphClass: 2
Flags: W
HStem: -218 80<34 56.5> 356 93<58.5 200.5>
VStem: 142 121<29.5 56.5 26 108> 369 102<249.5 323.5>
LayerCount: 2
Fore
SplineSet
129 449 m 256
 272 449 263 87 263 26 c 257
 299 70 369 195 369 304 c 256
 369 343 342 372 327 384 c 257
 327 418 365 449 394 449 c 256
 430 449 471 426 471 356 c 256
 471 122 124 -218 -11 -218 c 256
 -47 -218 -76 -199 -76 -156 c 256
 -76 -139 -61 -114 -46 -106 c 257
 -31 -115 15 -138 53 -138 c 256
 115 -138 131 -106 133 -100 c 256
 143 -69 142 8 142 51 c 256
 142 165 120 356 71 356 c 256
 46 356 16 305 13 302 c 257
 5 303 -2 326 -1 329 c 257
 10 348 82 449 129 449 c 256
EndSplineSet
Validated: 33
PickledDataWithLists: "(dp1
S'com.fontlab.hintData'
p2
(dp3
S'vhints'
p4
(lp5
(dp6
S'position'
p7
I142
sS'width'
p8
I121
sa(dp9
g7
I369
sg8
I102
sasS'hhints'
p10
(lp11
(dp12
g7
I-218
sg8
I80
sa(dp13
g7
I356
sg8
I93
sass."
EndChar

StartChar: z
Encoding: 90 122 90
GlifName: z
Width: 441
VWidth: 0
GlyphClass: 2
Flags: W
HStem: -3 98<232 329> 38 95<63.5 188> 314 95<235 359.5> 352 98<94 191>
LayerCount: 2
Fore
SplineSet
170 450 m 256
 212 450 238 440 265 428 c 256
 283 420 309 409 348 409 c 256
 371 409 402 434 418 449 c 257
 438 449 438 430 439 421 c 256
 439 407 135 129 132 125 c 257
 137 127 161 133 174 133 c 256
 202 133 229 128 249 118 c 256
 266 110 293 95 314 95 c 256
 344 95 364 136 371 145 c 257
 381 145 388 129 389 121 c 257
 370 82 306 -3 253 -3 c 256
 211 -3 185 7 158 19 c 256
 140 27 114 38 75 38 c 256
 52 38 21 13 5 -2 c 257
 -15 -2 -15 17 -16 26 c 257
 -16 42 289 318 291 322 c 257
 286 320 262 314 249 314 c 256
 221 314 194 319 174 329 c 256
 157 337 130 352 109 352 c 256
 79 352 59 311 52 302 c 257
 42 302 35 318 34 326 c 257
 53 365 117 450 170 450 c 256
EndSplineSet
Validated: 8388609
PickledDataWithLists: "(dp1
S'com.fontlab.hintData'
p2
(dp3
S'hhints'
p4
(lp5
(dp6
S'position'
p7
I-3
sS'width'
p8
I98
sa(dp9
g7
I38
sg8
I95
sa(dp10
g7
I314
sg8
I95
sa(dp11
g7
I352
sg8
I98
sass."
EndChar

StartChar: braceleft
Encoding: 91 123 91
GlifName: braceleft
Width: 248
VWidth: 0
GlyphClass: 2
Flags: W
HStem: -144 22 718 22
VStem: 23 279
LayerCount: 2
Fore
SplineSet
128 404 m 256
 133 432 127 455 124 481 c 256
 120 503 118 526 123 554 c 256
 142 654 250 730 295 740 c 257
 301 740 306 726 302 718 c 257
 273 704 216 657 205 599 c 256
 197 560 202 540 207 516 c 256
 211 495 216 471 208 432 c 256
 193 356 121 303 91 298 c 257
 119 293 171 240 156 164 c 256
 148 125 135 101 123 80 c 256
 109 56 96 36 88 -3 c 256
 77 -61 115 -108 138 -122 c 257
 139 -130 129 -144 123 -144 c 257
 82 -134 4 -58 23 42 c 256
 29 73 43 98 56 122 c 256
 69 145 82 166 87 192 c 256
 97 245 64 275 29 287 c 257
 28 289 27 294 28 298 c 256
 29 302 31 307 33 309 c 257
 73 321 118 351 128 404 c 256
EndSplineSet
Validated: 33
PickledDataWithLists: "(dp1
S'com.fontlab.hintData'
p2
(dp3
S'vhints'
p4
(lp5
(dp6
S'position'
p7
I23
sS'width'
p8
I279
sasS'hhints'
p9
(lp10
(dp11
g7
I-144
sg8
I22
sa(dp12
g7
I718
sg8
I22
sass."
EndChar

StartChar: bar
Encoding: 92 124 92
GlifName: bar
Width: 200
VWidth: 0
GlyphClass: 2
Flags: W
HStem: -125 10<2 17.5>
VStem: 172 47<757 757>
LayerCount: 2
Fore
SplineSet
172 757 m 257
 179 762 190 766 203 766 c 256
 211 766 220 763 219 756 c 258
 49 -116 l 257
 38 -124 21 -125 14 -125 c 256
 5 -125 1 -119 2 -115 c 258
 2 -115 102 418 172 757 c 257
EndSplineSet
Validated: 1
PickledDataWithLists: "(dp1
S'com.fontlab.hintData'
p2
(dp3
S'vhints'
p4
(lp5
(dp6
S'position'
p7
I172
sS'width'
p8
I47
sasS'hhints'
p9
(lp10
(dp11
g7
I-125
sg8
I10
sass."
EndChar

StartChar: braceright
Encoding: 93 125 93
GlifName: braceright
Width: 248
VWidth: 0
GlyphClass: 2
Flags: W
HStem: -144 22 718 22
VStem: -40 277
LayerCount: 2
Fore
SplineSet
137 740 m 257
 178 730 256 654 237 554 c 256
 231 525 219 501 206 478 c 256
 193 454 179 431 174 404 c 256
 164 351 197 321 232 309 c 257
 233 307 233 302 232 298 c 256
 231 294 230 289 228 287 c 257
 188 275 143 245 133 192 c 256
 128 166 132 144 136 121 c 256
 140 97 143 72 137 42 c 256
 118 -58 10 -134 -35 -144 c 257
 -41 -144 -44 -130 -40 -122 c 257
 -12 -108 44 -61 55 -3 c 256
 62 35 58 56 53 79 c 256
 49 100 44 124 52 164 c 256
 67 240 140 293 170 298 c 257
 142 303 89 356 104 432 c 256
 113 476 126 499 140 522 c 256
 153 544 165 564 172 599 c 256
 183 657 145 704 123 718 c 257
 122 726 131 740 137 740 c 257
EndSplineSet
Validated: 33
PickledDataWithLists: "(dp1
S'com.fontlab.hintData'
p2
(dp3
S'vhints'
p4
(lp5
(dp6
S'position'
p7
I-40
sS'width'
p8
I277
sasS'hhints'
p9
(lp10
(dp11
g7
I-144
sg8
I22
sa(dp12
g7
I718
sg8
I22
sass."
EndChar

StartChar: asciitilde
Encoding: 94 126 94
GlifName: asciitilde
Width: 538
VWidth: 0
GlyphClass: 2
Flags: W
HStem: 245 61<358.5 393> 298 61<167 197>
LayerCount: 2
Fore
SplineSet
193 359 m 256
 280 359 315 306 402 306 c 256
 438 306 464 327 495 350 c 257
 497 349 499 343 499 335 c 256
 499 289 422 245 364 245 c 256
 276 245 241 298 153 298 c 256
 117 298 91 277 60 254 c 257
 58 255 56 261 56 269 c 256
 56 318 141 359 193 359 c 256
EndSplineSet
Validated: 8388609
PickledDataWithLists: "(dp1
S'com.fontlab.hintData'
p2
(dp3
S'hhints'
p4
(lp5
(dp6
S'position'
p7
I245
sS'width'
p8
I61
sa(dp9
g7
I298
sg8
I61
sass."
EndChar

StartChar: exclamdown
Encoding: 96 161 96
GlifName: exclamdown
Width: 236
VWidth: 0
GlyphClass: 2
Flags: W
HStem: 293 150<134 142.5>
VStem: -28 121 67 140<358.5 376>
LayerCount: 2
Fore
SplineSet
22 -238 m 256
 -7 -238 -28 -219 -28 -187 c 256
 -28 -149 76 184 88 220 c 256
 92 232 99 242 104 242 c 256
 117 242 128 231 128 213 c 256
 128 181 98 -141 93 -170 c 256
 85 -213 51 -238 22 -238 c 256
67 351 m 256
 67 401 114 443 154 443 c 256
 186 443 207 417 207 383 c 256
 207 334 164 293 121 293 c 256
 90 293 67 317 67 351 c 256
EndSplineSet
Validated: 8388609
PickledDataWithLists: "(dp1
S'com.fontlab.hintData'
p2
(dp3
S'vhints'
p4
(lp5
(dp6
S'position'
p7
I-28
sS'width'
p8
I121
sa(dp9
g7
I67
sg8
I140
sasS'hhints'
p10
(lp11
(dp12
g7
I293
sg8
I150
sass."
EndChar

StartChar: cent
Encoding: 97 162 97
GlifName: cent
Width: 406
VWidth: 0
GlyphClass: 2
Flags: W
HStem: -6 83 399 50
VStem: 25 126
LayerCount: 2
Fore
SplineSet
281 474 m 257
 288 474 317 473 316 466 c 257
 140 -45 l 257
 132 -45 104 -43 105 -36 c 257
 281 474 l 257
EndSplineSet
Refer: 67 99 N 1 0 0 1 10 0 2
Validated: 37
PickledDataWithLists: "(dp1
S'com.fontlab.hintData'
p2
(dp3
S'vhints'
p4
(lp5
(dp6
S'position'
p7
I25
sS'width'
p8
I126
sasS'hhints'
p9
(lp10
(dp11
g7
I-6
sg8
I83
sa(dp12
g7
I399
sg8
I50
sass."
EndChar

StartChar: sterling
Encoding: 98 163 98
GlifName: sterling
Width: 475
VWidth: 0
GlyphClass: 2
Flags: W
HStem: -8 102<230.5 349.5> 307 42<84 121.757 84 123.482 57 121.757 230.782 230.782 230.782 360> 585 56<287.5 391.5>
VStem: 123 104
LayerCount: 2
Fore
SplineSet
227 270 m 256
 212 195 166 145 138 122 c 257
 157 132 181 137 202 137 c 256
 237 137 284 94 332 94 c 256
 367 94 387 126 397 141 c 256
 401 143 408 139 411 134 c 256
 415 128 413 121 412 115 c 256
 396 83 335 -8 262 -8 c 256
 199 -8 162 51 93 51 c 256
 76 51 29 10 10 -6 c 257
 3 -6 -2 12 0 21 c 256
 16 44 60 81 75 102 c 256
 96 139 110 183 120 232 c 256
 124.299 253.495 124.347 280.72 123.482 307 c 257
 57 307 l 257
 53 313 76 349 84 349 c 258
 121.757 349 l 257
 121.109 366.758 121.021 381.763 123 391 c 256
 159 567 288 641 375 641 c 256
 408 641 418 628 433 616 c 257
 443 595 424 535 385 535 c 256
 341 535 346 585 306 585 c 256
 269 585 245 528 233 459 c 256
 226.388 419.328 228.58 382.996 230.042 349 c 257
 378 349 l 257
 389 338 366 311 360 307 c 257
 230.782 307 l 257
 230.443 294.394 229.373 282.081 227 270 c 256
EndSplineSet
Validated: 524321
PickledDataWithLists: "(dp1
S'com.fontlab.hintData'
p2
(dp3
S'vhints'
p4
(lp5
(dp6
S'position'
p7
I123
sS'width'
p8
I104
sasS'hhints'
p9
(lp10
(dp11
g7
I-8
sg8
I102
sa(dp12
g7
I307
sg8
I42
sa(dp13
g7
I585
sg8
I56
sass."
EndChar

StartChar: currency
Encoding: 99 164 99
GlifName: currency
Width: 539
VWidth: 0
GlyphClass: 2
Flags: W
HStem: 120 35<231 258.5> 461 35<296.5 323>
LayerCount: 2
Fore
SplineSet
255 155 m 256
 301 155 341 219 356 294 c 256
 374 386 347 461 299 461 c 256
 253 461 210 394 195 319 c 256
 177 227 207 155 255 155 c 256
410 455 m 257
 475 510 l 258
 478 513 482 511 486 508 c 256
 495 501 504 482 505 466 c 257
 438 410 l 257
 449 380 452 344 445 307 c 256
 437 267 419 230 393 199 c 257
 432 141 l 258
 434 139 432 135 429 130 c 256
 421 119 401 105 384 100 c 257
 346 155 l 257
 314 133 277 120 240 120 c 256
 200 120 166 135 142 160 c 257
 83 110 l 258
 80 108 77 108 74 111 c 256
 65 118 55 137 54 154 c 257
 114 205 l 257
 102 235 99 270 106 307 c 256
 115 351 135 391 164 423 c 257
 126 479 l 258
 124 481 125 484 128 488 c 256
 136 499 157 515 175 520 c 257
 213 465 l 257
 244 485 279 496 314 496 c 256
 354 496 386 481 410 455 c 257
EndSplineSet
Validated: 33
PickledDataWithLists: "(dp1
S'com.fontlab.hintData'
p2
(dp3
S'hhints'
p4
(lp5
(dp6
S'position'
p7
I120
sS'width'
p8
I35
sa(dp9
g7
I461
sg8
I35
sass."
EndChar

StartChar: yen
Encoding: 100 165 100
GlifName: yen
Width: 631
VWidth: 0
GlyphClass: 2
Flags: W
HStem: -4 36 130 44<120.5 442 132 432> 219 44<137.5 459 149 449> 606 36
LayerCount: 2
Fore
SplineSet
139 219 m 258
 136 219 134 222 134 226 c 256
 134 237 139 252 149 263 c 257
 459 263 l 258
 461 263 462 260 462 256 c 256
 462 245 460 229 449 219 c 257
 139 219 l 258
122 130 m 258
 119 130 117 133 117 137 c 256
 117 148 122 163 132 174 c 257
 442 174 l 258
 444 174 445 171 445 167 c 256
 445 156 443 140 432 130 c 257
 122 130 l 258
212 141 m 258
 238 275 l 258
 239 282 238 287 236 295 c 256
 223 348 167 521 167 521 c 258
 158 548 157 555 150 574 c 256
 141 598 107 605 95 606 c 257
 92 613 96 636 101 642 c 257
 135 638 192 635 230 635 c 256
 268 635 322 638 358 642 c 257
 361 636 357 613 351 606 c 257
 339 605 296 604 291 580 c 256
 290 576 293 572 295 565 c 258
 360 350 l 257
 364 345 462 483 516 561 c 256
 521 569 523 576 524 583 c 256
 527 600 474 605 462 606 c 257
 459 613 464 636 469 642 c 257
 511 638 527 635 569 635 c 256
 609 635 634 640 672 642 c 257
 675 636 671 613 665 606 c 257
 653 605 610 604 593 582 c 256
 570 554 409 346 372 289 c 256
 367 282 364 277 363 271 c 258
 338 141 l 258
 329 99 324 68 328 49 c 256
 330 36 370 33 382 32 c 257
 385 25 380 2 375 -4 c 257
 341 0 285 3 247 3 c 256
 209 3 155 0 119 -4 c 257
 116 2 120 25 126 32 c 257
 138 33 180 36 187 49 c 256
 198 68 203 99 212 141 c 258
EndSplineSet
Validated: 37
PickledDataWithLists: "(dp1
S'com.fontlab.hintData'
p2
(dp3
S'hhints'
p4
(lp5
(dp6
S'position'
p7
I-4
sS'width'
p8
I36
sa(dp9
g7
I130
sg8
I44
sa(dp10
g7
I219
sg8
I44
sa(dp11
g7
I606
sg8
I36
sass."
EndChar

StartChar: brokenbar
Encoding: 101 166 101
GlifName: brokenbar
Width: 204
VWidth: 0
GlyphClass: 2
Flags: W
HStem: -125 10<3 18.5> 375 10<100 115.5>
VStem: 3 217
LayerCount: 2
Fore
SplineSet
173 757 m 257
 180 762 191 766 204 766 c 256
 212 766 221 763 220 756 c 258
 147 384 l 257
 136 376 119 375 112 375 c 256
 103 375 99 381 100 385 c 258
 100 385 108 417 173 757 c 257
76 257 m 257
 83 262 94 266 107 266 c 256
 115 266 124 263 123 256 c 258
 50 -116 l 257
 39 -124 22 -125 15 -125 c 256
 6 -125 2 -119 3 -115 c 258
 3 -115 11 -83 76 257 c 257
EndSplineSet
Validated: 1
PickledDataWithLists: "(dp1
S'com.fontlab.hintData'
p2
(dp3
S'vhints'
p4
(lp5
(dp6
S'position'
p7
I3
sS'width'
p8
I217
sasS'hhints'
p9
(lp10
(dp11
g7
I-125
sg8
I10
sa(dp12
g7
I375
sg8
I10
sass."
EndChar

StartChar: section
Encoding: 102 167 102
GlifName: section
Width: 438
VWidth: 0
GlyphClass: 2
Flags: HW
HStem: -92 50<61.5 150.5> 603 50<293.5 382.5>
LayerCount: 2
Fore
SplineSet
387 184 m 256
 371.560069855 105.084801482 317 25 245 -33 c 256
 198.034857462 -70.8330314891 140 -92 84 -92 c 256
 55 -92 34 -84 24 -78 c 257
 22 -71 22 -58 23 -52 c 256
 27 -30 42 -9 69 -9 c 256
 87 -9 97 -22 104 -31 c 256
 110 -39 122 -42 136 -42 c 256
 165 -42 210 -26 217 12 c 256
 226 58 165 134 130 177 c 256
 82 236 39 285 57 377 c 256
 72.4399301448 455.915198518 128 525 189 580 c 256
 246.360351562 631.71875 315 653 376 653 c 256
 389 653 408 646 420 640 c 257
 423 630 421 616 420 610 c 256
 416 588 403 570 376 570 c 256
 358 570 349 582 342 590 c 256
 335 598 322 603 308 603 c 256
 279 603 234 587 227 549 c 256
 218 503 279 427 314 384 c 256
 362 325 405 276 387 184 c 256
163.421875 496.084960938 m 257
 148.9765625 478.282226562 139.768527699 460.924237437 134 431 c 256
 118 348 161 291 202 241 c 256
 238 197 296.569483809 142.888652286 283 75 c 256
 282.276 71.3778 281.388671875 67.7412109375 280.346679688 64.0986328125 c 256
 294.4 81.9137 304.319563594 100.532736143 310 130 c 256
 326 213 282 270 242 320 c 256
 206 364 148 418 161 486 c 256
 161.641874842 489.357499172 162.479 492.716 163.421875 496.084960938 c 257
EndSplineSet
Validated: 524321
PickledDataWithLists: "(dp1
S'com.fontlab.hintData'
p2
(dp3
S'hhints'
p4
(lp5
(dp6
S'position'
p7
I-92
sS'width'
p8
I50
sa(dp9
g7
I603
sg8
I50
sass."
EndChar

StartChar: copyright
Encoding: 104 169 104
GlifName: copyright
Width: 616
VWidth: 0
GlyphClass: 2
Flags: W
HStem: 38 44<229.5 346.5 229.5 353> 163 25<288 318.5> 429 26<313 353.5 304.5 367> 538 46<285.5 402.5>
VStem: 405 20<376 377>
LayerCount: 2
Fore
SplineSet
341 455 m 256
 366 455 398 444 420 439 c 257
 420 434 426 382 425 377 c 256
 425 375 415 371 410 371 c 256
 408 371 407 370 405 372 c 257
 403 388 394 429 340 429 c 256
 286 429 258 368 251 310 c 256
 243 246 261 188 315 188 c 256
 338 188 355 195 366 205 c 256
 384 221 398 253 399 256 c 257
 405 256 414 255 416 252 c 257
 415 247 399 191 393 189 c 256
 368 180 336 163 301 163 c 256
 222 163 173 217 184 305 c 256
 195 394 268 455 341 455 c 256
104 310 m 256
 89 184 171 82 288 82 c 256
 405 82 513 184 528 310 c 256
 543 436 461 538 344 538 c 256
 227 538 119 436 104 310 c 256
350 584 m 256
 490 584 590 462 571 311 c 256
 552 160 423 38 283 38 c 256
 143 38 44 160 63 311 c 256
 82 462 210 584 350 584 c 256
EndSplineSet
Validated: 33
PickledDataWithLists: "(dp1
S'com.fontlab.hintData'
p2
(dp3
S'vhints'
p4
(lp5
(dp6
S'position'
p7
I405
sS'width'
p8
I20
sasS'hhints'
p9
(lp10
(dp11
g7
I38
sg8
I44
sa(dp12
g7
I163
sg8
I25
sa(dp13
g7
I429
sg8
I26
sa(dp14
g7
I538
sg8
I46
sass."
EndChar

StartChar: ordfeminine
Encoding: 105 170 105
GlifName: ordfeminine
Width: 399
VWidth: 0
GlyphClass: 2
Flags: W
HStem: 247 59<97.5 185.5> 510 44<234 242>
VStem: 55 92<338 389.5>
LayerCount: 2
Fore
SplineSet
266 246 m 256
 241 246 219 257 219 287 c 256
 219 290 220 296 221 301 c 256
 222 306 222 310 223 313 c 257
 208 288 162 247 118 247 c 256
 77 247 55 283 55 329 c 256
 55 450 188 554 280 554 c 256
 307 554 344 547 358 542 c 257
 314 349 l 258
 314 346 311 330 311 327 c 256
 311 321 314 313 322 313 c 256
 338 313 372 350 374 354 c 257
 379 351 384 336 382 327 c 257
 370 305 306 246 266 246 c 256
237 510 m 256
 187 510 147 434 147 354 c 256
 147 322 157 306 173 306 c 256
 198 306 234 374 249 441 c 258
 263 502 l 257
 258 507 247 510 237 510 c 256
EndSplineSet
Validated: 1
PickledDataWithLists: "(dp1
S'com.fontlab.hintData'
p2
(dp3
S'vhints'
p4
(lp5
(dp6
S'position'
p7
I55
sS'width'
p8
I92
sasS'hhints'
p9
(lp10
(dp11
g7
I247
sg8
I59
sa(dp12
g7
I510
sg8
I44
sass."
EndChar

StartChar: guillemotleft
Encoding: 106 171 106
GlifName: guillemotleft
Width: 478
VWidth: 0
GlyphClass: 2
Flags: W
LayerCount: 2
Fore
SplineSet
395 92 m 257
 389 82 373 74 367 73 c 257
 363 77 308 154 202 233 c 257
 199 237 198 243 199 248 c 256
 200 253 204 259 208 263 c 257
 345 342 430 419 435 423 c 257
 440 422 454 414 456 404 c 257
 451 398 342 284 301 248 c 257
 328 212 392 98 395 92 c 257
222 92 m 257
 216 82 199 74 193 73 c 257
 189 77 135 154 29 233 c 257
 26 237 24 243 25 248 c 256
 26 253 30 259 34 263 c 257
 171 342 256 419 261 423 c 257
 266 422 280 414 282 404 c 257
 277 398 168 284 127 248 c 257
 154 212 219 98 222 92 c 257
EndSplineSet
Validated: 1
EndChar

StartChar: logicalnot
Encoding: 107 172 107
GlifName: logicalnot
Width: 516
VWidth: 0
GlyphClass: 2
Flags: W
HStem: 318 51<63.5 464 74 396>
LayerCount: 2
Fore
SplineSet
74 369 m 257
 464 369 l 257
 455 322 420 144 420 144 c 258
 419 140 393 128 377 128 c 256
 367 128 360 132 361 136 c 258
 396 318 l 257
 65 318 l 258
 62 318 60 321 60 326 c 256
 60 339 63 356 74 369 c 257
EndSplineSet
Validated: 1
PickledDataWithLists: "(dp1
S'com.fontlab.hintData'
p2
(dp3
S'hhints'
p4
(lp5
(dp6
S'position'
p7
I318
sS'width'
p8
I51
sass."
EndChar

StartChar: registered
Encoding: 108 174 108
GlifName: registered
Width: 616
VWidth: 0
GlyphClass: 2
Flags: W
HStem: 89 44<239.5 356.5 239.5 362> 234 16 355 19<295 298 292 310> 482 19<331 340.5> 589 46<295.5 412.5>
LayerCount: 2
Fore
SplineSet
342 501 m 256
 388 501 424 475 418 427 c 256
 414 394 372 367 354 362 c 257
 376 323 402 288 402 288 c 258
 425 255 448 251 451 251 c 257
 452 248 449 235 449 234 c 257
 438 233 422 232 407 232 c 256
 378 232 364 245 350 268 c 258
 304 349 l 256
 304 349 301 355 298 355 c 258
 292 355 l 257
 285 295 l 258
 283 278 281 266 283 258 c 256
 284 253 302 250 307 250 c 257
 308 247 307 236 305 234 c 257
 290 236 267 237 251 237 c 256
 235 237 211 236 196 234 c 257
 194 236 196 247 198 250 c 257
 203 250 221 253 223 258 c 256
 227 266 228 278 230 295 c 258
 248 441 l 258
 250 458 252 470 250 478 c 256
 249 483 231 484 226 484 c 257
 225 487 227 499 229 501 c 257
 246 500 268 500 284 500 c 256
 300 500 320 501 342 501 c 256
328 482 m 256
 320 482 311 482 309 478 c 256
 307 473 305 465 304 453 c 258
 295 374 l 257
 310 374 l 258
 334 374 356 393 360 424 c 256
 364 456 353 482 328 482 c 256
354 589 m 256
 237 589 129 487 114 361 c 256
 99 235 181 133 298 133 c 256
 415 133 523 235 538 361 c 256
 553 487 471 589 354 589 c 256
359 635 m 256
 499 635 600 513 581 362 c 256
 562 211 432 89 292 89 c 256
 152 89 53 211 72 362 c 256
 91 513 219 635 359 635 c 256
EndSplineSet
Validated: 33
PickledDataWithLists: "(dp1
S'com.fontlab.hintData'
p2
(dp3
S'hhints'
p4
(lp5
(dp6
S'position'
p7
I89
sS'width'
p8
I44
sa(dp9
g7
I234
sg8
I16
sa(dp10
g7
I355
sg8
I19
sa(dp11
g7
I482
sg8
I19
sa(dp12
g7
I589
sg8
I46
sass."
EndChar

StartChar: degree
Encoding: 110 176 110
GlifName: degree
Width: 281
VWidth: 0
GlyphClass: 2
Flags: W
HStem: 425 46<161.5 194.5 161.5 197.5> 602 45<187.5 220.5>
VStem: 88 206<537 537>
LayerCount: 2
Fore
SplineSet
131 537 m 256
 124 501 145 471 178 471 c 256
 211 471 244 501 251 537 c 256
 258 573 237 602 204 602 c 256
 171 602 138 573 131 537 c 256
88 537 m 256
 100 598 155 647 212 647 c 256
 269 647 306 598 294 537 c 256
 282 476 226 425 169 425 c 256
 112 425 76 476 88 537 c 256
EndSplineSet
Validated: 33
PickledDataWithLists: "(dp1
S'com.fontlab.hintData'
p2
(dp3
S'vhints'
p4
(lp5
(dp6
S'position'
p7
I88
sS'width'
p8
I206
sasS'hhints'
p9
(lp10
(dp11
g7
I425
sg8
I46
sa(dp12
g7
I602
sg8
I45
sass."
EndChar

StartChar: plusminus
Encoding: 111 177 111
GlifName: plusminus
Width: 511
VWidth: 0
GlyphClass: 2
Flags: W
HStem: 11 51<12.5 415 24 405> 307 51<70.5 249 82 241 82 297 305 463>
LayerCount: 2
Fore
SplineSet
415 62 m 258
 417 62 418 59 418 54 c 256
 418 41 416 23 405 11 c 257
 14 11 l 258
 11 11 9 14 9 19 c 256
 9 32 14 49 24 62 c 257
 415 62 l 258
72 307 m 258
 69 307 67 310 67 315 c 256
 67 328 72 345 82 358 c 257
 249 358 l 257
 282 529 l 258
 284 542 327 545 331 545 c 256
 339 545 341 541 340 537 c 258
 305 358 l 257
 473 358 l 258
 475 358 476 355 476 350 c 256
 476 337 474 319 463 307 c 257
 297 307 l 257
 262 133 l 258
 260 123 235 117 219 117 c 256
 209 117 204 121 205 125 c 258
 241 307 l 257
 72 307 l 258
EndSplineSet
Validated: 1
PickledDataWithLists: "(dp1
S'com.fontlab.hintData'
p2
(dp3
S'hhints'
p4
(lp5
(dp6
S'position'
p7
I11
sS'width'
p8
I51
sa(dp9
g7
I307
sg8
I51
sass."
EndChar

StartChar: uni00B2
Encoding: 112 178 112
GlifName: uni00B_2
Width: 339
VWidth: 0
GlyphClass: 2
Flags: W
HStem: 254 76<145 237 237 252.5 145 257> 589 55<207.5 215>
VStem: 246 90<525.5 553>
LayerCount: 2
Fore
SplineSet
336 553 m 256
 336 498 278 438 236 403 c 256
 203 376 185 357 145 330 c 257
 237 330 l 258
 268 330 280 358 294 380 c 256
 296 383 299 385 303 385 c 256
 307 385 315 384 317 382 c 257
 305 353 263 265 257 254 c 257
 46 254 l 257
 44 257 42 265 42 268 c 257
 97 321 123 347 180 409 c 256
 221 454 246 498 246 537 c 256
 246 569 231 589 199 589 c 256
 158 589 130 552 124 547 c 257
 121 547 109 553 111 565 c 257
 126 588 175 644 240 644 c 256
 305 644 336 599 336 553 c 256
EndSplineSet
Validated: 1
PickledDataWithLists: "(dp1
S'com.fontlab.hintData'
p2
(dp3
S'vhints'
p4
(lp5
(dp6
S'position'
p7
I246
sS'width'
p8
I90
sasS'hhints'
p9
(lp10
(dp11
g7
I254
sg8
I76
sa(dp12
g7
I589
sg8
I55
sass."
EndChar

StartChar: uni00B3
Encoding: 113 179 113
GlifName: uni00B_3
Width: 338
VWidth: 0
GlyphClass: 2
Flags: W
HStem: 245 31<148.5 161.5> 443 24<148 148> 594 50<185 259.5>
VStem: 230 93<346 389> 247 80<539 562.5>
LayerCount: 2
Fore
SplineSet
243 644 m 256
 276 644 327 630 327 568 c 256
 327 510 260 481 239 477 c 257
 257 476 323 468 323 394 c 256
 323 294 198 245 125 245 c 256
 88 245 58 257 48 268 c 257
 45 275 43 288 45 298 c 256
 48 315 63 338 86 338 c 256
 104 338 113 322 121 303 c 256
 128 285 141 276 156 276 c 256
 191 276 230 320 230 372 c 256
 230 406 217 446 179 446 c 256
 175 446 158 446 148 443 c 257
 147 446 146 449 146 454 c 256
 146 458 147 465 148 467 c 257
 178 471 247 490 247 552 c 256
 247 573 236 594 202 594 c 256
 168 594 134 553 129 548 c 257
 125 549 112 559 116 569 c 257
 149 613 198 644 243 644 c 256
EndSplineSet
Validated: 8388609
PickledDataWithLists: "(dp1
S'com.fontlab.hintData'
p2
(dp3
S'vhints'
p4
(lp5
(dp6
S'position'
p7
I230
sS'width'
p8
I93
sa(dp9
g7
I247
sg8
I80
sasS'hhints'
p10
(lp11
(dp12
g7
I245
sg8
I31
sa(dp13
g7
I443
sg8
I24
sa(dp14
g7
I594
sg8
I50
sass."
EndChar

StartChar: acute
Encoding: 114 180 114
GlifName: acute
Width: 202
VWidth: 0
GlyphClass: 2
Flags: HW
HStem: 490 148
VStem: -57.632 172
LayerCount: 2
Fore
SplineSet
291.020507812 653.98828125 m 256
 291.020507812 612.750976562 180.336914062 522 171.631835938 522 c 256
 164.581054688 522 152.610351562 535.759765625 152.610351562 540.259765625 c 256
 152.610351562 547.512695312 186.99609375 635.6015625 212.631835938 678 c 256
 216.631835938 683 241.632 687 241.631835938 687 c 256
 285.916 687 291.020507812 667.193359375 291.020507812 653.98828125 c 256
EndSplineSet
Validated: 524289
PickledDataWithLists: "(dp1
S'com.fontlab.hintData'
p2
(dp3
S'vhints'
p4
(lp5
(dp6
S'position'
p7
I20
sS'width'
p8
I172
sasS'hhints'
p9
(lp10
(dp11
g7
I490
sg8
I148
sass."
EndChar

StartChar: mu
Encoding: 115 181 115
GlifName: mu
Width: 529
VWidth: 0
GlyphClass: 2
Flags: W
HStem: -9 99<177.5 199.5> -4 82<377 384.5>
LayerCount: 2
Fore
SplineSet
172 446 m 256
 181 446 225 422 222 409 c 256
 220 399 213 355 179 266 c 256
 177 260 165 223 165 223 c 256
 150 144 162 90 193 90 c 256
 244 90 271 145 289 204 c 257
 291 212 337 433 337 433 c 257
 352 443 372 447 383 446 c 256
 424 443 446 422 443 409 c 256
 440 391 425 335 391 246 c 256
 389 240 382 223 382 223 c 257
 365 141 357 78 397 78 c 256
 419 78 449 100 457 109 c 257
 460 109 463 101 465 96 c 256
 466 92 465 79 464 76 c 256
 444 32 402 -4 367 -4 c 256
 325 -3 307 64 312 128 c 257
 272 58 230 -9 169 -9 c 256
 133 -9 131 42 127 76 c 257
 124 51 66 -123 109 -191 c 257
 103 -199 71 -227 55 -227 c 256
 9 -227 1 -166 1 -127 c 256
 1 -90 52 100 83 204 c 257
 88 228 94 275 98 298 c 256
 101 311 116 390 123 426 c 257
 129 434 161 446 172 446 c 256
EndSplineSet
Validated: 8388641
PickledDataWithLists: "(dp1
S'com.fontlab.hintData'
p2
(dp3
S'hhints'
p4
(lp5
(dp6
S'position'
p7
I-9
sS'width'
p8
I99
sa(dp9
g7
I-4
sg8
I82
sass."
EndChar

StartChar: paragraph
Encoding: 116 182 116
GlifName: paragraph
Width: 560
VWidth: 0
GlyphClass: 2
Flags: W
HStem: -82 46<240 255> 622 37<271.5 385>
VStem: 68 203<424.5 506 424.5 512>
LayerCount: 2
Fore
SplineSet
314 659 m 256
 369 659 429 655 465 655 c 256
 504 655 560 658 597 662 c 257
 600 656 596 632 590 625 c 257
 578 624 534 620 527 607 c 256
 516 587 509 556 501 513 c 258
 440 194 l 258
 408 30 295 -82 215 -82 c 256
 181 -82 152 -72 141 -64 c 257
 136 -56 132 -44 132 -31 c 256
 132 -6 147 18 170 18 c 256
 187 18 201 9 212 -6 c 256
 221 -19 231 -36 249 -36 c 256
 288 -36 293 31 324 190 c 257
 390 537 l 258
 396 567 402 600 400 612 c 256
 398 621 389 622 381 622 c 256
 337 622 271 554 271 458 c 256
 271 391 286 346 332 324 c 257
 334 323 336 318 336 316 c 256
 336 292 276 273 245 273 c 256
 123 273 68 369 68 440 c 256
 68 584 229 659 314 659 c 256
EndSplineSet
Validated: 33
PickledDataWithLists: "(dp1
S'com.fontlab.hintData'
p2
(dp3
S'vhints'
p4
(lp5
(dp6
S'position'
p7
I68
sS'width'
p8
I203
sasS'hhints'
p9
(lp10
(dp11
g7
I-82
sg8
I46
sa(dp12
g7
I622
sg8
I37
sass."
EndChar

StartChar: periodcentered
Encoding: 117 183 117
GlifName: periodcentered
Width: 237
VWidth: 0
GlyphClass: 2
Flags: W
HStem: 188 150<111 125>
VStem: 47 140<258 273.5>
LayerCount: 2
Fore
SplineSet
47 250 m 256
 47 297 90 338 132 338 c 256
 164 338 187 313 187 280 c 256
 187 236 146 188 104 188 c 256
 70 188 47 216 47 250 c 256
EndSplineSet
Validated: 1
PickledDataWithLists: "(dp1
S'com.fontlab.hintData'
p2
(dp3
S'vhints'
p4
(lp5
(dp6
S'position'
p7
I47
sS'width'
p8
I140
sasS'hhints'
p9
(lp10
(dp11
g7
I188
sg8
I150
sass."
EndChar

StartChar: uni00B9
Encoding: 119 185 119
GlifName: uni00B_9
Width: 282
VWidth: 0
GlyphClass: 2
Flags: W
HStem: 252 26 621 20<259 260 260 262>
VStem: 54 217
LayerCount: 2
Fore
SplineSet
158 511 m 258
 163 538 160 558 149 558 c 256
 141 558 115 547 104 542 c 257
 100 543 96 554 98 562 c 256
 98 563 99 568 100 569 c 257
 172 599 257 641 259 641 c 258
 260 641 l 258
 264 641 271 624 271 621 c 257
 266 610 252 575 244 536 c 258
 207 346 l 258
 204 328 200 298 205 291 c 256
 211 282 242 278 247 278 c 257
 249 278 243 253 242 252 c 257
 220 253 171 256 149 256 c 256
 127 256 77 253 54 252 c 257
 52 255 56 278 59 278 c 257
 66 278 98 284 106 292 c 256
 112 298 124 336 126 347 c 258
 158 511 l 258
EndSplineSet
Validated: 33
PickledDataWithLists: "(dp1
S'com.fontlab.hintData'
p2
(dp3
S'vhints'
p4
(lp5
(dp6
S'position'
p7
I54
sS'width'
p8
I217
sasS'hhints'
p9
(lp10
(dp11
g7
I252
sg8
I26
sa(dp12
g7
I621
sg8
I20
sass."
EndChar

StartChar: ordmasculine
Encoding: 120 186 120
GlifName: ordmasculine
Width: 358
VWidth: 0
GlyphClass: 2
Flags: W
HStem: 251 30<162.5 201 162.5 205.5> 523 29<210 247>
VStem: 57 92<330 374.5 330 396.5> 261 92<428 473>
LayerCount: 2
Fore
SplineSet
237 523 m 256
 183 523 149 411 149 338 c 256
 149 322 151 281 174 281 c 256
 228 281 261 394 261 462 c 256
 261 484 257 523 237 523 c 256
245 552 m 256
 305 552 353 531 353 452 c 256
 353 357 249 251 162 251 c 256
 102 251 57 285 57 349 c 256
 57 444 158 552 245 552 c 256
EndSplineSet
Validated: 1
PickledDataWithLists: "(dp1
S'com.fontlab.hintData'
p2
(dp3
S'vhints'
p4
(lp5
(dp6
S'position'
p7
I57
sS'width'
p8
I92
sa(dp9
g7
I261
sg8
I92
sasS'hhints'
p10
(lp11
(dp12
g7
I251
sg8
I30
sa(dp13
g7
I523
sg8
I29
sass."
EndChar

StartChar: guillemotright
Encoding: 121 187 121
GlifName: guillemotright
Width: 478
VWidth: 0
GlyphClass: 2
Flags: W
LayerCount: 2
Fore
SplineSet
75 404 m 257
 81 414 98 422 104 423 c 257
 108 419 162 342 268 263 c 257
 271 259 272 253 271 248 c 256
 270 243 266 237 262 233 c 257
 125 154 41 77 36 73 c 257
 31 74 16 82 14 92 c 257
 19 98 128 212 169 248 c 257
 142 284 78 398 75 404 c 257
249 404 m 257
 255 414 271 422 277 423 c 257
 281 419 336 342 442 263 c 257
 445 259 446 253 445 248 c 256
 444 243 440 237 436 233 c 257
 299 154 214 77 209 73 c 257
 204 74 190 82 188 92 c 257
 193 98 302 212 343 248 c 257
 316 284 252 398 249 404 c 257
EndSplineSet
Validated: 1
EndChar

StartChar: onequarter
Encoding: 122 188 122
GlifName: onequarter
Width: 705
VWidth: 0
GlyphClass: 2
Flags: W
HStem: -1 21<526 544> 110 42<423 517 606 633> 254 23
LayerCount: 2
Fore
SplineSet
638 400 m 256
 644 400 652 389 651 384 c 258
 606 152 l 257
 639 152 l 258
 643 152 644 147 644 142 c 256
 644 131 637 116 633 110 c 257
 597 110 l 257
 577 3 l 257
 577 3 555 -1 533 -1 c 256
 519 -1 495 1 496 5 c 258
 517 110 l 257
 362 110 l 257
 358 112 356 121 357 125 c 257
 620 390 l 258
 626 396 634 400 638 400 c 256
548 282 m 257
 423 152 l 257
 524 152 l 257
 548 282 l 257
98 542 m 257
 94 544 91 557 91 561 c 256
 91 562 92 564 94 566 c 257
 156 598 228 630 260 646 c 257
 262 646 l 258
 265 646 268 632 267 624 c 257
 267 624 250 590 237 522 c 258
 204 343 l 258
 200 323 198 298 198 295 c 256
 198 278 244 277 248 277 c 256
 250 277 248 265 247 261 c 256
 246 258 246 255 245 254 c 257
 223 255 168 258 146 258 c 256
 124 258 76 255 53 254 c 257
 51 257 55 277 58 277 c 256
 65 277 98 281 104 291 c 256
 108 298 111 312 113 324 c 258
 149 508 l 258
 156 544 161 563 149 563 c 256
 145 563 109 547 98 542 c 257
633 633 m 258
 182 -8 l 257
 182 -8 155 -7 155 4 c 256
 155 6 156 8 157 10 c 258
 609 651 l 257
 609 651 634 649 634 638 c 256
 634 636 634 634 633 633 c 258
EndSplineSet
Validated: 33
PickledDataWithLists: "(dp1
S'com.fontlab.hintData'
p2
(dp3
S'hhints'
p4
(lp5
(dp6
S'position'
p7
I-1
sS'width'
p8
I21
sa(dp9
g7
I110
sg8
I42
sa(dp10
g7
I254
sg8
I23
sass."
EndChar

StartChar: onehalf
Encoding: 123 189 123
GlifName: onehalf
Width: 747
VWidth: 0
GlyphClass: 2
Flags: W
HStem: -2 76<512 604 604 619.5 512 624> 254 23 333 55<574.5 582>
VStem: 613 90<269.5 297>
LayerCount: 2
Fore
SplineSet
703 297 m 256
 703 242 645 182 603 147 c 256
 570 120 552 101 512 74 c 257
 604 74 l 258
 635 74 647 102 661 124 c 256
 663 127 666 129 670 129 c 256
 674 129 682 128 684 126 c 257
 672 97 630 9 624 -2 c 257
 413 -2 l 257
 411 1 409 9 409 12 c 257
 464 65 490 91 547 153 c 256
 588 198 613 242 613 281 c 256
 613 313 598 333 566 333 c 256
 525 333 497 296 491 291 c 257
 488 291 476 297 478 309 c 257
 493 332 542 388 607 388 c 256
 672 388 703 343 703 297 c 256
98 542 m 257
 94 544 91 557 91 561 c 256
 91 562 92 564 94 566 c 257
 156 598 228 630 260 646 c 257
 262 646 l 258
 265 646 268 632 267 624 c 257
 267 624 250 590 237 522 c 258
 204 343 l 258
 200 323 198 298 198 295 c 256
 198 278 244 277 248 277 c 256
 250 277 248 265 247 261 c 256
 246 258 246 255 245 254 c 257
 223 255 168 258 146 258 c 256
 124 258 76 255 53 254 c 257
 51 257 55 277 58 277 c 256
 65 277 98 281 104 291 c 256
 108 298 111 312 113 324 c 258
 149 508 l 258
 156 544 161 563 149 563 c 256
 145 563 109 547 98 542 c 257
633 633 m 258
 182 -8 l 257
 182 -8 155 -7 155 4 c 256
 155 6 156 8 157 10 c 258
 609 651 l 257
 609 651 634 649 634 638 c 256
 634 636 634 634 633 633 c 258
EndSplineSet
Validated: 33
PickledDataWithLists: "(dp1
S'com.fontlab.hintData'
p2
(dp3
S'vhints'
p4
(lp5
(dp6
S'position'
p7
I613
sS'width'
p8
I90
sasS'hhints'
p9
(lp10
(dp11
g7
I-2
sg8
I76
sa(dp12
g7
I254
sg8
I23
sa(dp13
g7
I333
sg8
I55
sass."
EndChar

StartChar: threequarters
Encoding: 124 190 124
GlifName: threequarters
Width: 712
VWidth: 0
GlyphClass: 2
Flags: W
HStem: -1 21<534 552> 110 42<431 525 614 641> 245 31<143.5 156.5> 443 24<143 143> 594 50<180 254.5>
VStem: 225 93<346 389> 242 80<539 562.5>
LayerCount: 2
Fore
SplineSet
646 400 m 256
 652 400 660 389 659 384 c 258
 614 152 l 257
 647 152 l 258
 651 152 652 147 652 142 c 256
 652 131 645 116 641 110 c 257
 606 110 l 257
 585 3 l 257
 585 3 563 -1 541 -1 c 256
 527 -1 504 1 505 5 c 258
 525 110 l 257
 370 110 l 257
 366 112 364 121 365 125 c 257
 628 390 l 258
 634 396 642 400 646 400 c 256
556 282 m 257
 431 152 l 257
 532 152 l 257
 556 282 l 257
238 644 m 256
 271 644 322 630 322 568 c 256
 322 510 255 481 234 477 c 257
 252 476 318 468 318 394 c 256
 318 294 193 245 120 245 c 256
 83 245 53 257 43 268 c 257
 40 275 38 288 40 298 c 256
 43 315 58 338 81 338 c 256
 99 338 108 322 116 303 c 256
 123 285 136 276 151 276 c 256
 186 276 225 320 225 372 c 256
 225 406 212 446 174 446 c 256
 170 446 153 446 143 443 c 257
 142 446 141 449 141 454 c 256
 141 458 142 465 143 467 c 257
 173 471 242 490 242 552 c 256
 242 573 231 594 197 594 c 256
 163 594 129 553 124 548 c 257
 120 549 107 559 111 569 c 257
 144 613 193 644 238 644 c 256
637 633 m 258
 186 -8 l 257
 186 -8 159 -7 159 4 c 256
 159 6 160 8 161 10 c 258
 613 651 l 257
 613 651 638 649 638 638 c 256
 638 636 638 634 637 633 c 258
EndSplineSet
Validated: 8388641
PickledDataWithLists: "(dp1
S'com.fontlab.hintData'
p2
(dp3
S'vhints'
p4
(lp5
(dp6
S'position'
p7
I225
sS'width'
p8
I93
sa(dp9
g7
I242
sg8
I80
sasS'hhints'
p10
(lp11
(dp12
g7
I-1
sg8
I21
sa(dp13
g7
I110
sg8
I42
sa(dp14
g7
I245
sg8
I31
sa(dp15
g7
I443
sg8
I24
sa(dp16
g7
I594
sg8
I50
sass."
EndChar

StartChar: questiondown
Encoding: 125 191 125
GlifName: questiondown
Width: 364
VWidth: 0
GlyphClass: 2
Flags: W
HStem: -208 73<99.5 105 77.5 164.5> 311 138<244.5 254.5>
VStem: -20 73<-99 -83.5 -108 -34.5> 183 92<162.5 164 103 185.5> 187 126<378 378>
LayerCount: 2
Fore
SplineSet
313 378 m 256
 306 341 272 311 237 311 c 256
 203 311 180 341 187 378 c 256
 194 415 227 449 262 449 c 256
 298 449 320 415 313 378 c 256
149 223 m 257
 149 229 157 240 162 243 c 257
 186 243 275 192 275 136 c 256
 275 70 220 44 194 26 c 256
 167 7 117 -11 84 -39 c 256
 64 -56 53 -71 53 -96 c 256
 53 -120 65 -135 90 -135 c 256
 120 -135 151 -84 181 -84 c 256
 227 -84 239 -133 224 -171 c 257
 212 -186 188 -208 141 -208 c 256
 58 -208 -20 -136 -20 -62 c 256
 -20 -7 -7 34 68 81 c 256
 84 91 117 105 144 123 c 256
 166 137 183 154 183 171 c 256
 183 200 157 218 149 223 c 257
EndSplineSet
Validated: 8388641
PickledDataWithLists: "(dp1
S'com.fontlab.hintData'
p2
(dp3
S'vhints'
p4
(lp5
(dp6
S'position'
p7
I-20
sS'width'
p8
I73
sa(dp9
g7
I183
sg8
I92
sa(dp10
g7
I187
sg8
I126
sasS'hhints'
p11
(lp12
(dp13
g7
I-208
sg8
I73
sa(dp14
g7
I311
sg8
I138
sass."
EndChar

StartChar: AE
Encoding: 132 198 132
GlifName: A_E_
Width: 864
VWidth: 0
GlyphClass: 2
Flags: W
HStem: -3 37 -2 44<577 639 639 656.5 577 762> 270 48<315.5 328.5> 302 47<591 621.5> 620 37
VStem: 700 29<230 234> 720 28 786 36
LayerCount: 2
Fore
SplineSet
507 657 m 256
 546 657 756 663 811 664 c 257
 813 614 818 561 822 516 c 257
 819 513 807 511 800 511 c 256
 793 511 787 514 786 519 c 256
 772 574 753 620 696 620 c 258
 619 620 l 258
 598 620 577 619 571 608 c 256
 565 596 563 576 560 547 c 258
 542 360 l 258
 542 354 561 349 581 349 c 258
 630 349 l 258
 685 349 699 361 720 419 c 256
 722 424 724 427 731 427 c 256
 738 427 746 425 748 422 c 257
 729 230 l 257
 727 228 719 226 712 226 c 256
 705 226 700 229 700 234 c 256
 694 282 681 291 673 295 c 256
 663 300 639 302 604 302 c 256
 578 302 536 300 535 288 c 258
 519 141 l 258
 518 135 513 82 519 62 c 256
 523 48 553 42 577 42 c 258
 639 42 l 258
 674 42 705 52 729 75 c 256
 751 96 767 125 788 170 c 256
 790 174 795 176 802 176 c 256
 811 176 827 173 829 170 c 257
 806 116 773 42 762 -2 c 257
 736 -2 562 -2 436 -2 c 256
 372 -2 320 -3 308 -3 c 257
 304 3 306 27 311 34 c 257
 323 35 367 38 373 51 c 256
 382 71 385 102 389 145 c 258
 401 265 l 258
 400 266 399 269 397 269 c 256
 362 271 340 270 317 270 c 256
 279 270 264 270 231 269 c 256
 228 269 223 266 222 264 c 258
 222 264 151 163 132 135 c 256
 116 110 95 74 93 67 c 256
 86 41 148 33 155 33 c 257
 158 26 156 0 152 -4 c 257
 120 0 81 4 40 4 c 256
 -3 4 -29 0 -62 -4 c 257
 -65 0 -68 21 -61 32 c 257
 -50 32 0 48 13 64 c 256
 37 92 45 106 65 134 c 258
 381 590 l 256
 381 590 389 603 389 608 c 256
 389 618 370 623 364 623 c 257
 360 630 365 654 369 660 c 257
 410 657 468 657 507 657 c 256
431 567 m 257
 260 325 l 257
 260 325 260 321 262 321 c 256
 280 319 305 318 326 318 c 256
 355 318 373 318 402 320 c 256
 404 320 407 325 407 325 c 257
 427 513 l 258
 429 534 430 552 431 567 c 257
EndSplineSet
Validated: 8388641
PickledDataWithLists: "(dp1
S'com.fontlab.hintData'
p2
(dp3
S'vhints'
p4
(lp5
(dp6
S'position'
p7
I700
sS'width'
p8
I29
sa(dp9
g7
I720
sg8
I28
sa(dp10
g7
I786
sg8
I36
sasS'hhints'
p11
(lp12
(dp13
g7
I-3
sg8
I37
sa(dp14
g7
I-2
sg8
I44
sa(dp15
g7
I270
sg8
I48
sa(dp16
g7
I302
sg8
I47
sa(dp17
g7
I620
sg8
I37
sass."
EndChar

StartChar: Eth
Encoding: 142 208 142
GlifName: E_th
Width: 721
VWidth: 0
GlyphClass: 2
Flags: W
HStem: -3 42 304 39<51 390 60 384> 620 40
LayerCount: 2
Fore
SplineSet
60 343 m 257
 88 343 377 343 390 343 c 256
 394 343 396 339 395 335 c 256
 394 330 389 311 384 304 c 257
 356 304 66 304 53 304 c 256
 49 304 49 311 50 315 c 256
 51 320 53 336 60 343 c 257
EndSplineSet
Refer: 36 68 N 1 0 0 1 1 0 2
Validated: 5
PickledDataWithLists: "(dp1
S'com.fontlab.hintData'
p2
(dp3
S'hhints'
p4
(lp5
(dp6
S'position'
p7
I-3
sS'width'
p8
I42
sa(dp9
g7
I304
sg8
I39
sa(dp10
g7
I620
sg8
I40
sass."
EndChar

StartChar: multiply
Encoding: 149 215 149
GlifName: multiply
Width: 436
VWidth: 0
GlyphClass: 2
Flags: W
VStem: 180 68<244.5 252>
LayerCount: 2
Fore
SplineSet
39 70 m 256
 33 70 24 97 24 113 c 257
 178 248 l 258
 179 249 180 250 180 251 c 256
 180 253 180 255 179 256 c 258
 78 393 l 257
 78 407 105 429 110 429 c 256
 114 429 112 427 114 425 c 258
 218 284 l 258
 219 283 221 282 222 282 c 258
 224 283 l 256
 382 424 l 258
 384 426 386 427 388 427 c 256
 395 427 403 401 403 383 c 257
 250 247 l 258
 249 246 248 246 248 245 c 256
 248 244 248 244 249 243 c 258
 349 107 l 257
 349 93 329 70 322 70 c 256
 318 70 316 71 315 73 c 258
 212 213 l 258
 211 214 210 215 209 215 c 256
 208 215 206 214 205 213 c 258
 44 73 l 258
 42 71 41 70 39 70 c 256
EndSplineSet
Validated: 1
PickledDataWithLists: "(dp1
S'com.fontlab.hintData'
p2
(dp3
S'vhints'
p4
(lp5
(dp6
S'position'
p7
I180
sS'width'
p8
I68
sass."
EndChar

StartChar: Oslash
Encoding: 150 216 150
GlifName: O_slash
Width: 705
VWidth: 0
GlyphClass: 2
Flags: W
HStem: -10 43 624 43
VStem: 49 144 535 144
LayerCount: 2
Fore
SplineSet
104 -13 m 257
 96 -10 75 6 80 12 c 257
 596 669 l 257
 604 667 626 651 621 645 c 257
 104 -13 l 257
EndSplineSet
Refer: 47 79 N 1 0 0 1 0 0 2
Validated: 37
PickledDataWithLists: "(dp1
S'com.fontlab.hintData'
p2
(dp3
S'vhints'
p4
(lp5
(dp6
S'position'
p7
I49
sS'width'
p8
I144
sa(dp9
g7
I535
sg8
I144
sasS'hhints'
p10
(lp11
(dp12
g7
I-10
sg8
I43
sa(dp13
g7
I624
sg8
I43
sass."
EndChar

StartChar: Thorn
Encoding: 156 222 156
GlifName: T_horn
Width: 556
VWidth: 0
GlyphClass: 2
Flags: W
HStem: -4 37 135 44<288.5 306 276 352> 472 41<353.5 363> 623 37
LayerCount: 2
Fore
SplineSet
364 513 m 256
 483 513 565 424 544 317 c 256
 521 197 399 135 305 135 c 256
 272 135 259 147 254 154 c 256
 251 158 249 171 249 176 c 256
 249 180 251 183 253 183 c 257
 262 180 269 179 283 179 c 256
 329 179 390 237 403 303 c 256
 420 392 394 472 332 472 c 256
 311 472 293 468 284 456 c 256
 276 445 273 428 267 399 c 258
 218 145 l 258
 210 102 203 71 207 51 c 256
 209 38 251 34 263 33 c 257
 266 26 261 2 256 -4 c 257
 221 0 163 3 124 3 c 256
 85 3 28 0 -9 -4 c 257
 -12 2 -7 26 -1 33 c 257
 11 34 55 38 62 51 c 256
 73 71 79 102 87 145 c 258
 159 513 l 258
 167 556 174 587 170 607 c 256
 168 620 125 622 113 623 c 257
 110 630 116 654 121 660 c 257
 162 657 214 657 253 657 c 256
 292 657 348 660 385 664 c 257
 388 658 384 634 378 627 c 257
 366 626 322 622 315 609 c 256
 305 591 298 559 291 520 c 256
 291 520 291 509 293 509 c 256
 295 509 296 510 298 510 c 256
 312 513 343 513 364 513 c 256
EndSplineSet
Validated: 33
PickledDataWithLists: "(dp1
S'com.fontlab.hintData'
p2
(dp3
S'hhints'
p4
(lp5
(dp6
S'position'
p7
I-4
sS'width'
p8
I37
sa(dp9
g7
I135
sg8
I44
sa(dp10
g7
I472
sg8
I41
sa(dp11
g7
I623
sg8
I37
sass."
EndChar

StartChar: germandbls
Encoding: 157 223 157
GlifName: germandbls
Width: 527
VWidth: 0
GlyphClass: 2
Flags: W
HStem: -218 46<-34 -19> -4 34<315.5 348 315.5 360.5> 378 46 655 40<328 372.5>
VStem: 261 99<287 366> 382 91<60 150.5> 400 107<524 562>
LayerCount: 2
Fore
SplineSet
115 424 m 257
 147 588 288 695 368 695 c 256
 434 695 507 648 507 570 c 256
 507 468 407 414 376 391 c 256
 363 382 360 371 360 361 c 256
 360 334 389 295 410 266 c 256
 449 213 473 174 473 127 c 256
 473 57 400 -4 321 -4 c 256
 261 -4 247 0 230 11 c 257
 224 16 213 29 213 52 c 256
 213 80 238 97 259 97 c 256
 296 97 291 30 340 30 c 256
 356 30 382 44 382 76 c 256
 382 107 336 157 309 193 c 256
 280 232 261 264 261 310 c 256
 261 360 314 398 344 430 c 256
 359 446 400 492 400 556 c 256
 400 568 398 655 347 655 c 256
 289 655 253 563 230 424 c 256
 206 282 190 184 166 58 c 256
 134 -106 21 -218 -59 -218 c 256
 -93 -218 -122 -208 -133 -200 c 257
 -138 -192 -142 -180 -142 -167 c 256
 -142 -142 -127 -118 -104 -118 c 256
 -87 -118 -73 -127 -62 -142 c 256
 -53 -155 -43 -172 -25 -172 c 256
 14 -172 20 -105 51 54 c 257
 115 424 l 257
EndSplineSet
Validated: 8388609
PickledDataWithLists: "(dp1
S'com.fontlab.hintData'
p2
(dp3
S'vhints'
p4
(lp5
(dp6
S'position'
p7
I261
sS'width'
p8
I99
sa(dp9
g7
I382
sg8
I91
sa(dp10
g7
I400
sg8
I107
sasS'hhints'
p11
(lp12
(dp13
g7
I-218
sg8
I46
sa(dp14
g7
I-4
sg8
I34
sa(dp15
g7
I378
sg8
I46
sa(dp16
g7
I655
sg8
I40
sass."
EndChar

StartChar: ae
Encoding: 164 230 164
GlifName: ae
Width: 607
VWidth: 0
GlyphClass: 2
Flags: W
HStem: -8 70<63 178> -6 83<323 438.5> 188 38<360 379.5 360 388> 411 38<220.5 230>
VStem: 236 119 475 119<336 382>
LayerCount: 2
Fore
SplineSet
449 412 m 256
 401 412 365 277 360 226 c 257
 399 226 475 299 475 373 c 256
 475 391 471 412 449 412 c 256
236 91 m 257
 233 106 234 186 240 209 c 257
 219 205 177 189 167 182 c 256
 152 172 131 146 128 124 c 257
 120 81 146 62 168 62 c 256
 188 62 226 83 236 91 c 257
259 449 m 256
 302 449 336 427 354 391 c 257
 395 427 440 449 483 449 c 256
 534 449 594 427 594 357 c 256
 594 254 419 188 357 188 c 257
 356 185 355 168 355 163 c 256
 355 126 366 77 416 77 c 256
 461 77 514 139 517 142 c 257
 526 142 532 118 532 112 c 257
 519 90 409 -6 346 -6 c 256
 300 -6 266 16 247 57 c 257
 232 46 126 -8 96 -8 c 256
 30 -8 -5 55 6 114 c 256
 14 153 43 186 67 194 c 256
 103 206 173 228 239 249 c 256
 244 251 245 254 246 263 c 258
 249 311 l 258
 250 319 250 328 250 336 c 256
 250 376 243 411 217 411 c 256
 184 411 168 372 150 327 c 256
 141 304 124 283 94 283 c 256
 71 283 51 303 56 331 c 256
 59 344 67 358 77 372 c 257
 91 385 182 449 259 449 c 256
EndSplineSet
Validated: 8388641
PickledDataWithLists: "(dp1
S'com.fontlab.hintData'
p2
(dp3
S'vhints'
p4
(lp5
(dp6
S'position'
p7
I236
sS'width'
p8
I119
sa(dp9
g7
I475
sg8
I119
sasS'hhints'
p10
(lp11
(dp12
g7
I-8
sg8
I70
sa(dp13
g7
I-6
sg8
I83
sa(dp14
g7
I188
sg8
I38
sa(dp15
g7
I411
sg8
I38
sass."
EndChar

StartChar: eth
Encoding: 174 240 174
GlifName: eth
Width: 463
VWidth: 0
GlyphClass: 2
Flags: W
HStem: -7 41<155 198 155 204> 409 40<230 267> 674 21
LayerCount: 2
Fore
SplineSet
285 217 m 256
 296 272 308 355 305 369 c 256
 297 405 274 409 260 409 c 256
 200 409 164 304 148 210 c 256
 131 112 137 34 173 34 c 256
 223 34 266 119 285 217 c 256
145 674 m 257
 146 681 151 695 158 695 c 256
 202.609 682.573 249.96 659.181 292.223 625.114 c 257
 414 705 l 257
 418 699 429 679 424 674 c 258
 316.781 603.518 l 257
 394.219 529.235 446.663 415.021 417 263 c 256
 388 115 249 -7 159 -7 c 256
 37 -7 1 94 22 204 c 256
 43 312 165 449 271 449 c 256
 289 449 305 447 312 446 c 257
 312 481.766 304.679 526.851 270.647 573.19 c 257
 173 509 l 257
 169 516 159 536 164 541 c 258
 250.238 597.572 l 257
 225.678 623.565 191.725 649.509 145 674 c 257
EndSplineSet
Validated: 524321
PickledDataWithLists: "(dp1
S'com.fontlab.hintData'
p2
(dp3
S'hhints'
p4
(lp5
(dp6
S'position'
p7
I-7
sS'width'
p8
I41
sa(dp9
g7
I409
sg8
I40
sa(dp10
g7
I674
sg8
I21
sass."
EndChar

StartChar: divide
Encoding: 181 247 181
GlifName: divide
Width: 535
VWidth: 0
GlyphClass: 2
Flags: W
HStem: 0 112<221.5 239.5> 223 51<49.5 479 61 469> 385 112<294.5 312.5>
VStem: 179 104<48.5 64.5> 252 104<433.5 449.5>
LayerCount: 2
Fore
SplineSet
51 223 m 258
 48 223 46 226 46 231 c 256
 46 244 51 261 61 274 c 257
 479 274 l 258
 481 274 482 271 482 266 c 256
 482 253 480 235 469 223 c 257
 51 223 l 258
311 497 m 256
 337 497 356 477 356 450 c 256
 356 417 329 385 296 385 c 256
 270 385 252 406 252 433 c 256
 252 466 278 497 311 497 c 256
238 112 m 256
 264 112 283 92 283 65 c 256
 283 32 256 0 223 0 c 256
 197 0 179 21 179 48 c 256
 179 81 205 112 238 112 c 256
EndSplineSet
Validated: 8388609
PickledDataWithLists: "(dp1
S'com.fontlab.hintData'
p2
(dp3
S'vhints'
p4
(lp5
(dp6
S'position'
p7
I179
sS'width'
p8
I104
sa(dp9
g7
I252
sg8
I104
sasS'hhints'
p10
(lp11
(dp12
g7
I0
sg8
I112
sa(dp13
g7
I223
sg8
I51
sa(dp14
g7
I385
sg8
I112
sass."
EndChar

StartChar: oslash
Encoding: 182 248 182
GlifName: oslash
Width: 455
VWidth: 0
GlyphClass: 2
Flags: W
HStem: -6 40 409 40
VStem: 15 125 296 125
LayerCount: 2
Fore
SplineSet
334 459 m 257
 340 459 361 455 362 449 c 257
 110 -19 l 257
 104 -20 86 -16 82 -8 c 257
 334 459 l 257
EndSplineSet
Refer: 79 111 N 1 0 0 1 0 0 2
Validated: 5
PickledDataWithLists: "(dp1
S'com.fontlab.hintData'
p2
(dp3
S'vhints'
p4
(lp5
(dp6
S'position'
p7
I15
sS'width'
p8
I125
sa(dp9
g7
I296
sg8
I125
sasS'hhints'
p10
(lp11
(dp12
g7
I-6
sg8
I40
sa(dp13
g7
I409
sg8
I40
sass."
EndChar

StartChar: thorn
Encoding: 188 254 188
GlifName: thorn
Width: 497
VWidth: 0
GlyphClass: 2
Flags: W
HStem: -219 32 -210 30 -5 44<195 241> 365 84<287 404> 633 29 677 20
VStem: 158 129<608.5 681> 341 129<257 315.5>
LayerCount: 2
Fore
SplineSet
274 603 m 256
 271 585 230 382 228 373 c 257
 256 404 321 449 372 449 c 256
 436 449 470 398 470 328 c 256
 470 160 302 -5 180 -5 c 256
 174 -5 162 -4 153 0 c 257
 127 -126 l 258
 125 -135 124 -144 124 -154 c 256
 124 -159 128 -174 138 -177 c 256
 155 -181 182 -180 185 -180 c 256
 189 -181 186 -209 181 -211 c 257
 168 -211 157 -210 146 -210 c 256
 95 -210 7 -212 -51 -219 c 257
 -56 -218 -54 -190 -49 -187 c 257
 -31 -187 -18 -182 -9 -171 c 256
 -2 -162 2 -151 7 -128 c 258
 82 232 l 257
 34 184 l 257
 30 189 27 204 27 211 c 256
 27 222 36 234 42 239 c 258
 93 287 l 257
 149 561 l 258
 153 579 158 603 158 614 c 256
 158 633 113 633 97 633 c 257
 94 637 97 658 101 662 c 257
 156 667 259 689 281 697 c 257
 286 694 287 684 287 678 c 256
 287 670 279 627 274 603 c 256
302 365 m 256
 272 365 242 345 220 323 c 257
 215 296 185 149 185 149 c 258
 170 72 182 39 208 39 c 256
 279 39 341 215 341 299 c 256
 341 332 334 365 302 365 c 256
EndSplineSet
Validated: 8388641
PickledDataWithLists: "(dp1
S'com.fontlab.hintData'
p2
(dp3
S'vhints'
p4
(lp5
(dp6
S'position'
p7
I158
sS'width'
p8
I129
sa(dp9
g7
I341
sg8
I129
sasS'hhints'
p10
(lp11
(dp12
g7
I-219
sg8
I32
sa(dp13
g7
I-210
sg8
I30
sa(dp14
g7
I-5
sg8
I44
sa(dp15
g7
I365
sg8
I84
sa(dp16
g7
I633
sg8
I29
sa(dp17
g7
I677
sg8
I20
sass."
EndChar

StartChar: gravecomb
Encoding: 190 768 190
GlifName: gravecomb
Width: 0
VWidth: 0
GlyphClass: 4
Flags: W
HStem: 490 148
VStem: -346 172
LayerCount: 2
Fore
SplineSet
-183 490 m 257
 -200 494 -346 562 -346 597 c 256
 -346 624 -318 638 -301 638 c 256
 -288 638 -274 635 -270 631 c 256
 -240 603 -177 512 -174 502 c 257
 -175 496 -180 492 -183 490 c 257
EndSplineSet
Validated: 1
PickledDataWithLists: "(dp1
S'com.fontlab.hintData'
p2
(dp3
S'vhints'
p4
(lp5
(dp6
S'position'
p7
I-346
sS'width'
p8
I172
sasS'hhints'
p9
(lp10
(dp11
g7
I490
sg8
I148
sass."
EndChar

StartChar: acutecomb
Encoding: 191 769 191
GlifName: acutecomb
Width: 0
VWidth: 0
GlyphClass: 4
Flags: W
HStem: 490 148
VStem: -336 172
LayerCount: 2
Fore
SplineSet
-327 490 m 257
 -330 492 -335 496 -336 502 c 257
 -333 512 -270 603 -240 631 c 256
 -236 635 -222 638 -209 638 c 256
 -192 638 -164 624 -164 597 c 256
 -164 562 -310 494 -327 490 c 257
EndSplineSet
Validated: 1
PickledDataWithLists: "(dp1
S'com.fontlab.hintData'
p2
(dp3
S'vhints'
p4
(lp5
(dp6
S'position'
p7
I-336
sS'width'
p8
I172
sasS'hhints'
p9
(lp10
(dp11
g7
I490
sg8
I148
sass."
EndChar

StartChar: uni2010
Encoding: 197 8208 197
GlifName: uni2010
Width: 288
VWidth: 0
GlyphClass: 2
Flags: W
VStem: 64 257<204 269.5>
LayerCount: 2
Fore
SplineSet
88 267 m 258
 315 279 l 258
 320 279 321 272 321 267 c 256
 321 254 305 205 295 204 c 258
 69 193 l 258
 66 193 64 200 64 208 c 256
 64 219 77 266 88 267 c 258
EndSplineSet
Validated: 1
PickledDataWithLists: "(dp1
S'com.fontlab.hintData'
p2
(dp3
S'vhints'
p4
(lp5
(dp6
S'position'
p7
I64
sS'width'
p8
I257
sass."
EndChar

StartChar: uni2011
Encoding: 198 8209 198
GlifName: uni2011
Width: 288
VWidth: 0
GlyphClass: 2
Flags: W
VStem: 64 257<204 269.5>
LayerCount: 2
Fore
SplineSet
88 267 m 258
 315 279 l 258
 320 279 321 272 321 267 c 256
 321 254 305 205 295 204 c 258
 69 193 l 258
 66 193 64 200 64 208 c 256
 64 219 77 266 88 267 c 258
EndSplineSet
Validated: 1
PickledDataWithLists: "(dp1
S'com.fontlab.hintData'
p2
(dp3
S'vhints'
p4
(lp5
(dp6
S'position'
p7
I64
sS'width'
p8
I257
sass."
EndChar

StartChar: figuredash
Encoding: 199 8210 199
GlifName: figuredash
Width: 462
VWidth: 0
GlyphClass: 2
Flags: W
HStem: 194 74<65.5 470 84 455>
LayerCount: 2
Fore
SplineSet
470 268 m 258
 477 268 477 258 477 252 c 256
 477 230 460 199 455 194 c 257
 69 194 l 258
 62 194 62 204 62 210 c 256
 62 232 79 263 84 268 c 257
 470 268 l 258
EndSplineSet
Validated: 1
PickledDataWithLists: "(dp1
S'com.fontlab.hintData'
p2
(dp3
S'hhints'
p4
(lp5
(dp6
S'position'
p7
I194
sS'width'
p8
I74
sass."
EndChar

StartChar: endash
Encoding: 200 8211 200
GlifName: endash
Width: 462
VWidth: 0
GlyphClass: 2
Flags: W
HStem: 194 74<65.5 470 84 455>
LayerCount: 2
Fore
SplineSet
470 268 m 258
 477 268 477 258 477 252 c 256
 477 230 460 199 455 194 c 257
 69 194 l 258
 62 194 62 204 62 210 c 256
 62 232 79 263 84 268 c 257
 470 268 l 258
EndSplineSet
Validated: 1
PickledDataWithLists: "(dp1
S'com.fontlab.hintData'
p2
(dp3
S'hhints'
p4
(lp5
(dp6
S'position'
p7
I194
sS'width'
p8
I74
sass."
EndChar

StartChar: emdash
Encoding: 201 8212 201
GlifName: emdash
Width: 824
VWidth: 0
GlyphClass: 2
Flags: W
HStem: 194 74<65.5 823 84 808>
LayerCount: 2
Fore
SplineSet
823 268 m 258
 830 268 830 258 830 252 c 256
 830 230 813 199 808 194 c 257
 69 194 l 258
 62 194 62 204 62 210 c 256
 62 232 79 263 84 268 c 257
 823 268 l 258
EndSplineSet
Validated: 1
PickledDataWithLists: "(dp1
S'com.fontlab.hintData'
p2
(dp3
S'hhints'
p4
(lp5
(dp6
S'position'
p7
I194
sS'width'
p8
I74
sass."
EndChar

StartChar: afii00208
Encoding: 202 8213 202
GlifName: afii00208
Width: 1005
VWidth: 0
GlyphClass: 2
Flags: W
HStem: 194 74<65.5 1007 84 992>
LayerCount: 2
Fore
SplineSet
1007 268 m 258
 1014 268 1014 258 1014 252 c 256
 1014 230 997 199 992 194 c 257
 69 194 l 258
 62 194 62 204 62 210 c 256
 62 232 79 263 84 268 c 257
 1007 268 l 258
EndSplineSet
Validated: 1
PickledDataWithLists: "(dp1
S'com.fontlab.hintData'
p2
(dp3
S'hhints'
p4
(lp5
(dp6
S'position'
p7
I194
sS'width'
p8
I74
sass."
EndChar

StartChar: quoteleft
Encoding: 203 8216 203
GlifName: quoteleft
Width: 168
VWidth: 0
GlyphClass: 2
Flags: W
HStem: 474 232<170.5 276.5>
VStem: 142 99
LayerCount: 2
Fore
SplineSet
142 555 m 256
 160 649 265 706 273 706 c 256
 280 706 287 699 289 688 c 257
 226 652 221 623 219 614 c 256
 214 588 220 572 227 560 c 256
 235 547 244 538 241 524 c 256
 236 500 204 474 174 474 c 256
 167 474 149 478 142 485 c 257
 136 498 136 525 142 555 c 256
EndSplineSet
Validated: 33
PickledDataWithLists: "(dp1
S'com.fontlab.hintData'
p2
(dp3
S'vhints'
p4
(lp5
(dp6
S'position'
p7
I142
sS'width'
p8
I99
sasS'hhints'
p9
(lp10
(dp11
g7
I474
sg8
I232
sass."
EndChar

StartChar: quoteright
Encoding: 204 8217 204
GlifName: quoteright
Width: 175
VWidth: 0
GlyphClass: 2
Flags: W
HStem: 474 232<139.5 245.5>
VStem: 175 99
LayerCount: 2
Fore
SplineSet
274 625 m 256
 256 531 151 474 143 474 c 256
 136 474 129 481 127 492 c 257
 190 528 195 557 197 566 c 256
 202 592 196 608 189 620 c 256
 181 633 172 642 175 656 c 256
 180 680 212 706 242 706 c 256
 249 706 267 702 274 695 c 257
 280 682 280 655 274 625 c 256
EndSplineSet
Validated: 33
PickledDataWithLists: "(dp1
S'com.fontlab.hintData'
p2
(dp3
S'vhints'
p4
(lp5
(dp6
S'position'
p7
I175
sS'width'
p8
I99
sasS'hhints'
p9
(lp10
(dp11
g7
I474
sg8
I232
sass."
EndChar

StartChar: quotesinglbase
Encoding: 205 8218 205
GlifName: quotesinglbase
Width: 180
VWidth: 0
GlyphClass: 2
Flags: W
HStem: -107 232<13.5 119.5>
VStem: 50 98
LayerCount: 2
Fore
SplineSet
149 44 m 256
 131 -50 25 -107 17 -107 c 256
 10 -107 3 -100 1 -89 c 257
 64 -53 69 -24 71 -15 c 256
 76 11 69 27 62 39 c 256
 54 52 47 61 50 75 c 256
 55 99 86 125 116 125 c 256
 123 125 141 121 148 114 c 257
 154 101 155 74 149 44 c 256
EndSplineSet
Validated: 33
PickledDataWithLists: "(dp1
S'com.fontlab.hintData'
p2
(dp3
S'vhints'
p4
(lp5
(dp6
S'position'
p7
I50
sS'width'
p8
I98
sasS'hhints'
p9
(lp10
(dp11
g7
I-107
sg8
I232
sass."
EndChar

StartChar: quotedblleft
Encoding: 206 8220 206
GlifName: quotedblleft
Width: 305
VWidth: 0
GlyphClass: 2
Flags: W
HStem: 474 232<170.5 276.5 269 327>
VStem: 142 99 280 98
LayerCount: 2
Fore
SplineSet
279 555 m 256
 297 649 403 706 411 706 c 256
 418 706 425 699 427 688 c 257
 364 652 359 623 357 614 c 256
 352 588 358 572 365 560 c 256
 373 547 381 538 378 524 c 256
 373 500 342 474 312 474 c 256
 305 474 287 478 280 485 c 257
 274 498 273 525 279 555 c 256
142 555 m 256
 160 649 265 706 273 706 c 256
 280 706 287 699 289 688 c 257
 226 652 221 623 219 614 c 256
 214 588 220 572 227 560 c 256
 235 547 244 538 241 524 c 256
 236 500 204 474 174 474 c 256
 167 474 149 478 142 485 c 257
 136 498 136 525 142 555 c 256
EndSplineSet
Validated: 33
PickledDataWithLists: "(dp1
S'com.fontlab.hintData'
p2
(dp3
S'vhints'
p4
(lp5
(dp6
S'position'
p7
I142
sS'width'
p8
I99
sa(dp9
g7
I280
sg8
I98
sasS'hhints'
p10
(lp11
(dp12
g7
I474
sg8
I232
sass."
EndChar

StartChar: quotedblright
Encoding: 207 8221 207
GlifName: quotedblright
Width: 313
VWidth: 0
GlyphClass: 2
Flags: W
HStem: 474 232<139.5 245.5 227 284>
VStem: 175 99 313 99
LayerCount: 2
Fore
SplineSet
274 625 m 256
 256 531 151 474 143 474 c 256
 136 474 129 481 127 492 c 257
 190 528 195 557 197 566 c 256
 202 592 196 608 189 620 c 256
 181 633 172 642 175 656 c 256
 180 680 212 706 242 706 c 256
 249 706 267 702 274 695 c 257
 280 682 280 655 274 625 c 256
412 625 m 256
 394 531 288 474 280 474 c 256
 273 474 266 481 264 492 c 257
 327 528 332 557 334 566 c 256
 339 592 333 608 326 620 c 256
 318 633 310 642 313 656 c 256
 318 680 349 706 379 706 c 256
 386 706 405 702 412 695 c 257
 418 682 418 655 412 625 c 256
EndSplineSet
Validated: 33
PickledDataWithLists: "(dp1
S'com.fontlab.hintData'
p2
(dp3
S'vhints'
p4
(lp5
(dp6
S'position'
p7
I175
sS'width'
p8
I99
sa(dp9
g7
I313
sg8
I99
sasS'hhints'
p10
(lp11
(dp12
g7
I474
sg8
I232
sass."
EndChar

StartChar: quotedblbase
Encoding: 208 8222 208
GlifName: quotedblbase
Width: 319
VWidth: 0
GlyphClass: 2
Flags: W
HStem: -108 232<14.5 120.5 102 159>
VStem: 50 99 188 99
LayerCount: 2
Fore
SplineSet
149 43 m 256
 131 -51 26 -108 18 -108 c 256
 11 -108 4 -101 2 -90 c 257
 65 -54 70 -25 72 -16 c 256
 77 10 70 26 63 38 c 256
 55 51 47 60 50 74 c 256
 55 98 87 124 117 124 c 256
 124 124 142 120 149 113 c 257
 155 100 155 73 149 43 c 256
287 43 m 256
 269 -51 163 -108 155 -108 c 256
 148 -108 141 -101 139 -90 c 257
 202 -54 207 -25 209 -16 c 256
 214 10 207 26 200 38 c 256
 192 51 185 60 188 74 c 256
 193 98 224 124 254 124 c 256
 261 124 280 120 287 113 c 257
 293 100 293 73 287 43 c 256
EndSplineSet
Validated: 33
PickledDataWithLists: "(dp1
S'com.fontlab.hintData'
p2
(dp3
S'vhints'
p4
(lp5
(dp6
S'position'
p7
I50
sS'width'
p8
I99
sa(dp9
g7
I188
sg8
I99
sasS'hhints'
p10
(lp11
(dp12
g7
I-108
sg8
I232
sass."
EndChar

StartChar: dagger
Encoding: 209 8224 209
GlifName: dagger
Width: 366
VWidth: 0
GlyphClass: 2
Flags: W
HStem: 432 91<139 167> 463 25<231 238 314 315> 642 20<301.5 322>
VStem: 172 18<4.29497e+09 4.29497e+09>
LayerCount: 2
Fore
SplineSet
236 488 m 256
 248 488 254 492 266 505 c 257
 272 538 275 606 261 625 c 257
 265 646 291 662 312 662 c 256
 332 662 351 646 347 625 c 257
 326 606 302 538 296 505 c 257
 303 492 308 488 320 488 c 256
 351 488 381 504 402 523 c 257
 422 523 433 497 429 476 c 256
 425 455 405 432 385 432 c 257
 371 451 346 462 315 463 c 256
 301 463 286 447 284 435 c 257
 287 418 295 394 301 365 c 257
 254 227 247 185 190 -10 c 257
 186 -17 184 -23 179 -24 c 257
 175 -23 174 -15 172 -10 c 257
 191 185 200 227 206 365 c 257
 221 390 240 418 250 435 c 257
 252 447 245 463 231 463 c 256
 199 462 170 451 149 432 c 257
 129 432 119 455 123 476 c 256
 127 497 147 523 167 523 c 257
 181 504 205 488 236 488 c 256
EndSplineSet
Validated: 8388641
PickledDataWithLists: "(dp1
S'com.fontlab.hintData'
p2
(dp3
S'vhints'
p4
(lp5
(dp6
S'position'
p7
I172
sS'width'
p8
I18
sasS'hhints'
p9
(lp10
(dp11
g7
I432
sg8
I91
sa(dp12
g7
I463
sg8
I25
sa(dp13
g7
I642
sg8
I20
sass."
EndChar

StartChar: daggerdbl
Encoding: 210 8225 210
GlifName: daggerdbl
Width: 380
VWidth: 0
GlyphClass: 2
Flags: W
HStem: 115 91<85 113> 150 25<182 183 260 267> 432 91<147 174> 463 25<238 245 321 323> 642 20<308.5 329>
LayerCount: 2
Fore
SplineSet
290 273 m 257
 273 244 256 220 246 203 c 257
 244 191 253 175 267 175 c 256
 299 176 327 187 348 206 c 257
 368 206 379 183 375 162 c 256
 371 141 350 115 330 115 c 257
 316 134 293 150 262 150 c 256
 250 150 243 146 231 133 c 257
 225 100 221 32 235 13 c 257
 231 -8 206 -24 186 -24 c 256
 165 -24 146 -8 150 13 c 257
 171 32 195 100 201 133 c 257
 194 146 189 150 177 150 c 256
 146 150 116 134 95 115 c 257
 75 115 65 141 69 162 c 256
 73 183 93 206 113 206 c 257
 127 187 151 176 182 175 c 256
 196 175 211 191 213 203 c 257
 210 220 200 248 195 273 c 257
 210 285 229 312 231 320 c 257
 233 329 218 358 213 365 c 257
 228 390 248 418 258 435 c 257
 260 447 252 463 238 463 c 256
 206 462 178 451 157 432 c 257
 137 432 126 455 130 476 c 256
 134 497 154 523 174 523 c 257
 188 504 212 488 243 488 c 256
 255 488 261 492 273 505 c 257
 279 538 283 606 269 625 c 257
 273 646 298 662 319 662 c 256
 339 662 358 646 354 625 c 257
 333 606 309 538 303 505 c 257
 310 492 315 488 327 488 c 256
 358 488 389 504 410 523 c 257
 430 523 440 497 436 476 c 256
 432 455 412 432 392 432 c 257
 378 451 354 462 323 463 c 256
 309 463 293 447 291 435 c 257
 294 418 302 394 308 365 c 257
 300 358 275 328 273 320 c 257
 271 312 279 285 290 273 c 257
EndSplineSet
Validated: 8388641
PickledDataWithLists: "(dp1
S'com.fontlab.hintData'
p2
(dp3
S'hhints'
p4
(lp5
(dp6
S'position'
p7
I115
sS'width'
p8
I91
sa(dp9
g7
I150
sg8
I25
sa(dp10
g7
I432
sg8
I91
sa(dp11
g7
I463
sg8
I25
sa(dp12
g7
I642
sg8
I20
sass."
EndChar

StartChar: bullet
Encoding: 211 8226 211
GlifName: bullet
Width: 377
VWidth: 0
GlyphClass: 2
Flags: W
HStem: 123 281<230 247>
VStem: 108 260<263 263>
LayerCount: 2
Fore
SplineSet
108 263 m 256
 123 340 194 404 266 404 c 256
 338 404 383 340 368 263 c 256
 353 186 283 123 211 123 c 256
 139 123 93 186 108 263 c 256
EndSplineSet
Validated: 33
PickledDataWithLists: "(dp1
S'com.fontlab.hintData'
p2
(dp3
S'vhints'
p4
(lp5
(dp6
S'position'
p7
I108
sS'width'
p8
I260
sasS'hhints'
p9
(lp10
(dp11
g7
I123
sg8
I281
sass."
EndChar

StartChar: perthousand
Encoding: 214 8240 214
GlifName: perthousand
Width: 1006
VWidth: 0
GlyphClass: 2
Flags: W
HStem: -1 30<509.5 548 509.5 554.5 820.5 859> 271 29<540 577 851 888> 341 30<219.5 258 219.5 264.5> 613 29<250 287>
LayerCount: 2
Fore
SplineSet
878 271 m 256
 824 271 796 159 801 86 c 256
 802 70 809 29 832 29 c 256
 886 29 913 142 908 210 c 256
 906 232 898 271 878 271 c 256
884 300 m 256
 944 300 993 279 999 200 c 256
 1006 105 909 -1 822 -1 c 256
 762 -1 714 33 710 97 c 256
 703 192 797 300 884 300 c 256
567 271 m 256
 513 271 485 159 490 86 c 256
 491 70 498 29 521 29 c 256
 575 29 602 142 597 210 c 256
 595 232 587 271 567 271 c 256
572 300 m 256
 632 300 682 279 688 200 c 256
 695 105 598 -1 511 -1 c 256
 451 -1 403 33 399 97 c 256
 392 192 485 300 572 300 c 256
277 613 m 256
 223 613 195 501 200 428 c 256
 201 412 208 371 231 371 c 256
 285 371 312 484 307 552 c 256
 305 574 297 613 277 613 c 256
283 642 m 256
 343 642 392 621 398 542 c 256
 405 447 308 341 221 341 c 256
 161 341 113 375 109 439 c 256
 102 534 196 642 283 642 c 256
628 618 m 258
 182 -14 l 257
 182 -14 148 -6 148 5 c 256
 148 7 149 9 150 11 c 258
 597 643 l 257
 597 643 629 634 629 623 c 256
 629 621 629 619 628 618 c 258
EndSplineSet
Validated: 33
PickledDataWithLists: "(dp1
S'com.fontlab.hintData'
p2
(dp3
S'hhints'
p4
(lp5
(dp6
S'position'
p7
I-1
sS'width'
p8
I30
sa(dp9
g7
I271
sg8
I29
sa(dp10
g7
I341
sg8
I30
sa(dp11
g7
I613
sg8
I29
sass."
EndChar

StartChar: minute
Encoding: 215 8242 215
GlifName: minute
Width: 141
VWidth: 0
GlyphClass: 2
Flags: W
HStem: 484 215<131 229.5>
VStem: 173 82<666 666>
LayerCount: 2
Fore
SplineSet
220 699 m 256
 239 699 259 687 255 667 c 256
 246 620 180 528 149 494 c 256
 144 489 138 484 134 484 c 256
 128 484 125 489 126 496 c 256
 127 499 155 612 173 666 c 256
 177 678 202 699 220 699 c 256
EndSplineSet
Validated: 33
PickledDataWithLists: "(dp1
S'com.fontlab.hintData'
p2
(dp3
S'vhints'
p4
(lp5
(dp6
S'position'
p7
I173
sS'width'
p8
I82
sasS'hhints'
p9
(lp10
(dp11
g7
I484
sg8
I215
sass."
EndChar

StartChar: second
Encoding: 216 8243 216
GlifName: second
Width: 276
VWidth: 0
GlyphClass: 2
Flags: W
HStem: 484 215<131 229.5 211 262>
VStem: 173 82<666 666> 298 82<666 666>
LayerCount: 2
Fore
SplineSet
345 699 m 256
 364 699 384 687 380 667 c 256
 371 620 306 528 275 494 c 256
 270 489 264 484 260 484 c 256
 254 484 250 489 251 496 c 256
 252 499 280 612 298 666 c 256
 302 678 327 699 345 699 c 256
220 699 m 256
 239 699 259 687 255 667 c 256
 246 620 180 528 149 494 c 256
 144 489 138 484 134 484 c 256
 128 484 125 489 126 496 c 256
 127 499 155 612 173 666 c 256
 177 678 202 699 220 699 c 256
EndSplineSet
Validated: 33
PickledDataWithLists: "(dp1
S'com.fontlab.hintData'
p2
(dp3
S'vhints'
p4
(lp5
(dp6
S'position'
p7
I173
sS'width'
p8
I82
sa(dp9
g7
I298
sg8
I82
sasS'hhints'
p10
(lp11
(dp12
g7
I484
sg8
I215
sass."
EndChar

StartChar: uni2038
Encoding: 217 8248 217
GlifName: uni2038
Width: 356
VWidth: 0
GlyphClass: 2
Flags: W
HStem: -61 174<65.5 215 201.5 284.5>
VStem: 65 232<4.29497e+09 4.29497e+09>
LayerCount: 2
Fore
SplineSet
281 -61 m 256
 269 -61 221 -17 193 28 c 257
 151 -17 81 -61 69 -61 c 256
 62 -61 65 -37 65 -37 c 257
 72 -26 140 16 196 103 c 256
 200 110 198 113 205 113 c 256
 225 113 215 96 248 33 c 256
 261 9 296 -32 297 -36 c 257
 296 -39 288 -61 281 -61 c 256
EndSplineSet
Validated: 1
PickledDataWithLists: "(dp1
S'com.fontlab.hintData'
p2
(dp3
S'vhints'
p4
(lp5
(dp6
S'position'
p7
I65
sS'width'
p8
I232
sasS'hhints'
p9
(lp10
(dp11
g7
I-61
sg8
I174
sass."
EndChar

StartChar: guilsinglleft
Encoding: 218 8249 218
GlifName: guilsinglleft
Width: 335
VWidth: 0
GlyphClass: 2
Flags: W
VStem: 110 254
LayerCount: 2
Fore
SplineSet
303 92 m 257
 297 82 281 74 275 73 c 257
 271 77 216 154 110 233 c 257
 107 237 106 243 107 248 c 256
 108 253 112 259 116 263 c 257
 253 342 338 419 343 423 c 257
 348 422 362 414 364 404 c 257
 359 398 250 284 209 248 c 257
 236 212 300 98 303 92 c 257
EndSplineSet
Validated: 1
PickledDataWithLists: "(dp1
S'com.fontlab.hintData'
p2
(dp3
S'vhints'
p4
(lp5
(dp6
S'position'
p7
I110
sS'width'
p8
I254
sass."
EndChar

StartChar: guilsinglright
Encoding: 219 8250 219
GlifName: guilsinglright
Width: 461
VWidth: 0
GlyphClass: 2
Flags: W
VStem: 230 254
LayerCount: 2
Fore
SplineSet
291 404 m 257
 297 414 313 422 319 423 c 257
 323 419 378 342 484 263 c 257
 487 259 488 253 487 248 c 256
 486 243 482 237 478 233 c 257
 341 154 256 77 251 73 c 257
 246 74 232 82 230 92 c 257
 235 98 344 212 385 248 c 257
 358 284 294 398 291 404 c 257
EndSplineSet
Validated: 1
PickledDataWithLists: "(dp1
S'com.fontlab.hintData'
p2
(dp3
S'vhints'
p4
(lp5
(dp6
S'position'
p7
I230
sS'width'
p8
I254
sass."
EndChar

StartChar: uni203E
Encoding: 220 8254 220
GlifName: uni203E_
Width: 667
VWidth: 0
GlyphClass: 2
Flags: W
HStem: 733 74<79.5 591 98 576>
LayerCount: 2
Fore
SplineSet
591 807 m 258
 598 807 598 797 598 791 c 256
 598 769 581 738 576 733 c 257
 83 733 l 258
 76 733 76 743 76 749 c 256
 76 771 93 802 98 807 c 257
 591 807 l 258
EndSplineSet
Validated: 1
PickledDataWithLists: "(dp1
S'com.fontlab.hintData'
p2
(dp3
S'hhints'
p4
(lp5
(dp6
S'position'
p7
I733
sS'width'
p8
I74
sass."
EndChar

StartChar: Euro
Encoding: 221 8364 221
GlifName: E_uro
Width: 613
VWidth: 0
GlyphClass: 2
Flags: W
HStem: -7 44<314.673 384> 250 43<24.5 71.3349 35 71.3349 35 72.1055 215.522 364> 351 43<39.5 88.3718 50 77.7843 229.269 379> 624 43<401.181 481.5 382.539 510>
VStem: 71 144 599 34
LayerCount: 2
Fore
SplineSet
26 250 m 258
 23 250 22 254 22 258 c 256
 22 265 28 287 35 293 c 257
 71.3349 293 l 257
 72.1303 313.076 74.3287 332.415 77.7843 351 c 257
 41 351 l 258
 38 351 37 355 37 359 c 256
 37 366 43 388 50 394 c 257
 88.3718 394 l 257
 142.725 569.905 314.078 667 451 667 c 256
 512 667 593 650 646 638 c 257
 646 627 635 506 633 494 c 256
 632 488 622 480 611 480 c 256
 606 480 602 480 599 484 c 256
 597 523 569 624 451 624 c 256
 351.362 624 262.803 534.134 229.269 394 c 257
 388 394 l 258
 390 394 391 390 391 386 c 256
 391 381 388 360 379 351 c 257
 220.978 351 l 257
 218.211 332.36 216.364 313.001 215.522 293 c 257
 373 293 l 258
 375 293 376 289 376 285 c 256
 376 280 373 259 364 250 c 257
 215.468 250 l 257
 220.127 158.949 260.347 37 369 37 c 256
 423 37 463 56 493 81 c 256
 539 119 575 196 578 204 c 257
 592 204 603 199 609 192 c 257
 607 181 555 48 541 40 c 256
 485 9 427 -7 341 -7 c 256
 171.642 -7 82.83 123.448 72.1055 250 c 257
 26 250 l 258
EndSplineSet
Validated: 524289
PickledDataWithLists: "(dp1
S'com.fontlab.hintData'
p2
(dp3
S'vhints'
p4
(lp5
(dp6
S'position'
p7
I71
sS'width'
p8
I144
sa(dp9
g7
I599
sg8
I34
sasS'hhints'
p10
(lp11
(dp12
g7
I-7
sg8
I44
sa(dp13
g7
I250
sg8
I43
sa(dp14
g7
I351
sg8
I43
sa(dp15
g7
I624
sg8
I43
sass."
EndChar

StartChar: arrowleft
Encoding: 222 8592 222
GlifName: arrowleft
Width: 717
VWidth: 0
GlyphClass: 2
Flags: W
HStem: 210 74<165 660 150 679>
LayerCount: 2
Fore
SplineSet
202 319 m 258
 165 284 l 257
 679 284 l 258
 685 284 686 281 686 271 c 256
 686 261 672 219 660 210 c 257
 150 210 l 257
 173 177 l 258
 208 126 227 108 227 99 c 256
 227 85 193 74 189 73 c 257
 188 75 135 132 17 227 c 256
 14 228 13 235 13 238 c 256
 13 247 17 259 26 268 c 257
 163 347 253 419 258 423 c 257
 263 422 286 411 286 399 c 256
 286 395 283 395 202 319 c 258
EndSplineSet
Validated: 1
PickledDataWithLists: "(dp1
S'com.fontlab.hintData'
p2
(dp3
S'hhints'
p4
(lp5
(dp6
S'position'
p7
I210
sS'width'
p8
I74
sass."
EndChar

StartChar: arrowup
Encoding: 223 8593 223
GlifName: arrowup
Width: 334
VWidth: 0
GlyphClass: 2
Flags: W
VStem: 15 325
LayerCount: 2
Fore
SplineSet
157 577 m 257
 119 540 l 257
 60 486 37 466 30 466 c 256
 19 466 15 496 15 502 c 257
 17 503 81 561 198 708 c 256
 201 713 206 714 212 714 c 256
 221 714 229 713 235 706 c 257
 283 575 337 505 340 500 c 257
 338 494 320 466 309 466 c 256
 302 466 289 486 251 540 c 258
 225 576 l 257
 105 -30 l 258
 104 -33 103 -36 92 -36 c 256
 75 -36 37 -22 37 -22 c 257
 157 577 l 257
EndSplineSet
Validated: 1
PickledDataWithLists: "(dp1
S'com.fontlab.hintData'
p2
(dp3
S'vhints'
p4
(lp5
(dp6
S'position'
p7
I15
sS'width'
p8
I325
sass."
EndChar

StartChar: arrowright
Encoding: 224 8594 224
GlifName: arrowright
Width: 704
VWidth: 0
GlyphClass: 2
Flags: W
HStem: 209 76<20 552 42 537>
LayerCount: 2
Fore
SplineSet
537 209 m 257
 23 209 l 258
 17 209 16 212 16 222 c 256
 16 232 30 276 42 285 c 257
 552 285 l 257
 527 319 l 258
 487 371 471 390 473 398 c 256
 475 410 505 422 511 423 c 257
 515 419 566 347 672 268 c 257
 677 260 676 251 674 241 c 256
 673 235 670 229 665 227 c 257
 510 132 445 75 444 73 c 257
 439 74 414 86 416 98 c 256
 418 106 440 125 500 177 c 258
 537 209 l 257
EndSplineSet
Validated: 33
PickledDataWithLists: "(dp1
S'com.fontlab.hintData'
p2
(dp3
S'hhints'
p4
(lp5
(dp6
S'position'
p7
I209
sS'width'
p8
I76
sass."
EndChar

StartChar: arrowdown
Encoding: 225 8595 225
GlifName: arrowdown
Width: 341
VWidth: 0
GlyphClass: 2
Flags: W
HStem: -9 21<123.5 131>
VStem: 0 325
LayerCount: 2
Fore
SplineSet
115 129 m 257
 235 735 l 258
 236 738 237 741 248 741 c 256
 265 741 303 727 303 727 c 257
 183 128 l 257
 221 165 l 257
 280 219 303 239 310 239 c 256
 321 239 325 209 325 203 c 257
 323 202 259 144 142 -3 c 256
 139 -8 134 -9 128 -9 c 256
 119 -9 111 -8 105 -1 c 257
 57 130 3 200 0 205 c 257
 2 211 20 239 31 239 c 256
 38 239 51 219 89 165 c 258
 115 129 l 257
EndSplineSet
Validated: 1
PickledDataWithLists: "(dp1
S'com.fontlab.hintData'
p2
(dp3
S'vhints'
p4
(lp5
(dp6
S'position'
p7
I0
sS'width'
p8
I325
sasS'hhints'
p9
(lp10
(dp11
g7
I-9
sg8
I21
sass."
EndChar

StartChar: universal
Encoding: 226 8704 226
GlifName: universal
Width: 652
VWidth: 0
GlyphClass: 2
Flags: W
HStem: -4 21<187 200> 390 60<299.5 310.5> 631 36
LayerCount: 2
Fore
SplineSet
178 4 m 257
 73 522 l 258
 67 559 63 577 59 597 c 256
 54 622 15 631 8 631 c 256
 5 631 6 641 7 647 c 256
 8 652 11 664 13 667 c 257
 50 665 93 659 134 659 c 256
 177 659 230 665 264 667 c 257
 268 662 262 631 257 631 c 256
 246 631 208 619 198 608 c 256
 196 605 194 603 193 597 c 256
 191 588 198 555 202 529 c 256
 207 500 214 455 214 455 c 257
 214 455 217 451 220 451 c 256
 255 449 288 450 311 450 c 256
 349 450 372 450 405 451 c 256
 408 451 412 454 413 456 c 257
 458 532 l 257
 474 556 487 577 490 594 c 256
 493 609 485 613 481 617 c 256
 470 628 433 633 426 633 c 256
 421 633 428 661 431 667 c 257
 468 665 491 661 532 661 c 256
 575 661 614 665 657 667 c 257
 658 665 658 658 657 652 c 256
 656 646 654 634 652 634 c 256
 641 634 581 610 568 592 c 256
 548 563 528 529 528 529 c 256
 256 77 l 258
 241 53 210 -4 190 -4 c 256
 184 -4 179 1 178 4 c 257
367 387 m 256
 349 389 321 390 300 390 c 256
 271 390 261 390 232 388 c 256
 230 388 228 383 228 383 c 257
 261 205 l 257
 368 383 l 257
 368 383 369 387 367 387 c 256
EndSplineSet
Validated: 33
PickledDataWithLists: "(dp1
S'com.fontlab.hintData'
p2
(dp3
S'hhints'
p4
(lp5
(dp6
S'position'
p7
I-4
sS'width'
p8
I21
sa(dp9
g7
I390
sg8
I60
sa(dp10
g7
I631
sg8
I36
sass."
EndChar

StartChar: partialdiff
Encoding: 227 8706 227
GlifName: partialdiff
Width: 460
VWidth: 0
GlyphClass: 2
Flags: W
HStem: 0 55<167.5 213.5 167.5 235> 317 53<202 237.5> 580 62<204.5 345.5>
VStem: 327 106<446.5 477 305 481>
LayerCount: 2
Fore
SplineSet
220 317 m 256
 184 317 155 270 143 209 c 256
 120 91 148 55 187 55 c 256
 240 55 267 145 281 219 c 257
 297 303 255 317 220 317 c 256
288 642 m 256
 403 642 433 532 433 422 c 256
 433 188 320 0 150 0 c 256
 59 0 -2 60 24 194 c 256
 43 294 146 370 245 370 c 256
 283 370 301 361 304 361 c 256
 308 361 312 364 314 369 c 256
 320 386 327 427 327 466 c 256
 327 496 323 525 312 542 c 256
 291 575 252 580 224 580 c 256
 185 580 150 552 122 534 c 257
 118 538 115 564 128 576 c 256
 162 606 230 642 288 642 c 256
EndSplineSet
Validated: 33
PickledDataWithLists: "(dp1
S'com.fontlab.hintData'
p2
(dp3
S'vhints'
p4
(lp5
(dp6
S'position'
p7
I327
sS'width'
p8
I106
sasS'hhints'
p9
(lp10
(dp11
g7
I0
sg8
I55
sa(dp12
g7
I317
sg8
I53
sa(dp13
g7
I580
sg8
I62
sass."
EndChar

StartChar: Delta
Encoding: 228 8710 228
GlifName: D_elta
Width: 603
VWidth: 0
GlyphClass: 2
Flags: W
HStem: 0 76<101 440 440 442 101 566>
LayerCount: 2
Fore
SplineSet
444 83 m 258
 347 443 l 257
 344 446 339 447 335 441 c 258
 96 87 l 257
 93 80 96 76 101 76 c 258
 440 76 l 258
 444 76 445 79 444 83 c 258
411 613 m 257
 576 14 l 257
 576 14 569 8 566 0 c 257
 -3 0 l 257
 -6 6 -6 9 -8 16 c 257
 395 613 l 257
 411 613 l 257
EndSplineSet
Validated: 1
PickledDataWithLists: "(dp1
S'com.fontlab.hintData'
p2
(dp3
S'hhints'
p4
(lp5
(dp6
S'position'
p7
I0
sS'width'
p8
I76
sass."
EndChar

StartChar: gradient
Encoding: 229 8711 229
GlifName: gradient
Width: 601
VWidth: 0
GlyphClass: 2
Flags: W
HStem: 566 76<157 159 159 497>
LayerCount: 2
Fore
SplineSet
154 559 m 258
 252 199 l 257
 255 196 259 195 263 201 c 258
 502 555 l 257
 505 562 502 566 497 566 c 258
 159 566 l 258
 155 566 153 563 154 559 c 258
187 29 m 257
 23 628 l 257
 23 628 30 634 33 642 c 257
 601 642 l 257
 604 636 604 633 606 626 c 257
 203 29 l 257
 187 29 l 257
EndSplineSet
Validated: 1
PickledDataWithLists: "(dp1
S'com.fontlab.hintData'
p2
(dp3
S'hhints'
p4
(lp5
(dp6
S'position'
p7
I566
sS'width'
p8
I76
sass."
EndChar

StartChar: element
Encoding: 230 8712 230
GlifName: element
Width: 438
VWidth: 0
GlyphClass: 2
Flags: W
HStem: 11 60<119 356 181 352> 189 61<94.5 361 107 348> 370 60<202.5 433 243 414>
LayerCount: 2
Fore
SplineSet
362 220 m 256
 357 193 349 189 348 189 c 258
 95 189 l 258
 94 189 90 188 90 185 c 256
 89 122 119 71 181 71 c 258
 356 71 l 256
 356 71 369 64 362 29 c 256
 360 20 352 11 352 11 c 257
 171 11 l 258
 67 11 6 109 28 221 c 256
 49 330 142 430 243 430 c 258
 433 430 l 257
 433 430 437 421 435 409 c 256
 429 378 414 370 414 370 c 257
 232 370 l 258
 173 370 125 317 103 255 c 256
 102 252 104 250 107 250 c 258
 361 250 l 257
 361 249 365 237 362 220 c 256
EndSplineSet
Validated: 33
PickledDataWithLists: "(dp1
S'com.fontlab.hintData'
p2
(dp3
S'hhints'
p4
(lp5
(dp6
S'position'
p7
I11
sS'width'
p8
I60
sa(dp9
g7
I189
sg8
I61
sa(dp10
g7
I370
sg8
I60
sass."
EndChar

StartChar: notelement
Encoding: 231 8713 231
GlifName: notelement
Width: 440
VWidth: 0
GlyphClass: 2
Flags: W
HStem: -10 21 11 60<158.5 357 182 353> 189 61<95.5 203 108 158 260 349 108 216> 370 60<203.5 332 244 288 389 415 244 346>
LayerCount: 2
Fore
SplineSet
75 -8 m 257
 72 -10 70 -10 66 -10 c 256
 63 -10 48 -6 39 10 c 256
 36 14 36 17 36 17 c 257
 65 58 l 257
 31 97 17 157 29 221 c 256
 50 330 143 430 244 430 c 258
 332 430 l 257
 370 484 l 257
 370 484 375 487 379 487 c 256
 390 487 399 479 405 470 c 256
 409 465 410 459 410 459 c 257
 389 430 l 257
 434 430 l 257
 434 430 438 421 436 409 c 256
 430 378 415 370 415 370 c 257
 346 370 l 257
 260 250 l 257
 362 250 l 257
 362 249 366 237 363 220 c 256
 358 193 350 189 349 189 c 258
 216 189 l 257
 139 81 l 257
 151 75 165 71 182 71 c 258
 357 71 l 257
 357 71 370 64 363 29 c 256
 361 20 353 11 353 11 c 257
 172 11 l 258
 145 11 121 18 101 29 c 257
 75 -8 l 257
203 250 m 257
 288 370 l 257
 233 370 l 258
 174 370 126 317 104 255 c 256
 103 252 105 250 108 250 c 258
 203 250 l 257
106 115 m 257
 158 189 l 257
 96 189 l 258
 95 189 91 188 91 185 c 256
 91 159 96 134 106 115 c 257
EndSplineSet
Validated: 8388641
PickledDataWithLists: "(dp1
S'com.fontlab.hintData'
p2
(dp3
S'hhints'
p4
(lp5
(dp6
S'position'
p7
I-10
sS'width'
p8
I21
sa(dp9
g7
I11
sg8
I60
sa(dp10
g7
I189
sg8
I61
sa(dp11
g7
I370
sg8
I60
sass."
EndChar

StartChar: summation
Encoding: 232 8721 232
GlifName: summation
Width: 571
VWidth: 0
GlyphClass: 2
Flags: W
HStem: 2 58 2 29 608 48 627 29
VStem: 530 34
LayerCount: 2
Fore
SplineSet
464 0 m 257
 363 0 188 2 103 2 c 256
 41 2 -8 -3 -8 -3 c 257
 -9 -1 -10 7 -8 15 c 256
 -6 23 -4 31 -2 31 c 256
 8 31 43 53 54 65 c 258
 271 306 l 258
 276 311 277 318 275 322 c 256
 267 342 208 490 156 592 c 256
 147 609 125 627 114 627 c 256
 112 627 112 634 113 641 c 256
 114 648 118 656 120 658 c 257
 120 658 166 656 228 656 c 256
 314 656 464 662 565 662 c 257
 562 612 564 556 564 511 c 257
 561 508 549 506 542 506 c 256
 535 506 531 508 530 513 c 256
 516 563 479 608 418 608 c 256
 398 608 392 608 366 608 c 256
 333 608 305 603 302 595 c 257
 409 360 l 257
 410 354 410 347 409 341 c 256
 408 336 405 332 402 329 c 256
 303 227 164 84 161 71 c 256
 160 64 162 60 225 60 c 256
 257 60 259 60 284 60 c 256
 332 60 391 65 421 80 c 256
 441 90 474 125 499 170 c 256
 501 174 506 176 513 176 c 256
 522 176 538 173 540 170 c 257
 512 116 479 44 464 0 c 257
EndSplineSet
Validated: 8388641
PickledDataWithLists: "(dp1
S'com.fontlab.hintData'
p2
(dp3
S'vhints'
p4
(lp5
(dp6
S'position'
p7
I530
sS'width'
p8
I34
sasS'hhints'
p9
(lp10
(dp11
g7
I2
sg8
I58
sa(dp12
g7
I2
sg8
I29
sa(dp13
g7
I608
sg8
I48
sa(dp14
g7
I627
sg8
I29
sass."
EndChar

StartChar: minus
Encoding: 233 8722 233
GlifName: minus
Width: 530
VWidth: 0
GlyphClass: 2
Flags: W
HStem: 209 74<56 458 34 481>
LayerCount: 2
Fore
SplineSet
30 219 m 257
 30 219 47 283 56 283 c 258
 481 283 l 258
 484 283 487 283 486 276 c 256
 484 268 474 232 466 215 c 256
 463 209 458 209 458 209 c 257
 34 209 l 257
 34 209 28 209 30 219 c 257
EndSplineSet
Validated: 1
PickledDataWithLists: "(dp1
S'com.fontlab.hintData'
p2
(dp3
S'hhints'
p4
(lp5
(dp6
S'position'
p7
I209
sS'width'
p8
I74
sass."
EndChar

StartChar: uni2213
Encoding: 234 8723 234
GlifName: uni2213
Width: 513
VWidth: 0
GlyphClass: 2
Flags: W
HStem: 213 72<35 190 13 205 35 266 280 437> 518 72<95 489 73 511>
LayerCount: 2
Fore
SplineSet
262 210 m 258
 226 26 l 257
 226 26 210 16 167 10 c 256
 164 10 164 10 162 10 c 256
 156 10 157 13 158 17 c 258
 195 208 l 258
 195 210 195 213 190 213 c 258
 13 213 l 257
 13 213 7 213 9 223 c 256
 10 227 16 256 27 280 c 256
 30 286 35 285 35 285 c 257
 205 285 l 258
 208 285 211 289 211 291 c 258
 246 473 l 257
 246 473 246 478 252 480 c 256
 276 487 303 488 307 488 c 256
 316 488 315 482 315 482 c 257
 278 290 l 258
 277 287 277 285 280 285 c 258
 459 285 l 258
 463 285 466 285 465 278 c 256
 463 269 454 241 444 219 c 256
 441 213 437 213 437 213 c 257
 266 213 l 258
 263 213 262 212 262 210 c 258
511 590 m 257
 511 590 520 591 516 579 c 256
 500 531 492 521 489 518 c 257
 73 518 l 257
 73 518 65 517 70 531 c 256
 75 545 79 565 88 585 c 256
 91 591 95 590 95 590 c 257
 511 590 l 257
EndSplineSet
Validated: 1
PickledDataWithLists: "(dp1
S'com.fontlab.hintData'
p2
(dp3
S'hhints'
p4
(lp5
(dp6
S'position'
p7
I213
sS'width'
p8
I72
sa(dp9
g7
I518
sg8
I72
sass."
EndChar

StartChar: radical
Encoding: 235 8730 235
GlifName: radical
Width: 584
VWidth: 0
GlyphClass: 2
Flags: W
LayerCount: 2
Fore
SplineSet
14 150 m 257
 3 157 -6 174 -4 185 c 256
 -1 198 12 205 23 212 c 256
 58 235 168 312 183 324 c 256
 192 331 208 332 209 324 c 257
 212 292 212 280 217 254 c 258
 259 47 l 257
 275 90 542 791 542 791 c 257
 594 784 l 257
 594 784 287 -25 239 -153 c 257
 222 -171 194 -180 188 -180 c 256
 184 -180 181 -179 180 -175 c 258
 97 196 l 257
 14 150 l 257
EndSplineSet
Validated: 33
EndChar

StartChar: proportional
Encoding: 236 8733 236
GlifName: proportional
Width: 640
VWidth: 0
GlyphClass: 2
Flags: W
HStem: 37 73<162.5 191.5> 352 74<202.5 262.5>
LayerCount: 2
Fore
SplineSet
568 112 m 257
 576 112 576 101 574 90 c 256
 570 69 554 49 544 42 c 257
 422 42 379 162 369 162 c 258
 368 162 l 257
 306 99 237 37 146 37 c 256
 58 37 10 128 28 223 c 256
 49 332 152 426 253 426 c 256
 343 426 394 349 423 301 c 256
 424 299 427 298 428 300 c 256
 477 353 552 427 625 427 c 256
 632 427 635 396 631 373 c 256
 630 366 626 352 621 352 c 256
 617 352 612 352 605 352 c 256
 543 352 450 241 451 240 c 256
 466 210 497 112 568 112 c 257
112 229 m 256
 98 159 138 110 187 110 c 256
 248 110 313 187 341 218 c 256
 342 220 298 352 227 352 c 256
 177 352 125 297 112 229 c 256
EndSplineSet
Validated: 33
PickledDataWithLists: "(dp1
S'com.fontlab.hintData'
p2
(dp3
S'hhints'
p4
(lp5
(dp6
S'position'
p7
I37
sS'width'
p8
I73
sa(dp9
g7
I352
sg8
I74
sass."
EndChar

StartChar: infinity
Encoding: 237 8734 237
GlifName: infinity
Width: 807
VWidth: 0
GlyphClass: 2
Flags: W
HStem: 39 74<541 591> 352 74<202 259.5>
LayerCount: 2
Fore
SplineSet
606 357 m 256
 549 357 473 268 454 246 c 256
 453 245 453 245 454 244 c 256
 469 214 509 113 573 113 c 256
 620 113 670 166 683 233 c 256
 697 304 658 357 606 357 c 256
227 352 m 256
 177 352 125 297 112 229 c 256
 98 159 137 110 186 110 c 256
 247 110 312 187 340 218 c 256
 341 219 342 219 341 220 c 256
 331 244 292 352 227 352 c 256
252 426 m 256
 342 426 393 349 422 301 c 256
 423 299 427 298 428 300 c 256
 477 353 555 426 645 426 c 256
 733 426 786 337 768 242 c 256
 747 132 642 39 540 39 c 256
 418 39 378 162 368 162 c 258
 367 162 l 257
 305 99 237 37 146 37 c 256
 58 37 10 128 28 223 c 256
 49 332 151 426 252 426 c 256
EndSplineSet
Validated: 33
PickledDataWithLists: "(dp1
S'com.fontlab.hintData'
p2
(dp3
S'hhints'
p4
(lp5
(dp6
S'position'
p7
I39
sS'width'
p8
I74
sa(dp9
g7
I352
sg8
I74
sass."
EndChar

StartChar: notequal
Encoding: 238 8800 238
GlifName: notequal
Width: 509
VWidth: 0
GlyphClass: 2
Flags: W
HStem: 109 72<39 145 16 196 253 430 39 202> 251 72<65 246 44 298 355 458 65 303>
LayerCount: 2
Fore
SplineSet
39 261 m 257
 39 261 56 323 65 323 c 258
 298 323 l 257
 367 420 l 257
 367 420 372 423 376 423 c 256
 387 423 395 415 401 406 c 256
 405 401 407 395 407 395 c 257
 355 323 l 257
 483 323 l 258
 485 323 487 322 486 318 c 256
 484 309 474 279 464 257 c 256
 461 251 458 251 458 251 c 257
 303 251 l 257
 253 181 l 257
 451 181 l 258
 455 181 459 183 458 176 c 256
 456 167 447 137 437 115 c 256
 434 109 430 109 430 109 c 257
 202 109 l 257
 136 16 l 257
 133 14 130 14 126 14 c 256
 123 14 108 18 99 34 c 256
 96 38 96 41 96 41 c 257
 145 109 l 257
 16 109 l 257
 16 109 10 109 12 119 c 256
 13 123 20 152 31 176 c 256
 34 182 39 181 39 181 c 257
 196 181 l 257
 246 251 l 257
 44 251 l 257
 44 251 37 251 39 261 c 257
EndSplineSet
Validated: 1
PickledDataWithLists: "(dp1
S'com.fontlab.hintData'
p2
(dp3
S'hhints'
p4
(lp5
(dp6
S'position'
p7
I109
sS'width'
p8
I72
sa(dp9
g7
I251
sg8
I72
sass."
EndChar

StartChar: lessequal
Encoding: 239 8804 239
GlifName: lessequal
Width: 472
VWidth: 0
GlyphClass: 2
Flags: W
HStem: 4 67<3.5 382 21 372>
LayerCount: 2
Fore
SplineSet
21 71 m 257
 382 71 l 258
 388 71 390 59 390 53 c 256
 390 39 381 21 372 4 c 257
 7 4 l 258
 0 4 0 16 0 22 c 256
 0 36 11 59 21 71 c 257
462 529 m 257
 466 524 474 498 474 477 c 256
 474 472 473 466 469 464 c 258
 138 308 l 257
 413 149 l 257
 413 131 397 86 391 86 c 256
 389 86 385 86 382 88 c 258
 62 269 l 258
 54 274 45 292 45 302 c 256
 45 328 73 348 85 354 c 256
 225 420 315 461 462 529 c 257
EndSplineSet
Validated: 1
PickledDataWithLists: "(dp1
S'com.fontlab.hintData'
p2
(dp3
S'hhints'
p4
(lp5
(dp6
S'position'
p7
I4
sS'width'
p8
I67
sass."
EndChar

StartChar: greaterequal
Encoding: 240 8805 240
GlifName: greaterequal
Width: 456
VWidth: 0
GlyphClass: 2
Flags: W
HStem: 4 67<1.5 380 18 369>
LayerCount: 2
Fore
SplineSet
18 71 m 257
 380 71 l 258
 386 71 388 59 388 53 c 256
 388 39 381 21 369 4 c 257
 5 4 l 258
 -2 4 -2 16 -2 22 c 256
 -2 36 9 59 18 71 c 257
23 86 m 257
 19 91 11 117 11 138 c 256
 11 143 12 149 16 151 c 258
 347 307 l 257
 72 466 l 257
 72 484 88 529 94 529 c 256
 96 529 100 529 103 527 c 258
 423 346 l 258
 431 341 440 323 440 313 c 256
 440 287 412 267 400 261 c 256
 260 195 170 154 23 86 c 257
EndSplineSet
Validated: 1
PickledDataWithLists: "(dp1
S'com.fontlab.hintData'
p2
(dp3
S'hhints'
p4
(lp5
(dp6
S'position'
p7
I4
sS'width'
p8
I67
sass."
EndChar

StartChar: propersubset
Encoding: 241 8834 241
GlifName: propersubset
Width: 437
VWidth: 0
GlyphClass: 2
Flags: W
HStem: 11 60<119 356 181 352> 370 60<202.5 433 243 414>
LayerCount: 2
Fore
SplineSet
232 370 m 258
 173 370 110 309 93 220 c 256
 76 130 119 71 181 71 c 258
 356 71 l 256
 356 71 369 64 362 29 c 256
 360 20 352 11 352 11 c 257
 171 11 l 258
 67 11 6 109 28 221 c 256
 49 330 142 430 243 430 c 258
 433 430 l 257
 433 430 437 421 435 409 c 256
 429 378 414 370 414 370 c 257
 232 370 l 258
EndSplineSet
Validated: 33
PickledDataWithLists: "(dp1
S'com.fontlab.hintData'
p2
(dp3
S'hhints'
p4
(lp5
(dp6
S'position'
p7
I11
sS'width'
p8
I60
sa(dp9
g7
I370
sg8
I60
sass."
EndChar

StartChar: uni0302
Encoding: 242 770 242
GlifName: uni0302
Width: 0
VWidth: 0
GlyphClass: 4
Flags: W
HStem: 490 168
VStem: -373 221<513 513>
LayerCount: 2
Fore
SplineSet
-237 658 m 256
 -234 658 -230 656 -226 648 c 256
 -194 586 -160 528 -152 513 c 257
 -154 503 -159 492 -164 490 c 257
 -181 504 -230 546 -252 570 c 257
 -283 546 -347 502 -369 490 c 257
 -373 492 -375 503 -373 513 c 257
 -362 524 -296 595 -250 648 c 256
 -244 654 -241 658 -237 658 c 256
EndSplineSet
Validated: 1
PickledDataWithLists: "(dp1
S'com.fontlab.hintData'
p2
(dp3
S'vhints'
p4
(lp5
(dp6
S'position'
p7
I-373
sS'width'
p8
I221
sasS'hhints'
p9
(lp10
(dp11
g7
I490
sg8
I168
sass."
EndChar

StartChar: tildecomb
Encoding: 243 771 243
GlifName: tildecomb
Width: 0
VWidth: 0
GlyphClass: 4
Flags: W
HStem: 490 50<-184 -183> 533 50<-339.5 -282>
VStem: -396 301
LayerCount: 2
Fore
SplineSet
-294 583 m 256
 -270 583 -253 576 -236 567 c 256
 -215 556 -199 540 -169 540 c 256
 -136 540 -109 575 -102 583 c 257
 -99 582 -94 579 -95 571 c 256
 -97 555 -108 538 -117 528 c 256
 -144 500 -169 490 -197 490 c 256
 -221 490 -236 496 -254 506 c 256
 -274 517 -293 533 -323 533 c 256
 -356 533 -383 498 -390 490 c 257
 -393 491 -397 495 -396 503 c 256
 -394 519 -384 535 -375 545 c 256
 -348 573 -322 583 -294 583 c 256
EndSplineSet
Validated: 8388609
PickledDataWithLists: "(dp1
S'com.fontlab.hintData'
p2
(dp3
S'vhints'
p4
(lp5
(dp6
S'position'
p7
I-396
sS'width'
p8
I301
sasS'hhints'
p9
(lp10
(dp11
g7
I490
sg8
I50
sa(dp12
g7
I533
sg8
I50
sass."
EndChar

StartChar: dotlessi
Encoding: 244 305 244
GlifName: dotlessi
Width: 310
VWidth: 0
GlyphClass: 2
Flags: W
HStem: -8 86<106.5 208> 363 86<85 186>
VStem: 60 123<37.5 101.5> 111 122<339.5 401>
LayerCount: 2
Fore
SplineSet
106 309 m 258
 107 313 111 337 111 342 c 256
 111 351 106 363 96 363 c 256
 74 363 28 308 25 302 c 257
 18 302 11 323 11 329 c 257
 28 361 112 449 166 449 c 256
 206 449 233 424 233 378 c 256
 233 364 226 328 224 318 c 258
 187 132 l 258
 186 128 183 104 183 99 c 256
 183 90 187 78 197 78 c 256
 219 78 265 133 268 139 c 257
 275 139 282 118 282 112 c 257
 265 80 177 -8 123 -8 c 256
 90 -8 60 12 60 63 c 256
 60 77 67 115 69 123 c 257
 106 309 l 258
EndSplineSet
Validated: 8388609
PickledDataWithLists: "(dp1
S'com.fontlab.hintData'
p2
(dp3
S'vhints'
p4
(lp5
(dp6
S'position'
p7
I60
sS'width'
p8
I123
sa(dp9
g7
I111
sg8
I122
sasS'hhints'
p10
(lp11
(dp12
g7
I-8
sg8
I86
sa(dp13
g7
I363
sg8
I86
sass."
EndChar

StartChar: uni0304
Encoding: 245 772 245
GlifName: uni0304
Width: 0
VWidth: 0
GlyphClass: 4
Flags: W
HStem: 490 43<-360 -142 -370 -136>
VStem: -373 242<496 528>
LayerCount: 2
Fore
SplineSet
-142 490 m 257
 -370 490 l 257
 -370 490 -373 493 -373 499 c 256
 -373 506 -365 533 -360 533 c 258
 -136 533 l 258
 -134 533 -131 530 -131 526 c 256
 -131 521 -134 499 -142 490 c 257
EndSplineSet
Validated: 1
PickledDataWithLists: "(dp1
S'com.fontlab.hintData'
p2
(dp3
S'vhints'
p4
(lp5
(dp6
S'position'
p7
I-373
sS'width'
p8
I242
sasS'hhints'
p9
(lp10
(dp11
g7
I490
sg8
I43
sass."
EndChar

StartChar: uni0305
Encoding: 246 773 246
GlifName: uni0305
Width: 526
VWidth: 0
GlyphClass: 4
Flags: W
HStem: 734 72<156 674 135 697>
LayerCount: 2
Fore
SplineSet
131 744 m 256
 131 746 146 806 156 806 c 258
 697 806 l 258
 699 806 703 805 701 797 c 256
 698 779 685 745 683 741 c 256
 680 735 674 734 674 734 c 257
 135 734 l 257
 135 734 129 734 131 744 c 256
EndSplineSet
Validated: 1
PickledDataWithLists: "(dp1
S'com.fontlab.hintData'
p2
(dp3
S'hhints'
p4
(lp5
(dp6
S'position'
p7
I734
sS'width'
p8
I72
sass."
EndChar

StartChar: uni0306
Encoding: 247 774 247
GlifName: uni0306
Width: 0
VWidth: 0
GlyphClass: 4
Flags: W
HStem: 490 56<-259.5 -230>
VStem: -336 23<591 609> -151 18<597.5 609>
LayerCount: 2
Fore
SplineSet
-244 546 m 256
 -207 546 -169 565 -151 608 c 256
 -151 610 -149 611 -147 611 c 256
 -141 611 -132 603 -133 598 c 256
 -133 597 -135 592 -135 590 c 256
 -154 537 -205 490 -255 490 c 256
 -305 490 -339 534 -336 591 c 256
 -336 593 -335 597 -335 598 c 256
 -334 603 -322 611 -316 611 c 256
 -314 611 -313 610 -313 608 c 256
 -312 565 -275 546 -244 546 c 256
EndSplineSet
Validated: 33
PickledDataWithLists: "(dp1
S'com.fontlab.hintData'
p2
(dp3
S'vhints'
p4
(lp5
(dp6
S'position'
p7
I-336
sS'width'
p8
I23
sa(dp9
g7
I-151
sg8
I18
sasS'hhints'
p10
(lp11
(dp12
g7
I490
sg8
I56
sass."
EndChar

StartChar: uni0307
Encoding: 248 775 248
GlifName: uni0307
Width: 0
VWidth: 0
GlyphClass: 4
Flags: W
HStem: 490 138<-254.5 -244.5>
VStem: -313 126<561 561>
LayerCount: 2
Fore
SplineSet
-313 561 m 256
 -306 598 -272 628 -237 628 c 256
 -203 628 -180 598 -187 561 c 256
 -194 524 -227 490 -262 490 c 256
 -298 490 -320 524 -313 561 c 256
EndSplineSet
Validated: 33
PickledDataWithLists: "(dp1
S'com.fontlab.hintData'
p2
(dp3
S'vhints'
p4
(lp5
(dp6
S'position'
p7
I-313
sS'width'
p8
I126
sasS'hhints'
p9
(lp10
(dp11
g7
I490
sg8
I138
sass."
EndChar

StartChar: uni0308
Encoding: 249 776 249
GlifName: uni0308
Width: 0
VWidth: 0
GlyphClass: 4
Flags: W
HStem: 490 139<-326 -317 -150 -142>
VStem: -386 129<560 560> -211 130<560 560>
LayerCount: 2
Fore
SplineSet
-132 629 m 256
 -96 629 -74 598 -81 560 c 256
 -88 522 -124 490 -160 490 c 256
 -196 490 -218 522 -211 560 c 256
 -204 598 -168 629 -132 629 c 256
-308 629 m 256
 -272 629 -250 598 -257 560 c 256
 -264 522 -299 490 -335 490 c 256
 -371 490 -393 522 -386 560 c 256
 -379 598 -344 629 -308 629 c 256
EndSplineSet
Validated: 33
PickledDataWithLists: "(dp1
S'com.fontlab.hintData'
p2
(dp3
S'vhints'
p4
(lp5
(dp6
S'position'
p7
I-386
sS'width'
p8
I129
sa(dp9
g7
I-211
sg8
I130
sasS'hhints'
p10
(lp11
(dp12
g7
I490
sg8
I139
sass."
EndChar

StartChar: hookabovecomb
Encoding: 250 777 250
GlifName: hookabovecomb
Width: 0
VWidth: 0
GlyphClass: 4
Flags: W
HStem: 636 38<-241 -224.5>
VStem: -330 58 -310 44
LayerCount: 2
Fore
SplineSet
-218 674 m 256
 -180 674 -159 649 -165 616 c 256
 -172 579 -200 553 -227 542 c 256
 -249 533 -262 528 -265 515 c 256
 -265 513 -266 510 -266 507 c 257
 -267 504 -291 498 -304 498 c 257
 -308 501 -311 512 -310 515 c 256
 -305 543 -277 556 -259 564 c 256
 -236 574 -221 587 -217 606 c 256
 -215 618 -215 636 -234 636 c 256
 -255 636 -268 619 -272 600 c 256
 -275 583 -300 578 -313 578 c 256
 -321 578 -332 583 -330 595 c 256
 -320 646 -264 674 -218 674 c 256
EndSplineSet
Validated: 8388641
PickledDataWithLists: "(dp1
S'com.fontlab.hintData'
p2
(dp3
S'vhints'
p4
(lp5
(dp6
S'position'
p7
I-330
sS'width'
p8
I58
sa(dp9
g7
I-310
sg8
I44
sasS'hhints'
p10
(lp11
(dp12
g7
I636
sg8
I38
sass."
EndChar

StartChar: uni030A
Encoding: 251 778 251
GlifName: uni030A_
Width: 0
VWidth: 0
GlyphClass: 4
Flags: W
HStem: 490 45<-278 -250 -278 -248> 643 44<-257 -229>
VStem: -346 184<589 589>
LayerCount: 2
Fore
SplineSet
-303 589 m 256
 -309 559 -292 535 -264 535 c 256
 -236 535 -210 559 -204 589 c 256
 -198 619 -215 643 -243 643 c 256
 -271 643 -297 619 -303 589 c 256
-346 589 m 256
 -336 643 -284 687 -234 687 c 256
 -184 687 -152 643 -162 589 c 256
 -172 535 -223 490 -273 490 c 256
 -323 490 -356 535 -346 589 c 256
EndSplineSet
Validated: 33
PickledDataWithLists: "(dp1
S'com.fontlab.hintData'
p2
(dp3
S'vhints'
p4
(lp5
(dp6
S'position'
p7
I-346
sS'width'
p8
I184
sasS'hhints'
p9
(lp10
(dp11
g7
I490
sg8
I45
sa(dp12
g7
I643
sg8
I44
sass."
EndChar

StartChar: uni030C
Encoding: 253 780 253
GlifName: uni030C_
Width: 0
VWidth: 0
GlyphClass: 4
Flags: W
HStem: 490 168
VStem: -349 221<635 635>
LayerCount: 2
Fore
SplineSet
-264 490 m 256
 -267 490 -271 492 -275 500 c 256
 -307 562 -341 620 -349 635 c 257
 -347 645 -342 656 -337 658 c 257
 -320 644 -271 602 -249 578 c 257
 -218 602 -154 646 -132 658 c 257
 -128 656 -126 645 -128 635 c 257
 -139 624 -205 553 -251 500 c 256
 -257 494 -260 490 -264 490 c 256
EndSplineSet
Validated: 1
PickledDataWithLists: "(dp1
S'com.fontlab.hintData'
p2
(dp3
S'vhints'
p4
(lp5
(dp6
S'position'
p7
I-349
sS'width'
p8
I221
sasS'hhints'
p9
(lp10
(dp11
g7
I490
sg8
I168
sass."
EndChar

StartChar: uni0312
Encoding: 254 786 254
GlifName: uni0312
Width: 131
VWidth: 0
GlyphClass: 4
Flags: W
VStem: 114 76<491 578.5>
LayerCount: 2
Fore
SplineSet
223 635 m 257
 227 635 240 628 240 625 c 257
 233 623 190 591 190 566 c 256
 190 544 216 540 216 508 c 256
 216 481 184 467 154 466 c 256
 141 466 128 468 119 473 c 257
 115 480 114 487 114 495 c 256
 114 543 180 622 223 635 c 257
EndSplineSet
Validated: 1
PickledDataWithLists: "(dp1
S'com.fontlab.hintData'
p2
(dp3
S'vhints'
p4
(lp5
(dp6
S'position'
p7
I114
sS'width'
p8
I76
sass."
EndChar

StartChar: uni0315
Encoding: 255 789 255
GlifName: uni0315
Width: 131
VWidth: 0
GlyphClass: 4
Flags: W
HStem: 454 227<120 238 123 238>
VStem: 144 97<601.5 659.5> 165 76
LayerCount: 2
Fore
SplineSet
105 476 m 256
 105 482 165 519 165 559 c 256
 165 580 144 587 144 616 c 256
 144 675 200 681 238 681 c 257
 240 675 241 665 241 654 c 256
 241 641 240 625 237 610 c 256
 225 546 166 478 125 454 c 257
 123 454 l 258
 117 454 105 469 105 476 c 256
EndSplineSet
Validated: 8388609
PickledDataWithLists: "(dp1
S'com.fontlab.hintData'
p2
(dp3
S'vhints'
p4
(lp5
(dp6
S'position'
p7
I144
sS'width'
p8
I97
sa(dp9
g7
I165
sg8
I76
sasS'hhints'
p10
(lp11
(dp12
g7
I454
sg8
I227
sass."
EndChar

StartChar: uni0326
Encoding: 256 806 256
GlifName: uni0326
Width: 0
VWidth: 0
GlyphClass: 4
Flags: W
HStem: -218 162<-323.5 -199 -320 -199>
VStem: -284 97<-163.5 -92>
LayerCount: 2
Fore
SplineSet
-313 -101 m 256
 -313 -65 -244 -56 -199 -56 c 257
 -189 -67 -187 -81 -187 -103 c 256
 -187 -151 -273 -209 -317 -218 c 257
 -318 -218 -319 -218 -320 -218 c 256
 -327 -218 -341 -211 -341 -204 c 256
 -341 -201 -284 -176 -284 -151 c 256
 -284 -129 -313 -128 -313 -101 c 256
EndSplineSet
Validated: 1
PickledDataWithLists: "(dp1
S'com.fontlab.hintData'
p2
(dp3
S'vhints'
p4
(lp5
(dp6
S'position'
p7
I-284
sS'width'
p8
I97
sasS'hhints'
p9
(lp10
(dp11
g7
I-218
sg8
I162
sass."
EndChar

StartChar: uni0327
Encoding: 257 807 257
GlifName: uni0327
Width: 0
VWidth: 0
GlyphClass: 4
Flags: W
HStem: -163 23<-277 -258> -65 36<-254.5 -223>
VStem: -220 51<-101 -88.5>
LayerCount: 2
Fore
SplineSet
-246 -4 m 257
 -217 -4 l 257
 -240 -29 l 257
 -223 -29 l 258
 -198 -29 -169 -48 -169 -76 c 256
 -169 -126 -227 -163 -289 -163 c 256
 -302 -163 -326 -158 -332 -153 c 257
 -334 -151 -336 -147 -336 -144 c 256
 -336 -128 -327 -116 -317 -116 c 256
 -298 -116 -291 -140 -263 -140 c 256
 -238 -140 -220 -123 -220 -100 c 256
 -220 -77 -236 -65 -249 -65 c 256
 -260 -65 -267 -68 -278 -73 c 256
 -280 -73 -293 -66 -293 -61 c 256
 -293 -56 -273 -40 -246 -4 c 257
EndSplineSet
Validated: 1
PickledDataWithLists: "(dp1
S'com.fontlab.hintData'
p2
(dp3
S'vhints'
p4
(lp5
(dp6
S'position'
p7
I-220
sS'width'
p8
I51
sasS'hhints'
p9
(lp10
(dp11
g7
I-163
sg8
I23
sa(dp12
g7
I-65
sg8
I36
sass."
EndChar

StartChar: gravecomb.cap
Encoding: 259 -1 259
GlifName: gravecomb.cap
Width: 270
VWidth: 0
GlyphClass: 4
Flags: W
HStem: 731 118
VStem: 200 208<742 829>
LayerCount: 2
Fore
SplineSet
399 731 m 257
 384 733 200 777 200 817 c 256
 200 841 233 849 256 849 c 256
 270 849 293 846 302 841 c 256
 344 816 403 752 408 744 c 257
 408 740 403 734 399 731 c 257
EndSplineSet
Validated: 1
PickledDataWithLists: "(dp1
S'com.fontlab.hintData'
p2
(dp3
S'vhints'
p4
(lp5
(dp6
S'position'
p7
I200
sS'width'
p8
I208
sasS'hhints'
p9
(lp10
(dp11
g7
I731
sg8
I118
sass."
EndChar

StartChar: acutecomb.cap
Encoding: 260 -1 260
GlifName: acutecomb.cap
Width: 225
VWidth: 0
GlyphClass: 4
Flags: W
HStem: 731 118
VStem: 157 208<742 829>
LayerCount: 2
Fore
SplineSet
166 731 m 257
 162 734 157 740 157 744 c 257
 162 752 221 816 263 841 c 256
 272 846 295 849 309 849 c 256
 332 849 365 841 365 817 c 256
 365 777 181 733 166 731 c 257
EndSplineSet
Validated: 1
PickledDataWithLists: "(dp1
S'com.fontlab.hintData'
p2
(dp3
S'vhints'
p4
(lp5
(dp6
S'position'
p7
I157
sS'width'
p8
I208
sasS'hhints'
p9
(lp10
(dp11
g7
I731
sg8
I118
sass."
EndChar

StartChar: uni0302.cap
Encoding: 261 -1 261
GlifName: uni0302.cap
Width: 353
VWidth: 0
GlyphClass: 4
Flags: W
HStem: 704 140
VStem: 182 259<720 720>
LayerCount: 2
Fore
SplineSet
334 844 m 256
 338 844 341 839 345 834 c 256
 367 805 418 744 441 720 c 257
 440 712 435 706 429 704 c 257
 418 707 347 744 320 764 c 257
 285 744 205 708 189 704 c 257
 185 706 181 714 182 720 c 257
 237 763 302 817 320 834 c 256
 326 840 331 844 334 844 c 256
EndSplineSet
Validated: 1
PickledDataWithLists: "(dp1
S'com.fontlab.hintData'
p2
(dp3
S'vhints'
p4
(lp5
(dp6
S'position'
p7
I182
sS'width'
p8
I259
sasS'hhints'
p9
(lp10
(dp11
g7
I704
sg8
I140
sass."
EndChar

StartChar: uni030A.cap
Encoding: 262 -1 262
GlifName: uni030A_.cap
Width: 286
VWidth: 0
GlyphClass: 4
Flags: W
HStem: 660 45<279 307 279 309> 813 44<300 328>
VStem: 211 184<759 759>
LayerCount: 2
Fore
SplineSet
254 759 m 256
 248 729 265 705 293 705 c 256
 321 705 347 729 353 759 c 256
 359 789 342 813 314 813 c 256
 286 813 260 789 254 759 c 256
211 759 m 256
 221 813 272 857 322 857 c 256
 372 857 405 813 395 759 c 256
 385 705 334 660 284 660 c 256
 234 660 201 705 211 759 c 256
EndSplineSet
Validated: 33
PickledDataWithLists: "(dp1
S'com.fontlab.hintData'
p2
(dp3
S'vhints'
p4
(lp5
(dp6
S'position'
p7
I211
sS'width'
p8
I184
sasS'hhints'
p9
(lp10
(dp11
g7
I660
sg8
I45
sa(dp12
g7
I813
sg8
I44
sass."
EndChar

StartChar: tildecomb.cap
Encoding: 263 -1 263
GlifName: tildecomb.cap
Width: 374
VWidth: 0
GlyphClass: 4
Flags: W
HStem: 728 50<408 415> 770 50<271 278>
VStem: 186 314<738 810>
LayerCount: 2
Fore
SplineSet
286 820 m 256
 311 820 327 817 349 804 c 256
 371 791 392 778 424 778 c 256
 459 778 485 812 491 820 c 257
 494 819 500 814 500 806 c 256
 500 791 490 775 481 765 c 256
 455 738 430 728 400 728 c 256
 375 728 359 731 337 744 c 256
 315 757 294 770 262 770 c 256
 227 770 201 736 195 728 c 257
 192 729 186 734 186 742 c 256
 186 757 196 773 205 783 c 256
 231 810 256 820 286 820 c 256
EndSplineSet
Validated: 8388609
PickledDataWithLists: "(dp1
S'com.fontlab.hintData'
p2
(dp3
S'vhints'
p4
(lp5
(dp6
S'position'
p7
I186
sS'width'
p8
I314
sasS'hhints'
p9
(lp10
(dp11
g7
I728
sg8
I50
sa(dp12
g7
I770
sg8
I50
sass."
EndChar

StartChar: uni0304.cap
Encoding: 264 -1 264
GlifName: uni0304.cap
Width: 352
VWidth: 0
GlyphClass: 4
Flags: W
HStem: 557 43<178 411 168 417>
VStem: 165 257<563 595>
LayerCount: 2
Fore
SplineSet
411 557 m 257
 168 557 l 257
 168 557 165 560 165 566 c 256
 165 573 173 600 178 600 c 258
 417 600 l 258
 419 600 422 597 422 593 c 256
 422 588 419 566 411 557 c 257
EndSplineSet
Validated: 1
PickledDataWithLists: "(dp1
S'com.fontlab.hintData'
p2
(dp3
S'vhints'
p4
(lp5
(dp6
S'position'
p7
I165
sS'width'
p8
I257
sasS'hhints'
p9
(lp10
(dp11
g7
I557
sg8
I43
sass."
EndChar

StartChar: uni0306.cap
Encoding: 265 -1 265
GlifName: uni0306.cap
Width: 231
VWidth: 0
GlyphClass: 4
Flags: W
HStem: 705 55<257 290>
VStem: 184 23<806 824> 369 18<812.5 824>
LayerCount: 2
Fore
SplineSet
278 760 m 256
 312 760 351 780 369 823 c 256
 369 825 371 826 373 826 c 256
 379 826 388 818 387 813 c 256
 387 812 385 807 385 805 c 256
 366 752 315 705 265 705 c 256
 215 705 181 749 184 806 c 256
 184 808 185 812 185 813 c 256
 186 818 198 826 204 826 c 256
 206 826 207 825 207 823 c 256
 208 780 236 760 278 760 c 256
EndSplineSet
Validated: 33
PickledDataWithLists: "(dp1
S'com.fontlab.hintData'
p2
(dp3
S'vhints'
p4
(lp5
(dp6
S'position'
p7
I184
sS'width'
p8
I23
sa(dp9
g7
I369
sg8
I18
sasS'hhints'
p10
(lp11
(dp12
g7
I705
sg8
I55
sass."
EndChar

StartChar: uni0327.cap
Encoding: 266 -1 266
GlifName: uni0327.cap
Width: 406
VWidth: 0
GlyphClass: 4
Flags: W
HStem: -172 24<137 158> -69 39<161 194>
VStem: 197 55<-106.5 -94>
LayerCount: 2
Fore
SplineSet
170 -4 m 257
 201 -4 l 257
 176 -30 l 257
 194 -30 l 258
 220 -30 252 -50 252 -80 c 256
 252 -133 191 -172 125 -172 c 256
 111 -172 85 -167 79 -162 c 257
 77 -160 75 -155 75 -152 c 256
 75 -135 84 -123 95 -123 c 256
 115 -123 122 -148 152 -148 c 256
 178 -148 197 -130 197 -106 c 256
 197 -82 181 -69 167 -69 c 256
 155 -69 148 -72 136 -77 c 256
 134 -77 120 -69 120 -64 c 256
 120 -59 141 -42 170 -4 c 257
EndSplineSet
Validated: 1
PickledDataWithLists: "(dp1
S'com.fontlab.hintData'
p2
(dp3
S'vhints'
p4
(lp5
(dp6
S'position'
p7
I197
sS'width'
p8
I55
sasS'hhints'
p9
(lp10
(dp11
g7
I-172
sg8
I24
sa(dp12
g7
I-69
sg8
I39
sass."
EndChar

StartChar: uni0307.cap
Encoding: 267 -1 267
GlifName: uni0307.cap
Width: 203
VWidth: 0
GlyphClass: 4
Flags: W
HStem: 728 138<295.5 305.5>
VStem: 237 126<799 799>
LayerCount: 2
Fore
SplineSet
237 799 m 256
 244 836 278 866 313 866 c 256
 347 866 370 836 363 799 c 256
 356 762 323 728 288 728 c 256
 252 728 230 762 237 799 c 256
EndSplineSet
Validated: 33
PickledDataWithLists: "(dp1
S'com.fontlab.hintData'
p2
(dp3
S'vhints'
p4
(lp5
(dp6
S'position'
p7
I237
sS'width'
p8
I126
sasS'hhints'
p9
(lp10
(dp11
g7
I728
sg8
I138
sass."
EndChar

StartChar: uni0323.cap
Encoding: 268 -1 268
GlifName: uni0323.cap
Width: 285
VWidth: 0
GlyphClass: 4
Flags: W
HStem: -180 148<115 124>
VStem: 51 137<4.29497e+09 4.29497e+09>
LayerCount: 2
Fore
SplineSet
51 -106 m 256
 59 -65 96 -32 134 -32 c 256
 172 -32 196 -65 188 -106 c 256
 180 -147 143 -180 105 -180 c 256
 67 -180 43 -147 51 -106 c 256
EndSplineSet
Validated: 33
PickledDataWithLists: "(dp1
S'com.fontlab.hintData'
p2
(dp3
S'vhints'
p4
(lp5
(dp6
S'position'
p7
I51
sS'width'
p8
I137
sasS'hhints'
p9
(lp10
(dp11
g7
I-180
sg8
I148
sass."
EndChar

StartChar: uni030B.cap
Encoding: 271 -1 271
GlifName: uni030B_.cap
Width: 432
VWidth: 0
GlyphClass: 4
Flags: W
HStem: 731 118
LayerCount: 2
Fore
SplineSet
356 731 m 257
 352 734 347 740 347 744 c 257
 352 752 411 816 453 841 c 256
 462 846 485 849 499 849 c 256
 522 849 555 841 555 817 c 256
 555 777 371 733 356 731 c 257
166 731 m 257
 162 734 157 740 157 744 c 257
 162 752 221 816 263 841 c 256
 272 846 295 849 309 849 c 256
 332 849 365 841 365 817 c 256
 365 777 181 733 166 731 c 257
EndSplineSet
Validated: 1
PickledDataWithLists: "(dp1
S'com.fontlab.hintData'
p2
(dp3
S'hhints'
p4
(lp5
(dp6
S'position'
p7
I731
sS'width'
p8
I118
sass."
EndChar

StartChar: uni0308.cap
Encoding: 272 -1 272
GlifName: uni0308.cap
Width: 417
VWidth: 0
GlyphClass: 4
Flags: W
HStem: 717 138<207.5 217.5 401.5 411.5>
VStem: 149 126<788 788> 343 126<788 788>
LayerCount: 2
Fore
SplineSet
343 788 m 256
 350 825 384 855 419 855 c 256
 453 855 476 825 469 788 c 256
 462 751 429 717 394 717 c 256
 358 717 336 751 343 788 c 256
149 788 m 256
 156 825 190 855 225 855 c 256
 259 855 282 825 275 788 c 256
 268 751 235 717 200 717 c 256
 164 717 142 751 149 788 c 256
EndSplineSet
Validated: 33
PickledDataWithLists: "(dp1
S'com.fontlab.hintData'
p2
(dp3
S'vhints'
p4
(lp5
(dp6
S'position'
p7
I149
sS'width'
p8
I126
sa(dp9
g7
I343
sg8
I126
sasS'hhints'
p10
(lp11
(dp12
g7
I717
sg8
I138
sass."
EndChar

StartChar: uni0308.narrow
Encoding: 273 -1 273
GlifName: uni0308.narrow
Width: 417
VWidth: 0
GlyphClass: 4
Flags: W
HStem: 443 138<185.5 195.5 363.5 373.5>
VStem: 127 126<514 514> 305 126<514 514>
LayerCount: 2
Fore
SplineSet
305 514 m 256
 312 551 346 581 381 581 c 256
 415 581 438 551 431 514 c 256
 424 477 391 443 356 443 c 256
 320 443 298 477 305 514 c 256
127 514 m 256
 134 551 168 581 203 581 c 256
 237 581 260 551 253 514 c 256
 246 477 213 443 178 443 c 256
 142 443 120 477 127 514 c 256
EndSplineSet
Validated: 33
PickledDataWithLists: "(dp1
S'com.fontlab.hintData'
p2
(dp3
S'vhints'
p4
(lp5
(dp6
S'position'
p7
I127
sS'width'
p8
I126
sa(dp9
g7
I305
sg8
I126
sasS'hhints'
p10
(lp11
(dp12
g7
I443
sg8
I138
sass."
EndChar

StartChar: uni030C.cap
Encoding: 274 -1 274
GlifName: uni030C_.cap
Width: 459
VWidth: 0
GlyphClass: 4
Flags: W
HStem: 730 140
VStem: 280 259<854 854>
LayerCount: 2
Fore
SplineSet
387 730 m 256
 383 730 380 735 376 740 c 256
 354 769 303 830 280 854 c 257
 281 862 286 868 292 870 c 257
 303 867 374 830 401 810 c 257
 436 830 516 866 532 870 c 257
 536 868 540 860 539 854 c 257
 484 811 419 757 401 740 c 256
 395 734 390 730 387 730 c 256
EndSplineSet
Validated: 1
PickledDataWithLists: "(dp1
S'com.fontlab.hintData'
p2
(dp3
S'vhints'
p4
(lp5
(dp6
S'position'
p7
I280
sS'width'
p8
I259
sasS'hhints'
p9
(lp10
(dp11
g7
I730
sg8
I140
sass."
EndChar

StartChar: Aogonek
Encoding: 377 260 377
GlifName: A_ogonek
Width: 620
VWidth: 0
GlyphClass: 2
Flags: W
HStem: -218 62<288.5 366> -4 37 225 48<264.5 281.5> 642 20<391 400>
VStem: 248 61<-134 -127>
LayerCount: 2
Fore
SplineSet
455 4 m 256
 392 4 309 -59 309 -122 c 256
 309 -146 320 -156 345 -156 c 256
 387 -156 412 -125 419 -120 c 257
 426 -122 424 -142 422 -146 c 256
 399 -185 350 -218 308 -218 c 256
 269 -218 248 -187 248 -160 c 256
 248 -94 291 -54 334 -7 c 256
 362 23 390 41 390 81 c 256
 390 90 364 220 364 220 c 257
 364 220 362 224 359 224 c 256
 324 226 293 225 270 225 c 256
 232 225 206 225 173 224 c 256
 170 224 166 221 165 219 c 257
 165 219 131 163 115 135 c 256
 101 110 83 74 82 67 c 256
 77 41 140 33 147 33 c 257
 151 26 144 0 140 -4 c 257
 108 0 82 4 41 4 c 256
 -2 4 -28 0 -61 -4 c 257
 -64 0 -62 21 -56 32 c 257
 -45 32 3 48 15 64 c 256
 36 92 44 106 61 134 c 258
 355 624 l 258
 363 637 386 662 396 662 c 256
 404 662 413 658 414 655 c 257
 507 148 l 258
 513 117 515 97 519 76 c 256
 527 35 577 33 584 33 c 257
 587 24 582 0 578 -4 c 257
 541 -2 496 4 455 4 c 256
315 476 m 257
 197 280 l 257
 197 280 197 276 199 276 c 256
 217 274 254 273 275 273 c 256
 304 273 321 273 350 275 c 256
 352 275 354 280 354 280 c 257
 315 476 l 257
EndSplineSet
Validated: 33
PickledDataWithLists: "(dp1
S'com.fontlab.hintData'
p2
(dp3
S'vhints'
p4
(lp5
(dp6
S'position'
p7
I248
sS'width'
p8
I61
sasS'hhints'
p9
(lp10
(dp11
g7
I-218
sg8
I62
sa(dp12
g7
I-4
sg8
I37
sa(dp13
g7
I225
sg8
I48
sa(dp14
g7
I642
sg8
I20
sass."
EndChar

StartChar: aogonek
Encoding: 378 261 378
GlifName: aogonek
Width: 489
VWidth: 0
GlyphClass: 2
Flags: W
HStem: -218 62<235.5 313> -7 88<69 190> 394 55<254.5 269>
VStem: 11 126<128 204.5> 195 61<-134 -128>
LayerCount: 2
Fore
SplineSet
262 394 m 256
 194 394 137 270 137 152 c 256
 137 104 151 81 173 81 c 256
 207 81 257 182 277 281 c 258
 297 382 l 257
 290 390 276 394 262 394 c 256
458 112 m 257
 449 95 419 62 385 34 c 256
 324 -16 256 -67 256 -122 c 256
 256 -146 267 -156 292 -156 c 256
 334 -156 359 -125 366 -120 c 257
 373 -122 371 -142 369 -146 c 256
 346 -185 297 -218 255 -218 c 256
 216 -218 195 -187 195 -160 c 256
 195 -96 246 -52 288 -7 c 257
 258 -3 237 18 237 58 c 256
 237 62 238 70 239 77 c 256
 240 85 242 92 243 96 c 257
 222 59 157 -7 97 -7 c 256
 41 -7 11 47 11 115 c 256
 11 294 191 449 318 449 c 256
 354 449 405 438 425 431 c 257
 363 132 l 258
 362 128 359 104 359 99 c 256
 359 90 363 78 373 78 c 256
 395 78 441 133 444 139 c 257
 451 139 458 118 458 112 c 257
EndSplineSet
Validated: 1
PickledDataWithLists: "(dp1
S'com.fontlab.hintData'
p2
(dp3
S'vhints'
p4
(lp5
(dp6
S'position'
p7
I11
sS'width'
p8
I126
sa(dp9
g7
I195
sg8
I61
sasS'hhints'
p10
(lp11
(dp12
g7
I-218
sg8
I62
sa(dp13
g7
I-7
sg8
I88
sa(dp14
g7
I394
sg8
I55
sass."
EndChar

